<svg xmlns="http://www.w3.org/2000/svg" xmlns:xlink="http://www.w3.org/1999/xlink" width="500" zoomAndPan="magnify" viewBox="0 0 375 374.999991" height="500" preserveAspectRatio="xMidYMid meet" version="1.0"><defs><clipPath id="46c6f69af4"><path d="M 0 243.179688 L 45 243.179688 L 45 290 L 0 290 Z M 0 243.179688 " clip-rule="nonzero"/></clipPath><clipPath id="74dcb430b7"><path d="M 39 243.179688 L 95 243.179688 L 95 290 L 39 290 Z M 39 243.179688 " clip-rule="nonzero"/></clipPath><clipPath id="b01749756d"><path d="M 90 243.179688 L 135 243.179688 L 135 290 L 90 290 Z M 90 243.179688 " clip-rule="nonzero"/></clipPath><clipPath id="4169b12299"><path d="M 129 243.179688 L 185 243.179688 L 185 290 L 129 290 Z M 129 243.179688 " clip-rule="nonzero"/></clipPath><clipPath id="0f8e37cb41"><path d="M 204 243.179688 L 235 243.179688 L 235 290.429688 L 204 290.429688 Z M 204 243.179688 " clip-rule="nonzero"/></clipPath><clipPath id="6611c66c9b"><path d="M 98 84.320312 L 277 84.320312 L 277 211 L 98 211 Z M 98 84.320312 " clip-rule="nonzero"/></clipPath></defs><g clip-path="url(#46c6f69af4)"><path fill="#0080c6" d="M 0 243.832031 L 44.332031 243.832031 L 44.332031 257.269531 L 31.664062 257.269531 L 31.664062 289.527344 L 13.171875 289.527344 L 13.171875 257.269531 L 0 257.269531 " fill-opacity="1" fill-rule="nonzero"/></g><g clip-path="url(#74dcb430b7)"><path fill="#0080c6" d="M 66.792969 262.3125 L 57.503906 289.527344 L 39.769531 289.527344 L 57.167969 243.832031 L 76.417969 243.832031 L 94.234375 289.527344 L 76.25 289.527344 " fill-opacity="1" fill-rule="nonzero"/></g><g clip-path="url(#b01749756d)"><path fill="#0080c6" d="M 90.011719 243.832031 L 134.34375 243.832031 L 134.34375 257.269531 L 121.679688 257.269531 L 121.679688 289.527344 L 103.1875 289.527344 L 103.1875 257.269531 L 90.011719 257.269531 " fill-opacity="1" fill-rule="nonzero"/></g><g clip-path="url(#4169b12299)"><path fill="#0080c6" d="M 156.804688 262.3125 L 147.515625 289.527344 L 129.785156 289.527344 L 147.179688 243.832031 L 166.433594 243.832031 L 184.25 289.527344 L 166.261719 289.527344 " fill-opacity="1" fill-rule="nonzero"/></g><g clip-path="url(#0f8e37cb41)"><path fill="#0080c6" d="M 206.710938 280.457031 C 209.414062 281.96875 213.464844 283.3125 217.773438 283.3125 C 223.089844 283.3125 226.046875 280.792969 226.046875 277.09375 C 226.046875 273.652344 223.765625 271.636719 217.941406 269.535156 C 210.339844 266.847656 205.527344 262.816406 205.527344 256.347656 C 205.527344 248.871094 211.777344 243.324219 221.742188 243.324219 C 226.722656 243.324219 230.351562 244.335938 232.71875 245.59375 L 230.691406 252.3125 C 229.003906 251.472656 225.878906 250.128906 221.570312 250.128906 C 216.253906 250.128906 214.054688 252.902344 214.054688 255.589844 C 214.054688 259.117188 216.675781 260.714844 222.839844 263.066406 C 230.777344 266.089844 234.574219 270.039062 234.574219 276.589844 C 234.574219 283.898438 229.003906 290.285156 217.265625 290.285156 C 212.453125 290.285156 207.386719 288.941406 204.9375 287.425781 " fill-opacity="1" fill-rule="nonzero"/></g><path fill="#0080c6" d="M 248.507812 251.054688 L 235.421875 251.054688 L 235.421875 244 L 270.039062 244 L 270.039062 251.054688 L 256.867188 251.054688 L 256.867188 289.527344 L 248.507812 289.527344 " fill-opacity="1" fill-rule="nonzero"/><path fill="#0080c6" d="M 300.859375 269.367188 L 283.636719 269.367188 L 283.636719 282.722656 L 302.972656 282.722656 L 302.972656 289.527344 L 275.277344 289.527344 L 275.277344 244 L 301.960938 244 L 301.960938 250.886719 L 283.636719 250.886719 L 283.636719 262.5625 L 300.859375 262.5625 " fill-opacity="1" fill-rule="nonzero"/><path fill="#0080c6" d="M 337.171875 269.367188 L 319.945312 269.367188 L 319.945312 282.722656 L 339.195312 282.722656 L 339.195312 289.527344 L 311.585938 289.527344 L 311.585938 244 L 338.183594 244 L 338.183594 250.886719 L 319.945312 250.886719 L 319.945312 262.5625 L 337.171875 262.5625 " fill-opacity="1" fill-rule="nonzero"/><path fill="#0080c6" d="M 347.894531 244 L 356.253906 244 L 356.253906 282.554688 L 375 282.554688 L 375 289.527344 L 347.894531 289.527344 " fill-opacity="1" fill-rule="nonzero"/><g clip-path="url(#6611c66c9b)"><path fill="#0080c6" d="M 276.527344 127.003906 C 274.296875 122.539062 271.230469 118.355469 267.605469 114.167969 C 259.242188 105.242188 247.535156 97.707031 233.597656 92.40625 C 219.660156 87.382812 203.492188 84.59375 187.324219 84.59375 C 171.15625 84.59375 154.988281 87.382812 141.046875 92.683594 C 127.109375 97.988281 115.402344 105.242188 107.039062 114.449219 C 103.414062 118.355469 100.347656 122.820312 98.121094 127.285156 C 116.238281 122.820312 147.179688 117.238281 175.894531 116.402344 C 178.679688 116.402344 180.632812 117.238281 181.746094 118.914062 C 183.421875 120.867188 183.140625 127.839844 183.140625 130.910156 L 182.304688 210.988281 C 183.976562 210.988281 185.652344 210.988281 187.324219 210.988281 C 188.996094 210.988281 190.667969 210.988281 192.339844 210.988281 L 191.503906 130.910156 C 191.503906 127.839844 191.226562 120.867188 192.898438 118.914062 C 194.292969 117.238281 195.964844 116.402344 198.753906 116.402344 C 227.464844 116.679688 258.40625 122.539062 276.527344 127.003906 " fill-opacity="1" fill-rule="nonzero"/></g><path fill="#0080c6" d="M 280.429688 137.328125 C 253.945312 131.191406 236.105469 130.351562 218.824219 129.238281 C 203.492188 128.398438 203.492188 133.699219 204.886719 144.304688 C 204.886719 144.863281 205.164062 145.699219 205.164062 146.535156 C 210.179688 176.949219 216.59375 202.898438 217.707031 207.359375 C 254.78125 198.992188 281.542969 175.273438 281.542969 147.652344 C 281.824219 144.304688 281.265625 140.675781 280.429688 137.328125 " fill-opacity="1" fill-rule="nonzero"/><path fill="#0080c6" d="M 169.761719 144.304688 C 171.15625 133.980469 171.15625 128.398438 155.824219 129.238281 C 138.261719 130.074219 120.699219 131.191406 94.21875 137.328125 C 93.378906 140.675781 93.101562 144.023438 93.101562 147.652344 C 93.101562 159.648438 97.839844 171.089844 107.039062 181.132812 C 115.402344 190.0625 127.109375 197.597656 141.046875 202.898438 C 146.066406 204.851562 151.363281 206.246094 156.9375 207.640625 C 158.054688 203.453125 164.464844 176.949219 169.761719 145.976562 C 169.761719 145.417969 169.761719 144.863281 169.761719 144.304688 " fill-opacity="1" fill-rule="nonzero"/></svg>