<svg xmlns="http://www.w3.org/2000/svg" xmlns:xlink="http://www.w3.org/1999/xlink" width="500" zoomAndPan="magnify" viewBox="0 0 375 374.999991" height="500" preserveAspectRatio="xMidYMid meet" version="1.0"><defs><clipPath id="f5a1fd76af"><path d="M 7.589844 160 L 90 160 L 90 220 L 7.589844 220 Z M 7.589844 160 " clip-rule="nonzero"/></clipPath><clipPath id="5b8026309f"><path d="M 104 159.5 L 360 159.5 L 360 220 L 104 220 Z M 104 159.5 " clip-rule="nonzero"/></clipPath><clipPath id="6a2e0adb8b"><path d="M 195 159.5 L 363 159.5 L 363 226 L 195 226 Z M 195 159.5 " clip-rule="nonzero"/></clipPath></defs><path fill="#141414" d="M 157.777344 200.371094 C 154.410156 200.371094 152.773438 199.035156 152.773438 196.984375 L 152.773438 196.878906 C 152.773438 195.03125 153.796875 193.695312 157.472656 193.183594 L 159.105469 192.976562 C 161.453125 192.667969 162.882812 192.15625 164.207031 191.4375 L 164.207031 194.105469 C 164.207031 198.113281 161.65625 200.371094 157.777344 200.371094 M 158.695312 171.617188 C 154.101562 171.617188 149.304688 172.851562 143.484375 176.035156 L 146.753906 184.25 C 151.855469 181.375 156.144531 180.140625 159.207031 180.140625 C 162.675781 180.140625 164.308594 181.476562 164.308594 183.222656 L 164.308594 183.324219 C 164.308594 184.558594 163.390625 185.171875 161.042969 185.480469 L 156.960938 185.890625 C 146.855469 187.023438 142.667969 191.4375 142.667969 197.597656 L 142.667969 198.007812 C 142.667969 203.863281 147.46875 208.484375 154.203125 208.484375 C 158.59375 208.484375 162.472656 206.636719 164.820312 203.246094 L 165.535156 207.867188 L 174.722656 207.867188 L 174.722656 186.714844 C 174.621094 176.753906 168.902344 171.617188 158.695312 171.617188 " fill-opacity="1" fill-rule="evenodd"/><g clip-path="url(#f5a1fd76af)"><path fill="#fa582d" d="M 72.335938 171.824219 L 60.59375 160.011719 L 48.855469 171.824219 L 54.675781 177.777344 L 25.273438 207.558594 L 37.015625 219.472656 L 48.753906 207.558594 L 42.933594 201.605469 L 72.335938 171.824219 M 7.714844 189.792969 L 19.457031 201.605469 L 48.855469 171.824219 L 37.117188 160.011719 L 7.714844 189.792969 M 48.753906 207.558594 L 60.492188 219.472656 L 89.894531 189.691406 L 78.253906 177.777344 L 48.753906 207.558594 " fill-opacity="1" fill-rule="evenodd"/></g><g clip-path="url(#5b8026309f)"><path fill="#141414" d="M 180.542969 207.765625 L 190.953125 207.765625 L 190.953125 159.601562 L 180.542969 159.601562 Z M 129.398438 190.308594 C 129.398438 195.75 126.640625 199.652344 121.945312 199.652344 C 117.25 199.652344 114.496094 195.75 114.496094 190.308594 L 114.496094 189.691406 C 114.496094 184.25 117.25 180.347656 121.945312 180.347656 C 126.640625 180.347656 129.398438 184.25 129.398438 189.691406 Z M 125.007812 171.617188 C 120.3125 171.617188 116.433594 173.773438 114.390625 177.058594 L 113.574219 172.234375 L 104.386719 172.234375 L 104.386719 219.882812 L 114.800781 219.882812 L 114.800781 203.351562 C 116.738281 206.429688 120.515625 208.382812 125.007812 208.382812 C 133.378906 208.382812 140.117188 200.886719 140.117188 190.617188 L 140.117188 189.382812 C 140.21875 179.113281 133.378906 171.617188 125.007812 171.617188 Z M 339.175781 190.308594 C 339.175781 195.75 336.421875 199.652344 331.726562 199.652344 C 327.027344 199.652344 324.273438 195.75 324.273438 190.308594 L 324.273438 189.691406 C 324.273438 184.25 327.027344 180.347656 331.726562 180.347656 C 336.421875 180.347656 339.175781 184.25 339.175781 189.691406 Z M 331.726562 171.617188 C 321.109375 171.617188 313.554688 179.113281 313.554688 189.382812 L 313.554688 190.617188 C 313.554688 200.886719 321.109375 208.382812 331.726562 208.382812 C 342.339844 208.382812 349.894531 200.886719 349.894531 190.617188 L 349.894531 189.382812 C 349.894531 179.113281 342.339844 171.617188 331.726562 171.617188 Z M 356.328125 172.851562 L 357.550781 172.851562 C 358.265625 172.851562 358.574219 173.054688 358.574219 173.671875 L 358.574219 173.773438 C 358.574219 174.289062 358.265625 174.597656 357.550781 174.597656 L 356.328125 174.597656 Z M 359.695312 173.773438 L 359.695312 173.570312 C 359.695312 172.542969 358.878906 171.824219 357.550781 171.824219 L 355.203125 171.824219 L 355.203125 177.367188 L 356.328125 177.367188 L 356.328125 175.519531 L 357.550781 175.519531 L 358.46875 177.367188 L 359.695312 177.367188 L 358.574219 175.210938 C 359.285156 175.007812 359.695312 174.492188 359.695312 173.773438 Z M 359.695312 173.773438 " fill-opacity="1" fill-rule="evenodd"/></g><g clip-path="url(#6a2e0adb8b)"><path fill="#141414" d="M 357.347656 179.523438 C 354.589844 179.523438 352.550781 177.472656 352.550781 174.597656 C 352.550781 171.71875 354.589844 169.667969 357.347656 169.667969 C 360.105469 169.667969 362.144531 171.71875 362.144531 174.597656 C 362.144531 177.472656 360.105469 179.523438 357.347656 179.523438 M 357.347656 168.949219 C 354.082031 168.949219 351.734375 171.414062 351.734375 174.699219 C 351.734375 177.984375 354.183594 180.449219 357.347656 180.449219 C 360.511719 180.449219 362.960938 177.984375 362.960938 174.699219 C 362.960938 171.414062 360.511719 168.949219 357.347656 168.949219 M 272.414062 207.765625 L 282.828125 207.765625 L 282.828125 159.601562 L 272.414062 159.601562 Z M 303.347656 199.652344 C 300.285156 199.652344 299.160156 198.113281 299.160156 194.929688 L 299.160156 180.347656 L 311.410156 180.347656 L 311.410156 172.234375 L 299.160156 172.234375 L 299.160156 164.121094 L 288.75 165.660156 L 288.75 195.957031 C 288.75 204.171875 292.933594 208.382812 301.304688 208.382812 C 304.980469 208.382812 309.367188 207.25 312.941406 205.199219 L 309.980469 197.703125 C 307.835938 198.832031 304.878906 199.652344 303.347656 199.652344 M 249.546875 200.371094 C 246.179688 200.371094 244.546875 199.035156 244.546875 196.984375 L 244.546875 196.878906 C 244.546875 195.03125 245.566406 193.695312 249.242188 193.183594 L 250.875 192.976562 C 253.222656 192.667969 254.652344 192.15625 255.980469 191.4375 L 255.980469 194.105469 C 255.980469 198.113281 253.53125 200.371094 249.546875 200.371094 M 250.46875 171.617188 C 245.875 171.617188 241.074219 172.851562 235.257812 176.035156 L 238.523438 184.25 C 243.628906 181.375 247.914062 180.140625 250.976562 180.140625 C 254.449219 180.140625 256.082031 181.476562 256.082031 183.222656 L 256.082031 183.324219 C 256.082031 184.558594 255.164062 185.171875 252.816406 185.480469 L 248.730469 185.890625 C 238.625 187.023438 234.441406 191.4375 234.441406 197.597656 L 234.441406 198.007812 C 234.441406 203.863281 239.238281 208.484375 245.976562 208.484375 C 250.367188 208.484375 254.246094 206.636719 256.59375 203.246094 L 257.308594 207.867188 L 266.496094 207.867188 L 266.496094 186.714844 C 266.390625 176.753906 260.777344 171.617188 250.46875 171.617188 M 221.273438 190.308594 C 221.273438 195.75 218.515625 199.652344 213.820312 199.652344 C 209.125 199.652344 206.367188 195.75 206.367188 190.308594 L 206.367188 189.691406 C 206.367188 184.25 209.125 180.347656 213.820312 180.347656 C 218.515625 180.347656 221.273438 184.25 221.273438 189.691406 Z M 213.820312 171.617188 C 203.203125 171.617188 195.648438 179.113281 195.648438 189.382812 L 195.648438 190.617188 C 195.648438 200.886719 203.203125 208.382812 213.820312 208.382812 C 224.4375 208.382812 231.992188 200.886719 231.992188 190.617188 L 231.992188 189.382812 C 231.992188 179.113281 224.4375 171.617188 213.820312 171.617188 Z M 256.492188 216.289062 L 259.144531 216.289062 L 262.820312 221.21875 L 262.820312 216.289062 L 265.269531 216.289062 L 265.269531 224.914062 L 262.71875 224.914062 L 258.941406 219.882812 L 258.941406 224.914062 L 256.492188 224.914062 L 256.492188 216.289062 M 268.636719 216.289062 L 276.089844 216.289062 L 276.191406 218.445312 L 271.191406 218.445312 L 271.191406 219.675781 L 275.171875 219.675781 L 275.171875 221.628906 L 271.191406 221.628906 L 271.191406 222.964844 L 276.394531 222.964844 L 276.292969 225.121094 L 268.636719 225.121094 L 268.636719 216.289062 M 281.601562 218.546875 L 278.640625 218.546875 L 278.746094 216.289062 L 287.113281 216.289062 L 287.21875 218.546875 L 284.257812 218.546875 L 284.257812 225.019531 L 281.703125 225.019531 L 281.703125 218.546875 M 289.257812 216.289062 L 292.015625 216.289062 L 293.445312 222.347656 L 293.546875 222.347656 L 295.382812 216.289062 L 297.9375 216.289062 L 299.671875 222.347656 L 299.773438 222.347656 L 301.101562 216.289062 L 303.753906 216.289062 L 301.507812 224.914062 L 298.140625 224.914062 L 296.609375 219.675781 L 296.507812 219.675781 L 294.875 224.914062 L 291.503906 224.914062 L 289.257812 216.289062 M 312.839844 220.703125 C 312.839844 219.164062 312.023438 218.34375 310.492188 218.34375 C 308.960938 218.34375 308.144531 219.265625 308.144531 220.703125 C 308.144531 222.246094 308.960938 223.066406 310.492188 223.066406 C 312.023438 223.066406 312.839844 222.140625 312.839844 220.703125 M 305.59375 220.703125 C 305.59375 217.828125 307.53125 216.082031 310.492188 216.082031 C 313.453125 216.082031 315.390625 217.828125 315.390625 220.703125 C 315.390625 223.578125 313.453125 225.324219 310.492188 225.324219 C 307.53125 225.222656 305.59375 223.476562 305.59375 220.703125 M 322.84375 220.703125 C 323.660156 220.703125 323.964844 220.191406 323.964844 219.574219 C 323.964844 218.957031 323.660156 218.445312 322.84375 218.445312 L 320.699219 218.445312 L 320.699219 220.703125 Z M 318.25 216.289062 L 323.253906 216.289062 C 325.496094 216.289062 326.621094 217.417969 326.621094 219.371094 C 326.621094 220.808594 326.007812 221.730469 324.988281 222.140625 L 327.027344 224.914062 L 324.070312 224.914062 L 322.539062 222.65625 L 320.800781 222.65625 L 320.800781 224.914062 L 318.25 224.914062 Z M 329.988281 216.289062 L 332.542969 216.289062 L 332.542969 219.472656 L 333.5625 219.472656 L 336.113281 216.289062 L 338.972656 216.289062 L 335.707031 220.398438 L 339.175781 224.914062 L 336.214844 224.914062 L 333.664062 221.628906 L 332.644531 221.628906 L 332.644531 224.914062 L 330.089844 224.914062 L 330.089844 216.289062 M 341.117188 224.402344 L 341.117188 222.039062 C 342.546875 222.757812 343.976562 223.167969 345.199219 223.167969 C 346.117188 223.167969 346.628906 222.964844 346.628906 222.554688 C 346.628906 222.140625 346.324219 222.039062 344.484375 221.730469 C 342.445312 221.421875 341.117188 220.808594 341.117188 219.0625 C 341.117188 217.417969 342.546875 216.1875 345.300781 216.1875 C 346.425781 216.1875 347.546875 216.390625 348.671875 216.90625 L 348.671875 219.265625 C 347.648438 218.652344 346.324219 218.34375 345.199219 218.34375 C 344.179688 218.34375 343.871094 218.546875 343.871094 218.957031 C 343.871094 219.472656 344.484375 219.472656 346.015625 219.78125 C 348.058594 220.089844 349.386719 220.703125 349.386719 222.554688 C 349.386719 223.992188 348.363281 225.429688 345.300781 225.429688 C 343.566406 225.222656 342.445312 224.914062 341.117188 224.402344 " fill-opacity="1" fill-rule="evenodd"/></g></svg>