<svg xmlns="http://www.w3.org/2000/svg" xmlns:xlink="http://www.w3.org/1999/xlink" width="500" zoomAndPan="magnify" viewBox="0 0 375 374.999991" height="500" preserveAspectRatio="xMidYMid meet" version="1.0"><defs><clipPath id="003e8f6f4d"><path d="M 345 211 L 369.613281 211 L 369.613281 235 L 345 235 Z M 345 211 " clip-rule="nonzero"/></clipPath><clipPath id="3f557bc0bc"><path d="M 196 137.039062 L 251 137.039062 L 251 235 L 196 235 Z M 196 137.039062 " clip-rule="nonzero"/></clipPath><clipPath id="f96c8b867b"><path d="M 5.113281 137.039062 L 197 137.039062 L 197 238.289062 L 5.113281 238.289062 Z M 5.113281 137.039062 " clip-rule="nonzero"/></clipPath></defs><g clip-path="url(#003e8f6f4d)"><path fill="#ff6200" d="M 345.976562 223.195312 C 345.976562 216.277344 351.457031 211.5625 357.71875 211.5625 C 363.984375 211.5625 369.464844 216.277344 369.464844 223.195312 C 369.464844 230.113281 363.984375 234.832031 357.71875 234.832031 C 351.613281 234.832031 345.976562 230.113281 345.976562 223.195312 M 357.875 221.9375 C 359.914062 221.9375 360.382812 220.839844 360.382812 219.894531 C 360.382812 218.792969 359.753906 217.851562 357.875 217.851562 L 355.371094 217.851562 L 355.371094 221.9375 Z M 355.214844 223.667969 L 355.214844 230.113281 L 353.179688 230.113281 L 353.179688 216.121094 L 358.347656 216.121094 C 361.320312 216.121094 362.730469 217.378906 362.730469 220.050781 C 362.730469 221.625 361.632812 222.882812 360.226562 223.039062 C 361.476562 223.195312 361.792969 224.296875 362.105469 226.183594 C 362.261719 227.441406 362.574219 229.644531 363.042969 230.113281 L 360.539062 230.113281 C 359.914062 228.855469 360.070312 226.96875 359.597656 225.398438 C 359.285156 224.140625 358.660156 223.824219 357.25 223.824219 Z M 367.269531 223.195312 C 367.269531 217.535156 363.355469 213.449219 357.875 213.449219 C 352.394531 213.449219 348.480469 217.535156 348.480469 223.195312 C 348.480469 228.855469 352.394531 232.945312 357.875 232.945312 C 363.199219 232.945312 367.269531 228.855469 367.269531 223.195312 " fill-opacity="1" fill-rule="nonzero"/></g><path fill="#ff6200" d="M 305.421875 234.832031 L 291.957031 219.582031 L 278.648438 234.832031 L 250.464844 234.832031 L 278.023438 203.703125 L 250.464844 172.730469 L 279.589844 172.730469 L 293.210938 187.820312 L 306.207031 172.730469 L 334.234375 172.730469 L 306.832031 203.703125 L 334.703125 234.832031 Z M 305.421875 234.832031 " fill-opacity="1" fill-rule="nonzero"/><g clip-path="url(#3f557bc0bc)"><path fill="#ff6200" d="M 196.445312 234.832031 L 196.445312 137.039062 L 250.464844 137.039062 L 250.464844 158.894531 L 219.304688 158.894531 L 219.304688 172.730469 L 250.464844 172.730469 L 250.464844 193.640625 L 219.304688 193.640625 L 219.304688 212.976562 L 250.464844 212.976562 L 250.464844 234.832031 Z M 196.445312 234.832031 " fill-opacity="1" fill-rule="nonzero"/></g><g clip-path="url(#f96c8b867b)"><path fill="#4d148c" d="M 159.808594 219.894531 C 151.351562 219.894531 146.183594 212.035156 146.183594 203.859375 C 146.183594 195.054688 150.726562 186.722656 159.808594 186.722656 C 169.203125 186.722656 172.960938 195.210938 172.960938 203.859375 C 172.960938 212.191406 169.042969 219.894531 159.808594 219.894531 M 78.855469 193.953125 C 80.265625 187.820312 85.121094 183.734375 91.070312 183.734375 C 97.644531 183.734375 102.1875 187.664062 103.4375 193.953125 Z M 173.585938 137.039062 L 173.585938 176.972656 L 173.273438 176.972656 C 168.261719 171.15625 161.84375 169.113281 154.640625 169.113281 C 139.609375 169.113281 128.335938 179.332031 124.421875 192.851562 C 119.878906 177.917969 108.292969 168.796875 90.914062 168.796875 C 76.820312 168.796875 65.859375 175.085938 60.066406 185.464844 L 60.066406 172.730469 L 31.101562 172.730469 L 31.101562 158.894531 L 62.730469 158.894531 L 62.730469 137.039062 L 5.265625 137.039062 L 5.265625 234.832031 L 31.101562 234.832031 L 31.101562 193.640625 L 56.9375 193.640625 C 56.152344 196.625 55.683594 199.929688 55.683594 203.230469 C 55.683594 223.667969 71.183594 237.976562 91.070312 237.976562 C 107.667969 237.976562 118.628906 230.113281 124.578125 215.808594 L 102.34375 215.808594 C 99.367188 220.050781 97.019531 221.308594 91.070312 221.308594 C 84.179688 221.308594 78.074219 215.179688 78.074219 207.945312 L 123.167969 207.945312 C 125.046875 224.140625 137.730469 238.132812 154.953125 238.132812 C 162.3125 238.132812 169.203125 234.515625 173.429688 228.226562 L 173.742188 228.226562 L 173.742188 234.515625 L 196.601562 234.515625 L 196.601562 137.039062 Z M 173.585938 137.039062 " fill-opacity="1" fill-rule="nonzero"/></g></svg>