<svg xmlns="http://www.w3.org/2000/svg" xmlns:xlink="http://www.w3.org/1999/xlink" width="500" zoomAndPan="magnify" viewBox="0 0 375 374.999991" height="500" preserveAspectRatio="xMidYMid meet" version="1.0"><defs><clipPath id="ac3ce64815"><path d="M 341 201 L 360 201 L 360 219.652344 L 341 219.652344 Z M 341 201 " clip-rule="nonzero"/></clipPath><clipPath id="fa29100fa0"><path d="M 14.21875 155.152344 L 67 155.152344 L 67 219 L 14.21875 219 Z M 14.21875 155.152344 " clip-rule="nonzero"/></clipPath><clipPath id="86eb8dc9dd"><path d="M 122 155.152344 L 139 155.152344 L 139 219 L 122 219 Z M 122 155.152344 " clip-rule="nonzero"/></clipPath><clipPath id="817943769c"><path d="M 143 170 L 191 170 L 191 219.652344 L 143 219.652344 Z M 143 170 " clip-rule="nonzero"/></clipPath><clipPath id="ba3dd1aab9"><path d="M 196 155.152344 L 213 155.152344 L 213 166 L 196 166 Z M 196 155.152344 " clip-rule="nonzero"/></clipPath><clipPath id="0106695a4a"><path d="M 218 156 L 253 156 L 253 219.652344 L 218 219.652344 Z M 218 156 " clip-rule="nonzero"/></clipPath><clipPath id="d7fd88d214"><path d="M 255 156 L 290 156 L 290 219.652344 L 255 219.652344 Z M 255 156 " clip-rule="nonzero"/></clipPath><clipPath id="9be26c7dee"><path d="M 292 170 L 338 170 L 338 219.652344 L 292 219.652344 Z M 292 170 " clip-rule="nonzero"/></clipPath><clipPath id="186a2e5566"><path d="M 71 170 L 117 170 L 117 219.652344 L 71 219.652344 Z M 71 170 " clip-rule="nonzero"/></clipPath></defs><g clip-path="url(#ac3ce64815)"><path fill="#86bc25" d="M 341.167969 210.167969 C 341.167969 205.046875 345.355469 201.0625 350.300781 201.0625 C 355.4375 201.0625 359.429688 205.234375 359.429688 210.167969 C 359.429688 215.101562 355.246094 219.273438 350.300781 219.273438 C 345.355469 219.273438 341.167969 215.289062 341.167969 210.167969 " fill-opacity="1" fill-rule="nonzero"/></g><g clip-path="url(#fa29100fa0)"><path fill="#000000" d="M 66.863281 185.695312 C 66.863281 196.320312 64.199219 204.289062 58.496094 209.980469 C 52.789062 215.671875 44.796875 218.515625 34.527344 218.515625 L 14.363281 218.515625 L 14.363281 155.34375 L 35.667969 155.34375 C 45.75 155.34375 53.359375 157.808594 58.683594 163.121094 C 64.199219 168.242188 66.863281 175.832031 66.863281 185.695312 M 49.363281 186.265625 C 49.363281 180.386719 48.222656 176.210938 45.941406 173.367188 C 43.847656 170.710938 40.234375 169.191406 35.667969 169.191406 L 31.101562 169.191406 L 31.101562 204.476562 L 34.90625 204.476562 C 40.042969 204.476562 43.65625 202.960938 46.128906 199.925781 C 48.222656 196.890625 49.363281 192.335938 49.363281 186.265625 " fill-opacity="1" fill-rule="nonzero"/></g><g clip-path="url(#86eb8dc9dd)"><path fill="#000000" d="M 122.21875 155.152344 L 138.007812 155.152344 L 138.007812 218.515625 L 122.21875 218.515625 Z M 122.21875 155.152344 " fill-opacity="1" fill-rule="nonzero"/></g><g clip-path="url(#817943769c)"><path fill="#000000" d="M 190.128906 194.800781 C 190.128906 202.390625 188.226562 208.460938 184.042969 212.824219 C 179.859375 217.1875 174.152344 219.273438 166.921875 219.273438 C 159.882812 219.273438 154.367188 217.1875 150.183594 212.636719 C 145.996094 208.082031 143.90625 202.199219 143.90625 194.800781 C 143.90625 187.214844 145.808594 181.144531 149.992188 176.96875 C 154.175781 172.605469 159.882812 170.519531 167.113281 170.519531 C 171.679688 170.519531 175.671875 171.46875 179.097656 173.367188 C 182.710938 175.261719 185.183594 178.109375 187.085938 181.710938 C 189.371094 185.695312 190.128906 189.871094 190.128906 194.800781 M 160.265625 194.800781 C 160.265625 198.976562 160.835938 201.820312 161.785156 203.910156 C 162.738281 205.996094 164.449219 206.945312 167.113281 206.945312 C 169.777344 206.945312 171.296875 205.996094 172.4375 203.910156 C 173.390625 201.820312 173.960938 198.597656 173.960938 194.800781 C 173.960938 190.628906 173.390625 187.785156 172.4375 185.695312 C 171.488281 183.800781 169.777344 182.660156 167.113281 182.660156 C 164.832031 182.660156 162.929688 183.609375 161.785156 185.695312 C 160.835938 187.785156 160.265625 190.628906 160.265625 194.800781 " fill-opacity="1" fill-rule="nonzero"/></g><path fill="#000000" d="M 196.597656 171.277344 L 212.386719 171.277344 L 212.386719 218.324219 L 196.597656 218.324219 Z M 196.597656 171.277344 " fill-opacity="1" fill-rule="nonzero"/><g clip-path="url(#ba3dd1aab9)"><path fill="#000000" d="M 196.597656 155.152344 L 212.386719 155.152344 L 212.386719 165.777344 L 196.597656 165.777344 Z M 196.597656 155.152344 " fill-opacity="1" fill-rule="nonzero"/></g><g clip-path="url(#0106695a4a)"><path fill="#000000" d="M 244.535156 206.375 C 246.628906 206.375 249.289062 205.804688 252.144531 204.855469 L 252.144531 216.808594 C 250.050781 217.757812 247.957031 218.324219 246.054688 218.707031 C 244.152344 219.085938 241.871094 219.273438 239.207031 219.273438 C 233.882812 219.273438 230.078125 217.945312 227.605469 215.101562 C 225.320312 212.445312 223.992188 208.273438 223.992188 202.769531 L 223.992188 183.421875 L 218.472656 183.421875 L 218.472656 171.277344 L 223.992188 171.277344 L 223.992188 159.515625 L 239.96875 156.859375 L 239.96875 171.660156 L 250.242188 171.660156 L 250.242188 183.609375 L 239.96875 183.609375 L 239.96875 201.820312 C 240.351562 205.046875 241.679688 206.375 244.535156 206.375 " fill-opacity="1" fill-rule="nonzero"/></g><g clip-path="url(#d7fd88d214)"><path fill="#000000" d="M 281.4375 206.375 C 283.53125 206.375 286.195312 205.804688 289.046875 204.855469 L 289.046875 216.808594 C 286.953125 217.757812 284.863281 218.324219 282.960938 218.707031 C 281.058594 219.085938 278.773438 219.273438 276.113281 219.273438 C 270.785156 219.273438 266.980469 217.945312 264.507812 215.101562 C 262.226562 212.445312 260.894531 208.273438 260.894531 202.769531 L 260.894531 183.421875 L 255.378906 183.421875 L 255.378906 171.277344 L 260.894531 171.277344 L 260.894531 159.328125 L 276.871094 156.859375 L 276.871094 171.660156 L 287.144531 171.660156 L 287.144531 183.609375 L 276.871094 183.609375 L 276.871094 201.820312 C 277.0625 205.046875 278.585938 206.375 281.4375 206.375 " fill-opacity="1" fill-rule="nonzero"/></g><g clip-path="url(#9be26c7dee)"><path fill="#000000" d="M 331.65625 176.023438 C 327.851562 172.226562 322.527344 170.519531 315.679688 170.519531 C 308.449219 170.519531 302.742188 172.605469 298.75 176.96875 C 294.753906 181.332031 292.851562 187.402344 292.851562 195.371094 C 292.851562 202.960938 294.945312 209.03125 299.128906 213.203125 C 303.503906 217.378906 309.402344 219.464844 317.011719 219.464844 C 320.816406 219.464844 323.859375 219.273438 326.523438 218.707031 C 328.996094 218.136719 331.847656 217.378906 334.128906 216.050781 L 331.847656 205.425781 C 330.136719 206.183594 328.234375 206.753906 326.710938 207.132812 C 324.429688 207.703125 321.765625 207.890625 319.101562 207.890625 C 316.058594 207.890625 313.585938 207.132812 311.875 205.804688 C 310.164062 204.289062 309.210938 202.199219 309.210938 199.546875 L 337.554688 199.546875 L 337.554688 192.148438 C 337.363281 185.128906 335.273438 179.816406 331.65625 176.023438 M 309.210938 189.109375 C 309.402344 186.644531 310.164062 184.558594 311.304688 183.421875 C 312.445312 182.28125 313.964844 181.710938 316.058594 181.710938 C 317.960938 181.710938 319.863281 182.28125 321.003906 183.609375 C 322.144531 184.9375 322.71875 186.644531 322.90625 189.109375 Z M 309.210938 189.109375 " fill-opacity="1" fill-rule="nonzero"/></g><g clip-path="url(#186a2e5566)"><path fill="#000000" d="M 110.425781 176.023438 C 106.429688 172.226562 101.296875 170.519531 94.445312 170.519531 C 87.21875 170.519531 81.511719 172.605469 77.515625 176.96875 C 73.523438 181.332031 71.621094 187.402344 71.621094 195.371094 C 71.621094 202.960938 73.710938 209.03125 77.898438 213.203125 C 82.273438 217.378906 88.167969 219.464844 95.777344 219.464844 C 99.582031 219.464844 102.625 219.273438 105.289062 218.707031 C 107.761719 218.136719 110.617188 217.378906 112.898438 216.050781 L 110.617188 205.234375 C 108.902344 205.996094 107 206.5625 105.480469 206.945312 C 103.195312 207.511719 100.535156 207.703125 97.871094 207.703125 C 94.828125 207.703125 92.355469 206.945312 90.640625 205.617188 C 88.929688 204.097656 87.980469 202.011719 87.980469 199.355469 L 116.324219 199.355469 L 116.324219 192.148438 C 116.132812 185.128906 114.039062 179.816406 110.425781 176.023438 M 87.789062 189.109375 C 87.980469 186.644531 88.738281 184.558594 89.882812 183.421875 C 91.023438 182.28125 92.542969 181.710938 94.636719 181.710938 C 96.730469 181.710938 98.441406 182.28125 99.582031 183.609375 C 100.722656 184.9375 101.296875 186.644531 101.484375 189.109375 Z M 87.789062 189.109375 " fill-opacity="1" fill-rule="nonzero"/></g></svg>