<svg xmlns="http://www.w3.org/2000/svg" xmlns:xlink="http://www.w3.org/1999/xlink" width="500" zoomAndPan="magnify" viewBox="0 0 375 374.999991" height="500" preserveAspectRatio="xMidYMid meet" version="1.0"><defs><clipPath id="015c101fb2"><path d="M 6.867188 133.167969 L 102 133.167969 L 102 241.917969 L 6.867188 241.917969 Z M 6.867188 133.167969 " clip-rule="nonzero"/></clipPath><clipPath id="4834270109"><path d="M 361 213 L 368.367188 213 L 368.367188 224 L 361 224 Z M 361 213 " clip-rule="nonzero"/></clipPath></defs><path fill="#f37221" d="M 112.242188 187.683594 C 118.207031 186.925781 122.625 191.378906 122.078125 197.210938 C 121.691406 201.386719 118.492188 204.457031 114.519531 204.871094 C 109.433594 205.394531 104.246094 201.589844 104.789062 195.351562 C 104.988281 193.0625 105.898438 191.839844 106.347656 191.203125 C 107.554688 189.472656 109.460938 188.039062 112.242188 187.683594 " fill-opacity="1" fill-rule="evenodd"/><g clip-path="url(#015c101fb2)"><path fill="#099b8c" d="M 101.375 224.234375 C 95.574219 230.234375 88.929688 235.230469 80.261719 238.410156 C 71.820312 241.507812 60.273438 242.921875 49.621094 240.691406 C 31.570312 236.910156 17.628906 224.195312 11.117188 208.703125 C 7.597656 200.328125 5.746094 188.835938 7.597656 178.363281 C 9.335938 168.515625 13.367188 160.605469 18.464844 154.035156 C 28.429688 141.207031 44.078125 131.675781 67.839844 133.539062 C 46.351562 134.34375 31.996094 144.015625 23.433594 157.972656 C 19.21875 164.847656 15.566406 173.6875 15.566406 184.472656 C 15.566406 195.765625 18.296875 204.195312 22.710938 211.707031 C 43.070312 211.394531 57.578125 205.238281 69.492188 196.484375 C 65.390625 199 60.253906 201.335938 54.378906 202.078125 C 47.949219 202.882812 41.648438 201.835938 36.582031 199.800781 C 26.753906 195.855469 19.921875 188.578125 16.085938 178.988281 C 30.097656 188.234375 46.671875 195.816406 69.804688 196.28125 C 56.8125 194.890625 47.359375 189.164062 40.925781 180.855469 C 34.949219 173.132812 30.011719 160.429688 33.476562 146.378906 C 41.179688 167.144531 53.359375 183.421875 69.394531 195.867188 C 61.945312 188.886719 55.417969 179.226562 55.417969 164.703125 C 55.417969 151.660156 61.773438 140.414062 69.183594 134.472656 C 69.339844 134.34375 69.507812 133.796875 69.804688 134.160156 C 63.898438 151.261719 64.035156 178.933594 69.804688 196.070312 C 75.757812 200.753906 81.871094 206.242188 81.917969 216.46875 C 81.960938 226.472656 76.117188 232.351562 70.015625 236.757812 C 74.660156 226.25 74.816406 208.007812 70.324219 197.214844 C 71.527344 201.277344 72.027344 206.722656 71.257812 211.082031 C 70.476562 215.480469 68.585938 219.195312 66.390625 221.957031 C 61.746094 227.769531 54.660156 231.582031 44.550781 231.582031 C 44.367188 231.316406 45.011719 231.117188 45.375 230.855469 C 56.605469 222.984375 65.199219 211.601562 69.707031 196.898438 C 66.429688 205.554688 60.523438 212.304688 51.695312 215.742188 C 47.078125 217.53125 41.230469 218.21875 35.75 217.1875 C 30.707031 216.238281 26.386719 214.042969 22.816406 211.703125 C 29.976562 223.441406 41.042969 232.839844 56.972656 236.035156 C 75.632812 239.769531 91.816406 232.609375 101.375 224.234375 " fill-opacity="1" fill-rule="nonzero"/></g><path fill="#099b8c" d="M 133.953125 206.378906 L 133.953125 195.25 C 137.9375 198.628906 142.332031 200.328125 147.125 200.328125 C 149.417969 200.328125 151.203125 199.859375 152.476562 198.917969 C 153.753906 197.976562 154.390625 196.757812 154.390625 195.25 C 154.390625 193.953125 153.859375 192.730469 152.792969 191.578125 C 151.726562 190.433594 149.175781 188.90625 145.144531 187.011719 C 137.542969 183.417969 133.742188 178.554688 133.742188 172.410156 C 133.742188 167.933594 135.394531 164.351562 138.695312 161.648438 C 141.996094 158.941406 146.402344 157.601562 151.921875 157.601562 C 156.789062 157.601562 160.816406 158.230469 164.019531 159.507812 L 164.019531 169.90625 C 160.679688 167.589844 156.855469 166.425781 152.546875 166.425781 C 150.390625 166.425781 148.683594 166.890625 147.441406 167.824219 C 146.1875 168.742188 145.558594 169.960938 145.558594 171.46875 C 145.558594 172.957031 146.054688 174.21875 147.03125 175.261719 C 148.019531 176.300781 150.097656 177.578125 153.273438 179.085938 C 158.1875 181.425781 161.570312 183.753906 163.425781 186.066406 C 165.277344 188.386719 166.207031 191.125 166.207031 194.273438 C 166.207031 198.863281 164.554688 202.5 161.25 205.160156 C 157.949219 207.820312 153.144531 209.160156 146.84375 209.160156 C 141.679688 209.160156 137.382812 208.230469 133.953125 206.378906 Z M 133.953125 206.378906 " fill-opacity="1" fill-rule="nonzero"/><path fill="#099b8c" d="M 204.433594 208.285156 L 174.539062 208.285156 L 174.539062 158.433594 L 203.285156 158.433594 L 203.285156 167.578125 L 185.765625 167.578125 L 185.765625 178.664062 L 202.066406 178.664062 L 202.066406 187.777344 L 185.765625 187.777344 L 185.765625 199.183594 L 204.433594 199.183594 Z M 204.433594 208.285156 " fill-opacity="1" fill-rule="nonzero"/><path fill="#099b8c" d="M 248.667969 158.433594 L 232.433594 190.558594 L 232.433594 208.285156 L 221.207031 208.285156 L 221.207031 190.769531 L 205.390625 158.433594 L 218.21875 158.433594 L 226.246094 177.035156 C 226.390625 177.378906 226.773438 178.730469 227.390625 181.101562 L 227.535156 181.101562 C 227.835938 179.429688 228.195312 178.121094 228.613281 177.167969 L 236.78125 158.433594 Z M 248.667969 158.433594 " fill-opacity="1" fill-rule="nonzero"/><path fill="#099b8c" d="M 264.199219 191.113281 L 264.199219 208.285156 L 252.972656 208.285156 L 252.972656 158.433594 L 270.5625 158.433594 C 283.121094 158.433594 289.398438 163.730469 289.398438 174.320312 C 289.398438 179.328125 287.597656 183.375 283.996094 186.46875 C 280.390625 189.5625 275.578125 191.113281 269.554688 191.113281 Z M 264.199219 167.058594 L 264.199219 182.597656 L 268.613281 182.597656 C 274.589844 182.597656 277.582031 179.972656 277.582031 174.738281 C 277.582031 169.617188 274.589844 167.058594 268.613281 167.058594 Z M 264.199219 167.058594 " fill-opacity="1" fill-rule="nonzero"/><path fill="#099b8c" d="M 325.269531 208.285156 L 295.378906 208.285156 L 295.378906 158.433594 L 324.121094 158.433594 L 324.121094 167.578125 L 306.605469 167.578125 L 306.605469 178.664062 L 322.902344 178.664062 L 322.902344 187.777344 L 306.605469 187.777344 L 306.605469 199.183594 L 325.269531 199.183594 Z M 325.269531 208.285156 " fill-opacity="1" fill-rule="nonzero"/><path fill="#099b8c" d="M 367.664062 206.511719 C 364.023438 208.273438 359.277344 209.160156 353.410156 209.160156 C 345.761719 209.160156 339.75 206.914062 335.371094 202.410156 C 330.988281 197.921875 328.800781 191.925781 328.800781 184.441406 C 328.800781 176.46875 331.261719 169.996094 336.1875 165.039062 C 341.113281 160.074219 347.503906 157.601562 355.355469 157.601562 C 360.222656 157.601562 364.328125 158.210938 367.664062 159.441406 L 367.664062 170.25 C 364.328125 168.253906 360.527344 167.265625 356.257812 167.265625 C 351.582031 167.265625 347.800781 168.730469 344.929688 171.679688 C 342.054688 174.617188 340.621094 178.609375 340.621094 183.644531 C 340.621094 188.464844 341.972656 192.300781 344.6875 195.160156 C 347.398438 198.03125 351.050781 199.460938 355.632812 199.460938 C 360.015625 199.460938 364.023438 198.398438 367.664062 196.257812 Z M 367.664062 206.511719 " fill-opacity="1" fill-rule="nonzero"/><path fill="#abacac" d="M 133.671875 222.71875 L 133.671875 220.722656 C 134.382812 221.335938 135.171875 221.632812 136.035156 221.632812 C 136.449219 221.632812 136.769531 221.546875 136.996094 221.378906 C 137.222656 221.214844 137.339844 220.992188 137.339844 220.722656 C 137.339844 220.492188 137.238281 220.269531 137.050781 220.070312 C 136.855469 219.859375 136.402344 219.582031 135.675781 219.25 C 134.3125 218.597656 133.628906 217.730469 133.628906 216.625 C 133.628906 215.824219 133.929688 215.183594 134.523438 214.695312 C 135.117188 214.21875 135.902344 213.972656 136.894531 213.972656 C 137.765625 213.972656 138.492188 214.085938 139.0625 214.316406 L 139.0625 216.179688 C 138.464844 215.757812 137.777344 215.558594 137.007812 215.558594 C 136.617188 215.558594 136.3125 215.636719 136.09375 215.804688 C 135.863281 215.96875 135.753906 216.191406 135.753906 216.457031 C 135.753906 216.722656 135.84375 216.957031 136.019531 217.132812 C 136.195312 217.324219 136.570312 217.554688 137.136719 217.820312 C 138.019531 218.242188 138.625 218.664062 138.957031 219.074219 C 139.289062 219.492188 139.457031 219.984375 139.457031 220.546875 C 139.457031 221.367188 139.160156 222.023438 138.570312 222.5 C 137.976562 222.976562 137.117188 223.21875 135.984375 223.21875 C 135.054688 223.21875 134.285156 223.050781 133.671875 222.71875 Z M 133.671875 222.71875 " fill-opacity="1" fill-rule="nonzero"/><path fill="#abacac" d="M 146.414062 220.425781 L 142.253906 220.425781 C 142.320312 221.355469 142.902344 221.820312 144.003906 221.820312 C 144.710938 221.820312 145.324219 221.65625 145.855469 221.324219 L 145.855469 222.742188 C 145.269531 223.0625 144.5 223.21875 143.554688 223.21875 C 142.523438 223.21875 141.726562 222.929688 141.15625 222.355469 C 140.585938 221.789062 140.304688 220.988281 140.304688 219.96875 C 140.304688 218.90625 140.609375 218.0625 141.226562 217.453125 C 141.839844 216.832031 142.597656 216.523438 143.496094 216.523438 C 144.425781 216.523438 145.148438 216.800781 145.65625 217.355469 C 146.160156 217.898438 146.417969 218.652344 146.417969 219.605469 L 146.417969 220.425781 Z M 144.59375 219.21875 C 144.59375 218.308594 144.222656 217.851562 143.484375 217.851562 C 143.167969 217.851562 142.890625 217.972656 142.664062 218.238281 C 142.429688 218.503906 142.292969 218.828125 142.242188 219.214844 L 144.59375 219.214844 Z M 144.59375 219.21875 " fill-opacity="1" fill-rule="nonzero"/><path fill="#abacac" d="M 153.664062 216.679688 L 151.070312 223.574219 C 150.453125 225.226562 149.507812 226.054688 148.253906 226.054688 C 147.78125 226.054688 147.386719 226 147.074219 225.902344 L 147.074219 224.328125 C 147.339844 224.484375 147.625 224.5625 147.929688 224.5625 C 148.4375 224.5625 148.792969 224.316406 148.992188 223.839844 L 149.324219 223.050781 L 146.734375 216.679688 L 148.914062 216.679688 L 150.105469 220.554688 C 150.179688 220.800781 150.238281 221.089844 150.28125 221.410156 L 150.304688 221.410156 C 150.34375 221.175781 150.410156 220.890625 150.507812 220.566406 L 151.710938 216.675781 L 153.664062 216.675781 Z M 153.664062 216.679688 " fill-opacity="1" fill-rule="nonzero"/><path fill="#abacac" d="M 159.476562 222.832031 C 159.035156 223.085938 158.390625 223.21875 157.554688 223.21875 C 156.574219 223.21875 155.78125 222.917969 155.171875 222.320312 C 154.566406 221.734375 154.261719 220.96875 154.261719 220.023438 C 154.261719 218.9375 154.589844 218.085938 155.238281 217.453125 C 155.886719 216.832031 156.753906 216.523438 157.847656 216.523438 C 158.59375 216.523438 159.144531 216.621094 159.476562 216.820312 L 159.476562 218.496094 C 159.066406 218.1875 158.605469 218.03125 158.101562 218.03125 C 157.539062 218.03125 157.089844 218.199219 156.753906 218.53125 C 156.425781 218.851562 156.261719 219.320312 156.261719 219.894531 C 156.261719 220.460938 156.421875 220.902344 156.738281 221.222656 C 157.054688 221.546875 157.488281 221.714844 158.039062 221.714844 C 158.527344 221.714844 159.011719 221.558594 159.476562 221.25 Z M 159.476562 222.832031 " fill-opacity="1" fill-rule="nonzero"/><path fill="#abacac" d="M 166.898438 223.0625 L 164.9375 223.0625 L 164.9375 219.429688 C 164.9375 218.496094 164.59375 218.03125 163.917969 218.03125 C 163.570312 218.03125 163.285156 218.164062 163.070312 218.417969 C 162.855469 218.683594 162.742188 219.019531 162.742188 219.417969 L 162.742188 223.0625 L 160.777344 223.0625 L 160.777344 213.605469 L 162.742188 213.605469 L 162.742188 217.621094 L 162.769531 217.621094 C 163.253906 216.890625 163.90625 216.523438 164.734375 216.523438 C 166.179688 216.523438 166.898438 217.398438 166.898438 219.140625 Z M 166.898438 223.0625 " fill-opacity="1" fill-rule="nonzero"/><path fill="#abacac" d="M 174.191406 220.425781 L 170.027344 220.425781 C 170.09375 221.355469 170.675781 221.820312 171.78125 221.820312 C 172.484375 221.820312 173.101562 221.65625 173.632812 221.324219 L 173.632812 222.742188 C 173.042969 223.0625 172.273438 223.21875 171.332031 223.21875 C 170.300781 223.21875 169.503906 222.929688 168.933594 222.355469 C 168.363281 221.789062 168.078125 220.988281 168.078125 219.96875 C 168.078125 218.90625 168.382812 218.0625 168.996094 217.453125 C 169.613281 216.832031 170.371094 216.523438 171.269531 216.523438 C 172.199219 216.523438 172.917969 216.800781 173.429688 217.355469 C 173.933594 217.898438 174.1875 218.652344 174.1875 219.605469 L 174.1875 220.425781 Z M 172.367188 219.21875 C 172.367188 218.308594 171.996094 217.851562 171.257812 217.851562 C 170.941406 217.851562 170.664062 217.972656 170.4375 218.238281 C 170.207031 218.503906 170.066406 218.828125 170.015625 219.214844 L 172.367188 219.214844 Z M 172.367188 219.21875 " fill-opacity="1" fill-rule="nonzero"/><path fill="#abacac" d="M 175.367188 213.605469 L 177.332031 213.605469 L 177.332031 223.0625 L 175.367188 223.0625 Z M 175.367188 213.605469 " fill-opacity="1" fill-rule="nonzero"/><path fill="#abacac" d="M 178.996094 213.605469 L 180.964844 213.605469 L 180.964844 223.0625 L 178.996094 223.0625 Z M 178.996094 213.605469 " fill-opacity="1" fill-rule="nonzero"/><path fill="#abacac" d="M 188.351562 220.425781 L 184.191406 220.425781 C 184.257812 221.355469 184.835938 221.820312 185.941406 221.820312 C 186.644531 221.820312 187.257812 221.65625 187.792969 221.324219 L 187.792969 222.742188 C 187.203125 223.0625 186.433594 223.21875 185.492188 223.21875 C 184.460938 223.21875 183.664062 222.929688 183.09375 222.355469 C 182.523438 221.789062 182.238281 220.988281 182.238281 219.96875 C 182.238281 218.90625 182.542969 218.0625 183.160156 217.453125 C 183.773438 216.832031 184.53125 216.523438 185.429688 216.523438 C 186.363281 216.523438 187.082031 216.800781 187.59375 217.355469 C 188.097656 217.898438 188.351562 218.652344 188.351562 219.605469 Z M 186.527344 219.21875 C 186.527344 218.308594 186.15625 217.851562 185.417969 217.851562 C 185.101562 217.851562 184.828125 217.972656 184.597656 218.238281 C 184.367188 218.503906 184.226562 218.828125 184.175781 219.214844 L 186.527344 219.214844 Z M 186.527344 219.21875 " fill-opacity="1" fill-rule="nonzero"/><path fill="#abacac" d="M 189.28125 222.898438 L 189.28125 221.300781 C 189.929688 221.675781 190.539062 221.875 191.105469 221.875 C 191.730469 221.875 192.039062 221.675781 192.039062 221.300781 C 192.039062 221.125 191.96875 220.988281 191.820312 220.878906 C 191.671875 220.769531 191.34375 220.625 190.839844 220.425781 C 190.257812 220.214844 189.851562 219.949219 189.625 219.660156 C 189.390625 219.371094 189.28125 218.996094 189.28125 218.550781 C 189.28125 217.941406 189.523438 217.441406 190.007812 217.078125 C 190.496094 216.699219 191.144531 216.523438 191.957031 216.523438 C 192.488281 216.523438 193.015625 216.601562 193.542969 216.777344 L 193.542969 218.296875 C 193.050781 218.007812 192.527344 217.863281 191.984375 217.863281 C 191.464844 217.863281 191.203125 218.042969 191.203125 218.398438 C 191.203125 218.574219 191.269531 218.71875 191.394531 218.828125 C 191.519531 218.953125 191.785156 219.074219 192.203125 219.21875 C 192.839844 219.449219 193.289062 219.703125 193.542969 220.003906 C 193.804688 220.304688 193.929688 220.667969 193.929688 221.113281 C 193.929688 221.753906 193.679688 222.265625 193.191406 222.640625 C 192.699219 223.03125 192.011719 223.21875 191.132812 223.21875 C 190.472656 223.21875 189.851562 223.109375 189.28125 222.898438 Z M 189.28125 222.898438 " fill-opacity="1" fill-rule="nonzero"/><path fill="#abacac" d="M 200.871094 219.980469 L 200.871094 223.0625 L 198.851562 223.0625 L 198.851562 214.117188 L 202.011719 214.117188 C 204.261719 214.117188 205.386719 215.070312 205.386719 216.96875 C 205.386719 217.867188 205.0625 218.597656 204.414062 219.152344 C 203.773438 219.707031 202.90625 219.984375 201.828125 219.984375 L 200.871094 219.984375 Z M 200.871094 215.667969 L 200.871094 218.449219 L 201.664062 218.449219 C 202.730469 218.449219 203.269531 217.984375 203.269531 217.042969 C 203.269531 216.125 202.730469 215.667969 201.664062 215.667969 Z M 200.871094 215.667969 " fill-opacity="1" fill-rule="nonzero"/><path fill="#abacac" d="M 211.859375 220.425781 L 207.695312 220.425781 C 207.761719 221.355469 208.34375 221.820312 209.449219 221.820312 C 210.152344 221.820312 210.765625 221.65625 211.300781 221.324219 L 211.300781 222.742188 C 210.710938 223.0625 209.941406 223.21875 209 223.21875 C 207.96875 223.21875 207.171875 222.929688 206.601562 222.355469 C 206.03125 221.789062 205.746094 220.988281 205.746094 219.96875 C 205.746094 218.90625 206.050781 218.0625 206.667969 217.453125 C 207.28125 216.832031 208.042969 216.523438 208.9375 216.523438 C 209.867188 216.523438 210.589844 216.800781 211.097656 217.355469 C 211.601562 217.898438 211.859375 218.652344 211.859375 219.605469 Z M 210.035156 219.21875 C 210.035156 218.308594 209.664062 217.851562 208.925781 217.851562 C 208.613281 217.851562 208.332031 217.972656 208.105469 218.238281 C 207.875 218.503906 207.734375 218.828125 207.6875 219.214844 L 210.035156 219.214844 Z M 210.035156 219.21875 " fill-opacity="1" fill-rule="nonzero"/><path fill="#abacac" d="M 216.890625 222.984375 C 216.597656 223.140625 216.160156 223.21875 215.578125 223.21875 C 214.1875 223.21875 213.492188 222.5 213.492188 221.058594 L 213.492188 218.132812 L 212.457031 218.132812 L 212.457031 216.679688 L 213.492188 216.679688 L 213.492188 215.304688 L 215.453125 214.738281 L 215.453125 216.679688 L 216.890625 216.679688 L 216.890625 218.132812 L 215.453125 218.132812 L 215.453125 220.714844 C 215.453125 221.378906 215.71875 221.710938 216.246094 221.710938 C 216.453125 221.710938 216.667969 221.644531 216.890625 221.523438 Z M 216.890625 222.984375 " fill-opacity="1" fill-rule="nonzero"/><path fill="#abacac" d="M 222.167969 218.449219 C 221.929688 218.332031 221.652344 218.265625 221.335938 218.265625 C 220.910156 218.265625 220.574219 218.417969 220.332031 218.730469 C 220.09375 219.039062 219.972656 219.46875 219.972656 220.015625 L 219.972656 223.0625 L 218.003906 223.0625 L 218.003906 216.675781 L 219.972656 216.675781 L 219.972656 217.863281 L 220 217.863281 C 220.3125 217 220.871094 216.566406 221.679688 216.566406 C 221.890625 216.566406 222.050781 216.585938 222.167969 216.632812 Z M 222.167969 218.449219 " fill-opacity="1" fill-rule="nonzero"/><path fill="#abacac" d="M 226.078125 223.21875 C 225.015625 223.21875 224.179688 222.917969 223.566406 222.320312 C 222.957031 221.722656 222.652344 220.914062 222.652344 219.890625 C 222.652344 218.839844 222.96875 218.007812 223.601562 217.40625 C 224.234375 216.820312 225.085938 216.519531 226.160156 216.519531 C 227.222656 216.519531 228.050781 216.820312 228.65625 217.40625 C 229.261719 218.007812 229.558594 218.792969 229.558594 219.78125 C 229.558594 220.847656 229.25 221.675781 228.628906 222.296875 C 228.007812 222.90625 227.15625 223.21875 226.078125 223.21875 Z M 226.128906 218.03125 C 225.660156 218.03125 225.296875 218.183594 225.042969 218.507812 C 224.78125 218.828125 224.652344 219.285156 224.652344 219.871094 C 224.652344 221.089844 225.148438 221.710938 226.140625 221.710938 C 227.082031 221.710938 227.554688 221.082031 227.554688 219.816406 C 227.554688 218.628906 227.074219 218.03125 226.128906 218.03125 Z M 226.128906 218.03125 " fill-opacity="1" fill-rule="nonzero"/><path fill="#abacac" d="M 230.839844 213.605469 L 232.804688 213.605469 L 232.804688 223.0625 L 230.839844 223.0625 Z M 230.839844 213.605469 " fill-opacity="1" fill-rule="nonzero"/><path fill="#abacac" d="M 240.199219 220.425781 L 236.039062 220.425781 C 236.105469 221.355469 236.6875 221.820312 237.789062 221.820312 C 238.492188 221.820312 239.109375 221.65625 239.640625 221.324219 L 239.640625 222.742188 C 239.054688 223.0625 238.285156 223.21875 237.339844 223.21875 C 236.3125 223.21875 235.511719 222.929688 234.941406 222.355469 C 234.371094 221.789062 234.089844 220.988281 234.089844 219.96875 C 234.089844 218.90625 234.394531 218.0625 235.007812 217.453125 C 235.621094 216.832031 236.382812 216.523438 237.28125 216.523438 C 238.210938 216.523438 238.929688 216.800781 239.441406 217.355469 C 239.945312 217.898438 240.199219 218.652344 240.199219 219.605469 Z M 238.375 219.21875 C 238.375 218.308594 238.003906 217.851562 237.269531 217.851562 C 236.953125 217.851562 236.675781 217.972656 236.445312 218.238281 C 236.214844 218.503906 236.074219 218.828125 236.023438 219.214844 L 238.375 219.214844 Z M 238.375 219.21875 " fill-opacity="1" fill-rule="nonzero"/><path fill="#abacac" d="M 247.4375 223.0625 L 245.476562 223.0625 L 245.476562 222.089844 L 245.441406 222.089844 C 244.953125 222.839844 244.304688 223.21875 243.492188 223.21875 C 242.011719 223.21875 241.273438 222.320312 241.273438 220.523438 L 241.273438 216.679688 L 243.234375 216.679688 L 243.234375 220.359375 C 243.234375 221.257812 243.589844 221.710938 244.304688 221.710938 C 244.660156 221.710938 244.941406 221.589844 245.152344 221.335938 C 245.371094 221.089844 245.476562 220.757812 245.476562 220.324219 L 245.476562 216.679688 L 247.4375 216.679688 Z M 247.4375 223.0625 " fill-opacity="1" fill-rule="nonzero"/><path fill="#abacac" d="M 259.234375 223.0625 L 257.269531 223.0625 L 257.269531 219.417969 C 257.269531 218.496094 256.929688 218.03125 256.25 218.03125 C 255.921875 218.03125 255.660156 218.164062 255.457031 218.453125 C 255.25 218.730469 255.152344 219.074219 255.152344 219.484375 L 255.152344 223.0625 L 253.179688 223.0625 L 253.179688 219.382812 C 253.179688 218.484375 252.847656 218.03125 252.175781 218.03125 C 251.84375 218.03125 251.570312 218.164062 251.375 218.429688 C 251.167969 218.695312 251.070312 219.050781 251.070312 219.515625 L 251.070312 223.066406 L 249.101562 223.066406 L 249.101562 216.679688 L 251.070312 216.679688 L 251.070312 217.675781 L 251.097656 217.675781 C 251.296875 217.335938 251.585938 217.054688 251.949219 216.84375 C 252.324219 216.625 252.722656 216.523438 253.160156 216.523438 C 254.0625 216.523438 254.675781 216.921875 255.011719 217.707031 C 255.496094 216.921875 256.210938 216.523438 257.15625 216.523438 C 258.539062 216.523438 259.238281 217.375 259.238281 219.082031 L 259.238281 223.0625 Z M 259.234375 223.0625 " fill-opacity="1" fill-rule="nonzero"/><path fill="#abacac" d="M 270.917969 222.742188 C 270.261719 223.0625 269.410156 223.21875 268.359375 223.21875 C 266.988281 223.21875 265.914062 222.808594 265.125 222.011719 C 264.339844 221.203125 263.945312 220.125 263.945312 218.785156 C 263.945312 217.355469 264.390625 216.191406 265.269531 215.304688 C 266.15625 214.417969 267.296875 213.972656 268.710938 213.972656 C 269.582031 213.972656 270.320312 214.085938 270.917969 214.304688 L 270.917969 216.234375 C 270.320312 215.878906 269.636719 215.703125 268.871094 215.703125 C 268.03125 215.703125 267.355469 215.96875 266.839844 216.5 C 266.324219 217.019531 266.070312 217.742188 266.070312 218.640625 C 266.070312 219.503906 266.3125 220.191406 266.796875 220.703125 C 267.28125 221.222656 267.9375 221.480469 268.761719 221.480469 C 269.542969 221.480469 270.261719 221.289062 270.917969 220.902344 Z M 270.917969 222.742188 " fill-opacity="1" fill-rule="nonzero"/><path fill="#abacac" d="M 275.324219 223.21875 C 274.257812 223.21875 273.421875 222.917969 272.8125 222.320312 C 272.203125 221.722656 271.898438 220.914062 271.898438 219.890625 C 271.898438 218.839844 272.214844 218.007812 272.84375 217.40625 C 273.476562 216.820312 274.332031 216.519531 275.40625 216.519531 C 276.464844 216.519531 277.292969 216.820312 277.898438 217.40625 C 278.503906 218.007812 278.800781 218.792969 278.800781 219.78125 C 278.800781 220.847656 278.492188 221.675781 277.871094 222.296875 C 277.25 222.90625 276.398438 223.21875 275.324219 223.21875 Z M 275.375 218.03125 C 274.90625 218.03125 274.542969 218.183594 274.289062 218.507812 C 274.027344 218.828125 273.898438 219.285156 273.898438 219.871094 C 273.898438 221.089844 274.394531 221.710938 275.386719 221.710938 C 276.328125 221.710938 276.796875 221.082031 276.796875 219.816406 C 276.796875 218.628906 276.320312 218.03125 275.375 218.03125 Z M 275.375 218.03125 " fill-opacity="1" fill-rule="nonzero"/><path fill="#abacac" d="M 290.21875 223.0625 L 288.253906 223.0625 L 288.253906 219.417969 C 288.253906 218.496094 287.914062 218.03125 287.234375 218.03125 C 286.90625 218.03125 286.644531 218.164062 286.4375 218.453125 C 286.234375 218.730469 286.132812 219.074219 286.132812 219.484375 L 286.132812 223.0625 L 284.160156 223.0625 L 284.160156 219.382812 C 284.160156 218.484375 283.828125 218.03125 283.160156 218.03125 C 282.828125 218.03125 282.554688 218.164062 282.355469 218.429688 C 282.152344 218.695312 282.050781 219.050781 282.050781 219.515625 L 282.050781 223.066406 L 280.085938 223.066406 L 280.085938 216.679688 L 282.050781 216.679688 L 282.050781 217.675781 L 282.078125 217.675781 C 282.277344 217.335938 282.566406 217.054688 282.933594 216.84375 C 283.304688 216.625 283.703125 216.523438 284.140625 216.523438 C 285.046875 216.523438 285.660156 216.921875 285.992188 217.707031 C 286.480469 216.921875 287.195312 216.523438 288.136719 216.523438 C 289.523438 216.523438 290.222656 217.375 290.222656 219.082031 L 290.222656 223.0625 Z M 290.21875 223.0625 " fill-opacity="1" fill-rule="nonzero"/><path fill="#abacac" d="M 293.769531 222.320312 L 293.742188 222.320312 L 293.742188 226 L 291.777344 226 L 291.777344 216.675781 L 293.742188 216.675781 L 293.742188 217.628906 L 293.769531 217.628906 C 294.253906 216.886719 294.941406 216.519531 295.820312 216.519531 C 296.648438 216.519531 297.285156 216.796875 297.734375 217.375 C 298.1875 217.9375 298.414062 218.703125 298.414062 219.679688 C 298.414062 220.742188 298.148438 221.609375 297.621094 222.253906 C 297.09375 222.894531 296.398438 223.21875 295.527344 223.21875 C 294.757812 223.21875 294.171875 222.917969 293.769531 222.320312 Z M 293.710938 219.703125 L 293.710938 220.214844 C 293.710938 220.648438 293.828125 221.011719 294.058594 221.289062 C 294.292969 221.566406 294.601562 221.710938 294.980469 221.710938 C 295.429688 221.710938 295.777344 221.535156 296.023438 221.191406 C 296.273438 220.835938 296.394531 220.347656 296.394531 219.714844 C 296.394531 218.597656 295.957031 218.03125 295.085938 218.03125 C 294.679688 218.03125 294.351562 218.1875 294.097656 218.484375 C 293.839844 218.796875 293.710938 219.195312 293.710938 219.703125 Z M 293.710938 219.703125 " fill-opacity="1" fill-rule="nonzero"/><path fill="#abacac" d="M 304.878906 223.0625 L 303.015625 223.0625 L 303.015625 222.144531 L 302.988281 222.144531 C 302.5625 222.863281 301.929688 223.21875 301.085938 223.21875 C 300.464844 223.21875 299.976562 223.042969 299.621094 222.6875 C 299.269531 222.34375 299.089844 221.867188 299.089844 221.28125 C 299.089844 220.050781 299.824219 219.328125 301.289062 219.140625 L 303.027344 218.90625 C 303.027344 218.207031 302.648438 217.867188 301.890625 217.867188 C 301.128906 217.867188 300.40625 218.085938 299.722656 218.542969 L 299.722656 217.054688 C 299.992188 216.914062 300.371094 216.789062 300.847656 216.679688 C 301.324219 216.578125 301.757812 216.523438 302.144531 216.523438 C 303.964844 216.523438 304.875 217.433594 304.875 219.253906 L 304.875 223.0625 Z M 303.027344 220.46875 L 303.027344 220.035156 L 301.871094 220.183594 C 301.226562 220.269531 300.90625 220.558594 300.90625 221.058594 C 300.90625 221.28125 300.980469 221.457031 301.140625 221.601562 C 301.296875 221.746094 301.507812 221.820312 301.773438 221.820312 C 302.144531 221.820312 302.445312 221.6875 302.675781 221.433594 C 302.910156 221.179688 303.027344 220.855469 303.027344 220.46875 Z M 303.027344 220.46875 " fill-opacity="1" fill-rule="nonzero"/><path fill="#abacac" d="M 312.601562 223.0625 L 310.640625 223.0625 L 310.640625 219.515625 C 310.640625 218.53125 310.285156 218.03125 309.582031 218.03125 C 309.238281 218.03125 308.957031 218.164062 308.742188 218.417969 C 308.519531 218.683594 308.40625 219.015625 308.40625 219.417969 L 308.40625 223.0625 L 306.441406 223.0625 L 306.441406 216.675781 L 308.40625 216.675781 L 308.40625 217.683594 L 308.433594 217.683594 C 308.902344 216.910156 309.585938 216.519531 310.484375 216.519531 C 311.898438 216.519531 312.601562 217.398438 312.601562 219.148438 Z M 312.601562 223.0625 " fill-opacity="1" fill-rule="nonzero"/><path fill="#abacac" d="M 320.234375 216.679688 L 317.640625 223.574219 C 317.019531 225.226562 316.078125 226.054688 314.824219 226.054688 C 314.347656 226.054688 313.957031 226 313.644531 225.902344 L 313.644531 224.328125 C 313.910156 224.484375 314.195312 224.5625 314.496094 224.5625 C 315.007812 224.5625 315.363281 224.316406 315.5625 223.839844 L 315.894531 223.050781 L 313.304688 216.679688 L 315.484375 216.679688 L 316.675781 220.554688 C 316.753906 220.800781 316.808594 221.089844 316.851562 221.410156 L 316.875 221.410156 C 316.914062 221.175781 316.980469 220.890625 317.082031 220.566406 L 318.28125 216.675781 L 320.234375 216.675781 Z M 320.234375 216.679688 " fill-opacity="1" fill-rule="nonzero"/><path fill="#abacac" d="M 330.066406 223.0625 L 324.738281 223.0625 L 324.738281 214.117188 L 326.757812 214.117188 L 326.757812 221.421875 L 330.066406 221.421875 Z M 330.066406 223.0625 " fill-opacity="1" fill-rule="nonzero"/><path fill="#abacac" d="M 332.074219 215.667969 C 331.742188 215.667969 331.464844 215.570312 331.253906 215.367188 C 331.042969 215.167969 330.9375 214.925781 330.9375 214.636719 C 330.9375 214.347656 331.042969 214.105469 331.253906 213.917969 C 331.464844 213.726562 331.742188 213.640625 332.074219 213.640625 C 332.40625 213.640625 332.6875 213.726562 332.890625 213.917969 C 333.101562 214.105469 333.207031 214.347656 333.207031 214.636719 C 333.207031 214.9375 333.101562 215.191406 332.890625 215.378906 C 332.6875 215.570312 332.410156 215.667969 332.074219 215.667969 Z M 333.046875 223.0625 L 331.078125 223.0625 L 331.078125 216.679688 L 333.046875 216.679688 Z M 333.046875 223.0625 " fill-opacity="1" fill-rule="nonzero"/><path fill="#abacac" d="M 344.84375 223.0625 L 342.875 223.0625 L 342.875 219.417969 C 342.875 218.496094 342.539062 218.03125 341.855469 218.03125 C 341.53125 218.03125 341.269531 218.164062 341.066406 218.453125 C 340.859375 218.730469 340.761719 219.074219 340.761719 219.484375 L 340.761719 223.0625 L 338.789062 223.0625 L 338.789062 219.382812 C 338.789062 218.484375 338.457031 218.03125 337.785156 218.03125 C 337.453125 218.03125 337.179688 218.164062 336.980469 218.429688 C 336.773438 218.695312 336.675781 219.050781 336.675781 219.515625 L 336.675781 223.066406 L 334.710938 223.066406 L 334.710938 216.679688 L 336.675781 216.679688 L 336.675781 217.675781 L 336.703125 217.675781 C 336.90625 217.335938 337.191406 217.054688 337.558594 216.84375 C 337.929688 216.625 338.328125 216.523438 338.765625 216.523438 C 339.667969 216.523438 340.28125 216.921875 340.617188 217.707031 C 341.105469 216.921875 341.820312 216.523438 342.761719 216.523438 C 344.144531 216.523438 344.84375 217.375 344.84375 219.082031 Z M 344.84375 223.0625 " fill-opacity="1" fill-rule="nonzero"/><path fill="#abacac" d="M 347.398438 215.667969 C 347.066406 215.667969 346.789062 215.570312 346.578125 215.367188 C 346.367188 215.167969 346.261719 214.925781 346.261719 214.636719 C 346.261719 214.347656 346.367188 214.105469 346.578125 213.917969 C 346.789062 213.726562 347.066406 213.640625 347.398438 213.640625 C 347.730469 213.640625 348.007812 213.726562 348.214844 213.917969 C 348.425781 214.105469 348.53125 214.347656 348.53125 214.636719 C 348.53125 214.9375 348.425781 215.191406 348.214844 215.378906 C 348.007812 215.570312 347.730469 215.667969 347.398438 215.667969 Z M 348.367188 223.0625 L 346.402344 223.0625 L 346.402344 216.679688 L 348.367188 216.679688 Z M 348.367188 223.0625 " fill-opacity="1" fill-rule="nonzero"/><path fill="#abacac" d="M 353.882812 222.984375 C 353.589844 223.140625 353.152344 223.21875 352.570312 223.21875 C 351.179688 223.21875 350.484375 222.5 350.484375 221.058594 L 350.484375 218.132812 L 349.449219 218.132812 L 349.449219 216.679688 L 350.484375 216.679688 L 350.484375 215.304688 L 352.445312 214.738281 L 352.445312 216.679688 L 353.882812 216.679688 L 353.882812 218.132812 L 352.445312 218.132812 L 352.445312 220.714844 C 352.445312 221.378906 352.710938 221.710938 353.238281 221.710938 C 353.445312 221.710938 353.660156 221.644531 353.882812 221.523438 Z M 353.882812 222.984375 " fill-opacity="1" fill-rule="nonzero"/><path fill="#abacac" d="M 360.683594 220.425781 L 356.523438 220.425781 C 356.589844 221.355469 357.171875 221.820312 358.273438 221.820312 C 358.976562 221.820312 359.59375 221.65625 360.125 221.324219 L 360.125 222.742188 C 359.535156 223.0625 358.765625 223.21875 357.824219 223.21875 C 356.792969 223.21875 355.996094 222.929688 355.425781 222.355469 C 354.855469 221.789062 354.570312 220.988281 354.570312 219.96875 C 354.570312 218.90625 354.878906 218.0625 355.492188 217.453125 C 356.105469 216.832031 356.867188 216.523438 357.761719 216.523438 C 358.695312 216.523438 359.414062 216.800781 359.925781 217.355469 C 360.429688 217.898438 360.683594 218.652344 360.683594 219.605469 Z M 358.859375 219.21875 C 358.859375 218.308594 358.488281 217.851562 357.753906 217.851562 C 357.4375 217.851562 357.160156 217.972656 356.929688 218.238281 C 356.699219 218.503906 356.558594 218.828125 356.511719 219.214844 L 358.859375 219.214844 Z M 358.859375 219.21875 " fill-opacity="1" fill-rule="nonzero"/><g clip-path="url(#4834270109)"><path fill="#abacac" d="M 368.101562 223.0625 L 366.128906 223.0625 L 366.128906 222.175781 L 366.109375 222.175781 C 365.660156 222.875 365 223.21875 364.128906 223.21875 C 363.332031 223.21875 362.6875 222.929688 362.207031 222.375 C 361.71875 221.808594 361.472656 221.023438 361.472656 220.015625 C 361.472656 218.949219 361.738281 218.105469 362.277344 217.472656 C 362.8125 216.832031 363.519531 216.519531 364.382812 216.519531 C 365.210938 216.519531 365.78125 216.808594 366.109375 217.40625 L 366.128906 217.40625 L 366.128906 213.605469 L 368.101562 213.605469 Z M 366.167969 219.960938 L 366.167969 219.472656 C 366.167969 219.0625 366.046875 218.71875 365.808594 218.441406 C 365.566406 218.164062 365.253906 218.03125 364.867188 218.03125 C 364.429688 218.03125 364.09375 218.199219 363.84375 218.539062 C 363.597656 218.882812 363.476562 219.363281 363.476562 219.960938 C 363.476562 220.515625 363.59375 220.945312 363.832031 221.257812 C 364.070312 221.554688 364.394531 221.710938 364.816406 221.710938 C 365.21875 221.710938 365.542969 221.542969 365.792969 221.222656 C 366.042969 220.914062 366.167969 220.480469 366.167969 219.960938 Z M 366.167969 219.960938 " fill-opacity="1" fill-rule="nonzero"/></g></svg>