<svg xmlns="http://www.w3.org/2000/svg" xmlns:xlink="http://www.w3.org/1999/xlink" width="500" zoomAndPan="magnify" viewBox="0 0 375 374.999991" height="500" preserveAspectRatio="xMidYMid meet" version="1.0"><defs><clipPath id="00ba0da459"><path d="M 98.0625 26 L 277.3125 26 L 277.3125 375 L 98.0625 375 Z M 98.0625 26 " clip-rule="nonzero"/></clipPath></defs><g clip-path="url(#00ba0da459)"><path fill="#ffffff" d="M 216.476562 379.773438 L 146.59375 379.773438 L 146.59375 205.5625 L 98.988281 205.5625 L 98.988281 148.84375 L 146.59375 148.84375 L 146.59375 108.484375 C 146.59375 60.65625 167.648438 26.355469 237.34375 26.355469 C 252.082031 26.355469 275.222656 29.328125 275.222656 29.328125 L 275.222656 81.992188 L 250.917969 81.992188 C 226.152344 81.992188 216.480469 89.527344 216.480469 110.355469 L 216.480469 148.84375 L 274.296875 148.84375 L 269.148438 205.5625 L 216.480469 205.5625 Z M 376.828125 144.308594 C 375.808594 144.308594 374.761719 144.347656 373.722656 144.375 C 308.925781 144.375 279.277344 193.117188 279.277344 262.308594 C 279.277344 349.46875 317.734375 384.355469 374.230469 384.355469 C 406.554688 384.355469 427.792969 370.75 440.699219 345.359375 L 440.699219 379.796875 L 507.167969 379.796875 L 507.167969 148.867188 L 440.699219 148.867188 L 440.699219 184.382812 C 430.160156 161.53125 408.328125 144.582031 376.828125 144.308594 Z M 393.726562 198.878906 C 420.945312 198.878906 437.28125 217.863281 437.28125 250.152344 L 437.34375 283.132812 C 437.34375 304.898438 423.851562 330.359375 393.726562 330.359375 C 347.417969 330.359375 348.65625 280.355469 348.65625 263.699219 C 348.65625 207.679688 373.328125 198.878906 393.726562 198.878906 Z M 534.011719 264.34375 C 534.011719 236.28125 532.667969 144.460938 652.300781 144.460938 C 700.320312 144.460938 720.371094 159.730469 720.371094 159.730469 L 704.253906 209.714844 C 704.253906 209.714844 684.230469 198.6875 658.136719 198.6875 C 624.714844 198.6875 603.386719 218.0625 603.386719 252.152344 L 603.425781 276.597656 C 603.425781 309.355469 624 331.21875 658.203125 331.21875 C 681.976562 331.21875 703.886719 320.089844 703.886719 320.089844 L 719.960938 369.03125 C 719.960938 369.03125 701.628906 384.398438 652.632812 384.398438 C 538.726562 384.398438 534.015625 302.015625 534.015625 264.34375 Z M 1110.105469 144.375 C 1174.90625 144.375 1205.023438 193.117188 1205.023438 262.308594 C 1205.023438 349.46875 1166.5625 384.355469 1110.066406 384.355469 C 1077.742188 384.355469 1053.847656 370.753906 1040.9375 345.359375 L 1040.9375 379.796875 L 975.304688 379.769531 L 975.304688 33.378906 L 1044.992188 27.300781 L 1044.992188 181.253906 C 1055.050781 154.316406 1088.101562 144.375 1110.105469 144.375 Z M 1090.570312 198.878906 C 1063.351562 198.878906 1044.992188 217.863281 1044.992188 250.152344 L 1044.925781 283.132812 C 1044.886719 304.898438 1057.640625 330.359375 1090.570312 330.359375 C 1136.878906 330.359375 1135.640625 280.355469 1135.640625 263.699219 C 1135.640625 207.679688 1110.96875 198.878906 1090.570312 198.878906 Z M 841.28125 144.566406 C 767.785156 144.566406 728.980469 184.636719 728.980469 255.851562 L 728.980469 269.082031 C 728.980469 361.507812 783.472656 385.304688 848.433594 385.304688 C 911.578125 385.304688 940.160156 367.644531 940.160156 367.644531 L 927.121094 320.609375 C 927.121094 320.609375 893.5 334.914062 856.789062 334.914062 C 818.734375 334.914062 802.367188 325.214844 798.171875 288.644531 L 945.730469 288.644531 L 945.730469 250.910156 C 945.730469 173.664062 902.183594 144.5625 841.28125 144.5625 Z M 843.050781 191.660156 C 868.492188 191.660156 884.980469 207.261719 884.074219 243.441406 L 798.300781 243.441406 C 799.785156 205.363281 817.566406 191.664062 843.050781 191.664062 Z M 1343.96875 144.246094 C 1268.492188 144.246094 1228.757812 186.78125 1228.757812 263.003906 C 1228.757812 367.585938 1297.253906 384.417969 1344.097656 384.417969 C 1412.671875 384.417969 1458.296875 347.5 1458.296875 263.953125 C 1458.296875 176.996094 1406.996094 144.246094 1343.96875 144.246094 Z M 1343.019531 199.066406 C 1376.210938 199.066406 1389.359375 223.90625 1389.359375 252.179688 L 1389.359375 276.488281 C 1389.359375 310.738281 1370.957031 330.550781 1342.894531 330.550781 C 1316.648438 330.550781 1298.203125 312.019531 1298.203125 276.488281 L 1298.203125 252.179688 C 1298.203125 214.285156 1320.152344 199.066406 1343.019531 199.066406 Z M 1597.121094 144.246094 C 1521.644531 144.246094 1481.910156 186.78125 1481.910156 263.003906 C 1481.910156 367.585938 1550.402344 384.417969 1597.246094 384.417969 C 1665.820312 384.417969 1711.445312 347.5 1711.445312 263.953125 C 1711.445312 176.996094 1660.144531 144.246094 1597.121094 144.246094 Z M 1596.171875 199.066406 C 1629.359375 199.066406 1642.507812 223.90625 1642.507812 252.179688 L 1642.507812 276.488281 C 1642.507812 310.738281 1624.105469 330.550781 1596.042969 330.550781 C 1569.796875 330.550781 1551.351562 312.019531 1551.351562 276.488281 L 1551.351562 252.179688 C 1551.351562 214.285156 1573.300781 199.066406 1596.171875 199.066406 Z M 1737.78125 379.773438 L 1737.78125 33.378906 L 1807.667969 27.300781 L 1807.667969 259.476562 L 1877.003906 148.84375 L 1950.808594 148.84375 L 1878.480469 263.425781 L 1953.59375 379.773438 L 1879.578125 379.773438 L 1807.667969 266.800781 L 1807.667969 379.773438 Z M 1737.78125 379.773438 " fill-opacity="1" fill-rule="nonzero"/></g></svg>