<svg xmlns="http://www.w3.org/2000/svg" xmlns:xlink="http://www.w3.org/1999/xlink" width="500" zoomAndPan="magnify" viewBox="0 0 375 374.999991" height="500" preserveAspectRatio="xMidYMid meet" version="1.0"><path fill="#ffffff" d="M 109.84375 1.3125 C 89.894531 2.253906 76.269531 5.4375 64.359375 10.117188 C 52.035156 14.921875 41.585938 21.367188 31.191406 31.800781 C 20.796875 42.234375 14.394531 52.6875 9.625 65.03125 C 5.011719 76.96875 1.882812 90.605469 1 110.566406 C 0.121094 130.527344 -0.0742188 136.941406 0.0234375 187.859375 C 0.121094 238.777344 0.34375 245.160156 1.3125 265.164062 C 2.265625 285.109375 5.4375 298.730469 10.117188 310.640625 C 14.929688 322.96875 21.367188 333.414062 31.804688 343.8125 C 42.238281 354.210938 52.6875 360.597656 65.0625 365.375 C 76.988281 369.984375 90.625 373.125 110.582031 374 C 130.542969 374.871094 136.964844 375.074219 187.867188 374.976562 C 238.769531 374.878906 245.179688 374.65625 265.175781 373.707031 C 285.175781 372.757812 298.726562 369.5625 310.640625 364.90625 C 322.96875 360.082031 333.421875 353.65625 343.8125 343.214844 C 354.203125 332.773438 360.601562 322.3125 365.367188 309.960938 C 369.984375 298.035156 373.125 284.394531 373.992188 264.453125 C 374.863281 244.441406 375.070312 238.050781 374.972656 187.140625 C 374.875 136.230469 374.648438 129.847656 373.699219 109.851562 C 372.75 89.859375 369.574219 76.277344 364.898438 64.359375 C 360.078125 52.03125 353.648438 41.59375 343.214844 31.1875 C 332.78125 20.78125 322.3125 14.390625 309.964844 9.632812 C 298.03125 5.015625 284.398438 1.871094 264.441406 1.007812 C 244.484375 0.144531 238.0625 -0.0742188 187.140625 0.0234375 C 136.21875 0.121094 129.84375 0.335938 109.84375 1.3125 M 112.035156 340.265625 C 93.753906 339.472656 83.828125 336.433594 77.210938 333.890625 C 68.453125 330.515625 62.210938 326.4375 55.621094 319.910156 C 49.027344 313.378906 44.976562 307.117188 41.558594 298.375 C 38.988281 291.761719 35.894531 281.847656 35.039062 263.566406 C 34.109375 243.804688 33.914062 237.875 33.804688 187.816406 C 33.699219 137.757812 33.890625 131.832031 34.753906 112.066406 C 35.535156 93.796875 38.589844 83.859375 41.128906 77.25 C 44.503906 68.480469 48.570312 62.25 55.113281 55.660156 C 61.65625 49.074219 67.902344 45.015625 76.648438 41.59375 C 83.257812 39.015625 93.171875 35.949219 111.445312 35.078125 C 131.21875 34.140625 137.144531 33.953125 187.195312 33.84375 C 237.246094 33.734375 243.1875 33.921875 262.96875 34.792969 C 281.234375 35.585938 291.175781 38.613281 297.78125 41.167969 C 306.542969 44.542969 312.78125 48.597656 319.367188 55.152344 C 325.957031 61.707031 330.019531 67.925781 333.4375 76.695312 C 336.023438 83.285156 339.089844 93.195312 339.953125 111.480469 C 340.894531 131.253906 341.109375 137.183594 341.199219 187.230469 C 341.289062 237.277344 341.109375 243.222656 340.246094 262.980469 C 339.445312 281.261719 336.417969 291.191406 333.871094 297.8125 C 330.496094 306.570312 326.425781 312.8125 319.878906 319.398438 C 313.332031 325.984375 307.09375 330.042969 298.34375 333.460938 C 291.742188 336.039062 281.816406 339.113281 263.558594 339.984375 C 243.785156 340.914062 237.859375 341.109375 187.789062 341.214844 C 137.71875 341.324219 131.8125 341.121094 112.039062 340.265625 M 264.890625 87.289062 C 264.890625 88.027344 264.925781 88.761719 265 89.492188 C 265.074219 90.226562 265.183594 90.957031 265.328125 91.679688 C 265.472656 92.402344 265.652344 93.113281 265.867188 93.820312 C 266.082031 94.523438 266.332031 95.214844 266.617188 95.898438 C 266.898438 96.578125 267.214844 97.242188 267.5625 97.890625 C 267.910156 98.539062 268.292969 99.171875 268.703125 99.785156 C 269.113281 100.394531 269.550781 100.984375 270.019531 101.554688 C 270.488281 102.125 270.984375 102.667969 271.507812 103.1875 C 272.027344 103.707031 272.574219 104.203125 273.144531 104.667969 C 273.714844 105.136719 274.308594 105.574219 274.921875 105.980469 C 275.535156 106.390625 276.167969 106.765625 276.816406 107.113281 C 277.46875 107.460938 278.132812 107.773438 278.816406 108.054688 C 279.496094 108.335938 280.191406 108.582031 280.894531 108.792969 C 281.601562 109.007812 282.316406 109.183594 283.039062 109.328125 C 283.761719 109.46875 284.488281 109.574219 285.222656 109.648438 C 285.957031 109.71875 286.691406 109.753906 287.429688 109.75 C 288.164062 109.75 288.902344 109.710938 289.632812 109.640625 C 290.367188 109.566406 291.09375 109.457031 291.816406 109.3125 C 292.539062 109.164062 293.253906 108.984375 293.957031 108.769531 C 294.664062 108.554688 295.355469 108.304688 296.035156 108.023438 C 296.71875 107.738281 297.382812 107.421875 298.03125 107.074219 C 298.679688 106.726562 299.3125 106.347656 299.921875 105.9375 C 300.535156 105.527344 301.125 105.085938 301.695312 104.617188 C 302.261719 104.148438 302.808594 103.652344 303.328125 103.132812 C 303.847656 102.609375 304.339844 102.0625 304.808594 101.492188 C 305.273438 100.921875 305.710938 100.332031 306.121094 99.71875 C 306.527344 99.101562 306.90625 98.472656 307.25 97.820312 C 307.597656 97.171875 307.910156 96.503906 308.191406 95.824219 C 308.472656 95.140625 308.71875 94.449219 308.933594 93.742188 C 309.144531 93.035156 309.320312 92.324219 309.464844 91.597656 C 309.605469 90.875 309.714844 90.148438 309.785156 89.414062 C 309.855469 88.679688 309.890625 87.945312 309.890625 87.207031 C 309.886719 86.472656 309.851562 85.738281 309.777344 85.003906 C 309.703125 84.269531 309.59375 83.542969 309.449219 82.820312 C 309.304688 82.097656 309.121094 81.382812 308.90625 80.679688 C 308.691406 79.972656 308.441406 79.28125 308.160156 78.601562 C 307.875 77.921875 307.558594 77.257812 307.210938 76.605469 C 306.863281 75.957031 306.484375 75.328125 306.074219 74.714844 C 305.660156 74.101562 305.222656 73.511719 304.753906 72.945312 C 304.285156 72.375 303.789062 71.832031 303.269531 71.308594 C 302.746094 70.789062 302.199219 70.296875 301.628906 69.832031 C 301.058594 69.363281 300.464844 68.925781 299.851562 68.519531 C 299.238281 68.109375 298.605469 67.734375 297.957031 67.386719 C 297.304688 67.042969 296.640625 66.726562 295.957031 66.445312 C 295.277344 66.167969 294.582031 65.917969 293.878906 65.707031 C 293.171875 65.496094 292.457031 65.316406 291.734375 65.175781 C 291.011719 65.03125 290.28125 64.925781 289.550781 64.855469 C 288.816406 64.785156 288.082031 64.75 287.34375 64.75 C 286.605469 64.753906 285.871094 64.789062 285.140625 64.863281 C 284.40625 64.9375 283.679688 65.046875 282.957031 65.191406 C 282.234375 65.335938 281.519531 65.515625 280.816406 65.734375 C 280.109375 65.949219 279.417969 66.195312 278.738281 66.480469 C 278.058594 66.765625 277.394531 67.078125 276.746094 67.429688 C 276.09375 67.777344 275.464844 68.15625 274.851562 68.566406 C 274.242188 68.976562 273.652344 69.417969 273.082031 69.886719 C 272.515625 70.351562 271.96875 70.847656 271.449219 71.371094 C 270.929688 71.890625 270.4375 72.4375 269.96875 73.007812 C 269.503906 73.578125 269.066406 74.171875 268.660156 74.785156 C 268.25 75.398438 267.871094 76.03125 267.527344 76.679688 C 267.179688 77.332031 266.867188 77.996094 266.585938 78.675781 C 266.304688 79.359375 266.058594 80.050781 265.847656 80.757812 C 265.632812 81.460938 265.457031 82.175781 265.3125 82.898438 C 265.171875 83.621094 265.0625 84.351562 264.992188 85.082031 C 264.921875 85.816406 264.886719 86.550781 264.890625 87.289062 M 91.226562 187.6875 C 91.332031 240.863281 134.515625 283.871094 187.679688 283.769531 C 240.84375 283.667969 283.882812 240.488281 283.78125 187.3125 C 283.679688 134.136719 240.484375 91.117188 187.3125 91.222656 C 134.140625 91.328125 91.125 134.519531 91.226562 187.6875 M 125 187.621094 C 124.996094 185.574219 125.089844 183.53125 125.289062 181.492188 C 125.484375 179.457031 125.78125 177.433594 126.175781 175.425781 C 126.570312 173.414062 127.0625 171.429688 127.652344 169.472656 C 128.246094 167.511719 128.929688 165.585938 129.710938 163.691406 C 130.488281 161.800781 131.359375 159.949219 132.320312 158.144531 C 133.28125 156.335938 134.328125 154.578125 135.464844 152.875 C 136.597656 151.171875 137.8125 149.527344 139.105469 147.941406 C 140.402344 146.355469 141.773438 144.839844 143.21875 143.390625 C 144.660156 141.9375 146.175781 140.5625 147.753906 139.261719 C 149.332031 137.960938 150.972656 136.738281 152.671875 135.597656 C 154.371094 134.457031 156.125 133.402344 157.929688 132.433594 C 159.730469 131.464844 161.578125 130.585938 163.46875 129.800781 C 165.355469 129.011719 167.28125 128.320312 169.238281 127.722656 C 171.195312 127.125 173.179688 126.625 175.183594 126.21875 C 177.191406 125.816406 179.214844 125.511719 181.25 125.308594 C 183.289062 125.105469 185.328125 125 187.375 124.996094 C 189.421875 124.992188 191.464844 125.085938 193.503906 125.285156 C 195.539062 125.480469 197.5625 125.777344 199.570312 126.171875 C 201.582031 126.566406 203.566406 127.058594 205.523438 127.652344 C 207.484375 128.242188 209.410156 128.925781 211.304688 129.707031 C 213.195312 130.484375 215.046875 131.355469 216.855469 132.316406 C 218.660156 133.277344 220.417969 134.324219 222.121094 135.460938 C 223.824219 136.59375 225.46875 137.808594 227.054688 139.105469 C 228.640625 140.398438 230.15625 141.769531 231.605469 143.214844 C 233.058594 144.660156 234.433594 146.171875 235.734375 147.75 C 237.039062 149.332031 238.257812 150.96875 239.398438 152.667969 C 240.539062 154.371094 241.59375 156.121094 242.5625 157.925781 C 243.53125 159.726562 244.410156 161.574219 245.195312 163.464844 C 245.984375 165.351562 246.675781 167.277344 247.273438 169.234375 C 247.871094 171.191406 248.371094 173.175781 248.777344 175.179688 C 249.179688 177.1875 249.484375 179.210938 249.6875 181.246094 C 249.894531 183.285156 249.996094 185.324219 250 187.371094 C 250.003906 189.417969 249.910156 191.460938 249.710938 193.5 C 249.515625 195.535156 249.21875 197.558594 248.824219 199.566406 C 248.429688 201.578125 247.9375 203.5625 247.34375 205.519531 C 246.753906 207.480469 246.070312 209.40625 245.289062 211.300781 C 244.511719 213.191406 243.640625 215.042969 242.679688 216.851562 C 241.71875 218.65625 240.671875 220.414062 239.535156 222.117188 C 238.402344 223.820312 237.1875 225.464844 235.890625 227.050781 C 234.597656 228.636719 233.226562 230.152344 231.78125 231.605469 C 230.335938 233.054688 228.824219 234.429688 227.246094 235.730469 C 225.667969 237.035156 224.027344 238.253906 222.328125 239.394531 C 220.625 240.535156 218.875 241.589844 217.070312 242.558594 C 215.269531 243.527344 213.421875 244.40625 211.53125 245.191406 C 209.644531 245.980469 207.71875 246.671875 205.761719 247.269531 C 203.804688 247.867188 201.820312 248.367188 199.816406 248.773438 C 197.808594 249.175781 195.785156 249.480469 193.75 249.683594 C 191.710938 249.890625 189.671875 249.992188 187.625 249.996094 C 185.578125 250 183.535156 249.90625 181.496094 249.710938 C 179.460938 249.511719 177.4375 249.21875 175.425781 248.820312 C 173.417969 248.425781 171.433594 247.933594 169.472656 247.34375 C 167.515625 246.753906 165.585938 246.070312 163.695312 245.289062 C 161.800781 244.507812 159.953125 243.640625 158.144531 242.679688 C 156.335938 241.714844 154.582031 240.667969 152.878906 239.535156 C 151.171875 238.402344 149.527344 237.1875 147.941406 235.890625 C 146.359375 234.597656 144.839844 233.226562 143.390625 231.78125 C 141.941406 230.335938 140.5625 228.824219 139.261719 227.246094 C 137.960938 225.664062 136.738281 224.023438 135.597656 222.324219 C 134.457031 220.625 133.402344 218.875 132.433594 217.070312 C 131.464844 215.265625 130.589844 213.417969 129.800781 211.53125 C 129.015625 209.640625 128.320312 207.714844 127.722656 205.757812 C 127.125 203.800781 126.625 201.820312 126.222656 199.8125 C 125.820312 197.804688 125.515625 195.78125 125.3125 193.746094 C 125.105469 191.710938 125.003906 189.667969 125 187.621094 " fill-opacity="1" fill-rule="nonzero"/></svg>