<svg xmlns="http://www.w3.org/2000/svg" xmlns:xlink="http://www.w3.org/1999/xlink" width="500" zoomAndPan="magnify" viewBox="0 0 375 374.999991" height="500" preserveAspectRatio="xMidYMid meet" version="1.0"><path fill="#ffffff" d="M 315.144531 313.09375 L 260.71875 313.09375 L 260.71875 227.828125 C 260.71875 207.492188 260.355469 181.320312 232.410156 181.320312 C 204.0625 181.320312 199.722656 203.472656 199.722656 226.347656 L 199.722656 313.085938 L 145.296875 313.085938 L 145.296875 137.746094 L 197.546875 137.746094 L 197.546875 161.707031 L 198.277344 161.707031 C 199.582031 159.480469 201.023438 157.351562 202.613281 155.324219 C 204.203125 153.292969 205.921875 151.378906 207.765625 149.578125 C 209.613281 147.78125 211.574219 146.113281 213.644531 144.582031 C 215.71875 143.046875 217.882812 141.660156 220.140625 140.417969 C 222.402344 139.175781 224.734375 138.09375 227.140625 137.167969 C 229.546875 136.242188 232 135.480469 234.507812 134.886719 C 237.019531 134.292969 239.554688 133.867188 242.121094 133.617188 C 244.6875 133.367188 247.257812 133.289062 249.832031 133.382812 C 304.996094 133.382812 315.167969 169.679688 315.167969 216.902344 Z M 83.886719 113.777344 C 82.851562 113.777344 81.820312 113.726562 80.789062 113.625 C 79.757812 113.523438 78.738281 113.371094 77.722656 113.171875 C 76.707031 112.96875 75.707031 112.71875 74.714844 112.417969 C 73.726562 112.117188 72.753906 111.769531 71.796875 111.375 C 70.84375 110.976562 69.90625 110.535156 68.996094 110.050781 C 68.082031 109.5625 67.195312 109.03125 66.335938 108.457031 C 65.476562 107.878906 64.644531 107.265625 63.847656 106.609375 C 63.046875 105.953125 62.28125 105.257812 61.550781 104.527344 C 60.816406 103.796875 60.125 103.03125 59.46875 102.230469 C 58.8125 101.429688 58.195312 100.601562 57.621094 99.738281 C 57.046875 98.878906 56.515625 97.992188 56.027344 97.082031 C 55.539062 96.167969 55.097656 95.234375 54.699219 94.277344 C 54.304688 93.320312 53.957031 92.347656 53.65625 91.359375 C 53.355469 90.367188 53.105469 89.367188 52.902344 88.351562 C 52.699219 87.335938 52.546875 86.3125 52.445312 85.285156 C 52.34375 84.253906 52.292969 83.222656 52.292969 82.1875 C 52.292969 81.152344 52.34375 80.121094 52.445312 79.089844 C 52.546875 78.058594 52.699219 77.039062 52.898438 76.023438 C 53.101562 75.007812 53.351562 74.003906 53.652344 73.015625 C 53.953125 72.023438 54.300781 71.050781 54.695312 70.09375 C 55.09375 69.140625 55.535156 68.203125 56.023438 67.292969 C 56.507812 66.378906 57.039062 65.492188 57.613281 64.632812 C 58.1875 63.769531 58.804688 62.941406 59.460938 62.140625 C 60.117188 61.339844 60.808594 60.574219 61.542969 59.84375 C 62.273438 59.109375 63.039062 58.417969 63.835938 57.761719 C 64.636719 57.105469 65.464844 56.488281 66.328125 55.914062 C 67.1875 55.335938 68.074219 54.804688 68.984375 54.316406 C 69.898438 53.832031 70.832031 53.386719 71.785156 52.992188 C 72.742188 52.59375 73.714844 52.246094 74.707031 51.945312 C 75.695312 51.644531 76.695312 51.394531 77.710938 51.191406 C 78.726562 50.992188 79.75 50.839844 80.777344 50.738281 C 81.808594 50.636719 82.839844 50.585938 83.875 50.585938 C 84.90625 50.585938 85.941406 50.636719 86.96875 50.734375 C 88 50.835938 89.019531 50.988281 90.035156 51.191406 C 91.050781 51.390625 92.054688 51.644531 93.042969 51.945312 C 94.03125 52.242188 95.003906 52.589844 95.960938 52.988281 C 96.917969 53.382812 97.851562 53.824219 98.761719 54.3125 C 99.675781 54.800781 100.5625 55.332031 101.421875 55.90625 C 102.28125 56.480469 103.113281 57.097656 103.910156 57.753906 C 104.710938 58.410156 105.476562 59.101562 106.207031 59.835938 C 106.941406 60.566406 107.632812 61.332031 108.289062 62.132812 C 108.945312 62.933594 109.5625 63.761719 110.136719 64.621094 C 110.710938 65.484375 111.242188 66.367188 111.730469 67.28125 C 112.21875 68.195312 112.660156 69.128906 113.058594 70.085938 C 113.453125 71.039062 113.800781 72.011719 114.101562 73.003906 C 114.402344 73.992188 114.652344 74.996094 114.855469 76.011719 C 115.058594 77.027344 115.210938 78.046875 115.3125 79.078125 C 115.414062 80.109375 115.464844 81.140625 115.464844 82.175781 C 115.464844 83.210938 115.414062 84.242188 115.3125 85.273438 C 115.210938 86.300781 115.0625 87.324219 114.859375 88.339844 C 114.65625 89.355469 114.40625 90.355469 114.105469 91.347656 C 113.804688 92.335938 113.457031 93.3125 113.0625 94.265625 C 112.667969 95.222656 112.226562 96.15625 111.738281 97.070312 C 111.25 97.984375 110.71875 98.871094 110.144531 99.730469 C 109.570312 100.589844 108.953125 101.421875 108.296875 102.222656 C 107.640625 103.019531 106.949219 103.785156 106.21875 104.519531 C 105.484375 105.25 104.71875 105.945312 103.921875 106.601562 C 103.121094 107.257812 102.292969 107.875 101.429688 108.449219 C 100.570312 109.023438 99.6875 109.554688 98.773438 110.042969 C 97.863281 110.53125 96.925781 110.972656 95.972656 111.371094 C 95.015625 111.765625 94.042969 112.113281 93.054688 112.414062 C 92.0625 112.714844 91.0625 112.964844 90.046875 113.167969 C 89.03125 113.371094 88.011719 113.523438 86.980469 113.625 C 85.953125 113.726562 84.917969 113.777344 83.886719 113.777344 M 111.097656 313.09375 L 56.613281 313.09375 L 56.613281 137.746094 L 111.097656 137.746094 Z M 342.277344 0.0234375 L 29.265625 0.0234375 C 28.386719 0.0117188 27.511719 0.046875 26.636719 0.121094 C 25.765625 0.199219 24.894531 0.316406 24.03125 0.476562 C 23.171875 0.640625 22.316406 0.84375 21.476562 1.089844 C 20.632812 1.332031 19.804688 1.621094 18.992188 1.945312 C 18.175781 2.273438 17.378906 2.636719 16.601562 3.042969 C 15.824219 3.449219 15.066406 3.890625 14.332031 4.367188 C 13.59375 4.847656 12.886719 5.363281 12.199219 5.910156 C 11.515625 6.460938 10.859375 7.039062 10.230469 7.652344 C 9.605469 8.265625 9.007812 8.910156 8.445312 9.582031 C 7.878906 10.253906 7.347656 10.953125 6.851562 11.675781 C 6.355469 12.398438 5.898438 13.144531 5.472656 13.914062 C 5.050781 14.683594 4.667969 15.472656 4.320312 16.277344 C 3.976562 17.085938 3.671875 17.90625 3.40625 18.742188 C 3.140625 19.582031 2.917969 20.429688 2.738281 21.289062 C 2.554688 22.144531 2.417969 23.011719 2.320312 23.882812 C 2.222656 24.757812 2.167969 25.632812 2.160156 26.507812 L 2.160156 340.933594 C 2.167969 341.8125 2.222656 342.6875 2.320312 343.5625 C 2.414062 344.433594 2.554688 345.300781 2.734375 346.160156 C 2.917969 347.019531 3.140625 347.867188 3.402344 348.703125 C 3.667969 349.539062 3.972656 350.363281 4.316406 351.171875 C 4.664062 351.976562 5.046875 352.765625 5.46875 353.535156 C 5.894531 354.304688 6.351562 355.054688 6.847656 355.777344 C 7.34375 356.503906 7.875 357.199219 8.4375 357.875 C 9.003906 358.546875 9.601562 359.1875 10.226562 359.800781 C 10.855469 360.417969 11.511719 361 12.195312 361.546875 C 12.878906 362.097656 13.589844 362.613281 14.324219 363.09375 C 15.0625 363.570312 15.816406 364.015625 16.597656 364.417969 C 17.375 364.824219 18.171875 365.191406 18.984375 365.519531 C 19.800781 365.84375 20.628906 366.132812 21.472656 366.378906 C 22.316406 366.625 23.167969 366.828125 24.03125 366.988281 C 24.894531 367.152344 25.761719 367.269531 26.636719 367.347656 C 27.511719 367.425781 28.386719 367.457031 29.265625 367.449219 L 342.277344 367.449219 C 343.15625 367.460938 344.035156 367.425781 344.910156 367.351562 C 345.789062 367.277344 346.660156 367.160156 347.523438 367 C 348.386719 366.839844 349.242188 366.636719 350.085938 366.390625 C 350.933594 366.144531 351.761719 365.859375 352.582031 365.535156 C 353.398438 365.207031 354.195312 364.84375 354.976562 364.4375 C 355.757812 364.035156 356.519531 363.589844 357.253906 363.113281 C 357.992188 362.632812 358.707031 362.117188 359.394531 361.570312 C 360.078125 361.019531 360.738281 360.4375 361.367188 359.824219 C 362 359.210938 362.597656 358.566406 363.164062 357.894531 C 363.730469 357.222656 364.265625 356.523438 364.761719 355.796875 C 365.261719 355.074219 365.722656 354.324219 366.148438 353.554688 C 366.574219 352.785156 366.957031 351.996094 367.304688 351.1875 C 367.652344 350.378906 367.960938 349.554688 368.226562 348.714844 C 368.496094 347.878906 368.71875 347.027344 368.902344 346.167969 C 369.085938 345.308594 369.226562 344.441406 369.328125 343.566406 C 369.425781 342.691406 369.480469 341.8125 369.492188 340.933594 L 369.492188 26.484375 C 369.480469 25.605469 369.425781 24.730469 369.324219 23.855469 C 369.226562 22.980469 369.085938 22.117188 368.902344 21.253906 C 368.71875 20.394531 368.492188 19.546875 368.226562 18.707031 C 367.957031 17.871094 367.652344 17.046875 367.304688 16.238281 C 366.957031 15.433594 366.570312 14.644531 366.144531 13.875 C 365.71875 13.105469 365.257812 12.355469 364.757812 11.632812 C 364.261719 10.90625 363.726562 10.210938 363.160156 9.539062 C 362.59375 8.863281 361.996094 8.222656 361.363281 7.609375 C 360.734375 6.996094 360.074219 6.414062 359.386719 5.867188 C 358.703125 5.316406 357.988281 4.804688 357.25 4.324219 C 356.515625 3.847656 355.753906 3.40625 354.972656 3 C 354.191406 2.597656 353.394531 2.234375 352.578125 1.90625 C 351.761719 1.582031 350.929688 1.296875 350.085938 1.050781 C 349.242188 0.808594 348.386719 0.605469 347.523438 0.445312 C 346.65625 0.285156 345.785156 0.167969 344.910156 0.09375 C 344.035156 0.0195312 343.15625 -0.0117188 342.277344 0 " fill-opacity="1" fill-rule="nonzero"/></svg>