<svg xmlns="http://www.w3.org/2000/svg" xmlns:xlink="http://www.w3.org/1999/xlink" width="500" zoomAndPan="magnify" viewBox="0 0 375 374.999991" height="500" preserveAspectRatio="xMidYMid meet" version="1.0"><defs><clipPath id="7f7bed03ab"><path d="M 88 129.019531 L 287 129.019531 L 287 197 L 88 197 Z M 88 129.019531 " clip-rule="nonzero"/></clipPath><clipPath id="fbe22e4927"><path d="M 79.050781 214 L 277 214 L 277 258.769531 L 79.050781 258.769531 Z M 79.050781 214 " clip-rule="nonzero"/></clipPath><clipPath id="3f4946e7a6"><path d="M 255 209 L 295.800781 209 L 295.800781 251 L 255 251 Z M 255 209 " clip-rule="nonzero"/></clipPath><clipPath id="2bc68466c0"><path d="M 88 129.019531 L 287 129.019531 L 287 197 L 88 197 Z M 88 129.019531 " clip-rule="nonzero"/></clipPath><clipPath id="53176d9320"><path d="M 79.050781 214 L 277 214 L 277 258.769531 L 79.050781 258.769531 Z M 79.050781 214 " clip-rule="nonzero"/></clipPath><clipPath id="9b12cbd794"><path d="M 255 209 L 295.800781 209 L 295.800781 251 L 255 251 Z M 255 209 " clip-rule="nonzero"/></clipPath></defs><rect x="-37.5" width="450" fill="#ffffff" y="-37.499999" height="449.999989" fill-opacity="1"/><rect x="-37.5" width="450" fill="#ffffff" y="-37.499999" height="449.999989" fill-opacity="1"/><g clip-path="url(#7f7bed03ab)"><path fill="#252f3e" d="M 140.113281 176.054688 C 140.113281 178.757812 140.472656 180.921875 140.832031 182.542969 C 141.371094 184.164062 142.089844 185.785156 143.171875 187.769531 C 143.53125 188.308594 143.710938 188.851562 143.710938 189.390625 C 143.710938 190.113281 143.351562 190.832031 142.273438 191.554688 L 137.773438 194.617188 C 137.054688 194.976562 136.515625 195.335938 135.976562 195.335938 C 135.253906 195.335938 134.535156 194.976562 133.816406 194.257812 C 132.738281 193.175781 132.015625 192.09375 131.296875 190.832031 C 130.578125 189.570312 129.859375 188.308594 129.140625 186.507812 C 123.5625 193.175781 116.546875 196.417969 107.910156 196.417969 C 101.796875 196.417969 97.117188 194.617188 93.519531 191.191406 C 89.921875 187.769531 88.121094 183.082031 88.121094 177.316406 C 88.121094 171.191406 90.28125 166.144531 94.597656 162.539062 C 98.917969 158.9375 104.851562 156.953125 112.230469 156.953125 C 114.746094 156.953125 117.265625 157.132812 119.785156 157.492188 C 122.484375 157.855469 125.179688 158.394531 128.058594 159.117188 L 128.058594 153.890625 C 128.058594 148.484375 126.980469 144.519531 124.640625 142.355469 C 122.304688 140.195312 118.523438 139.113281 112.949219 139.113281 C 110.429688 139.113281 107.910156 139.472656 105.214844 140.015625 C 102.515625 140.734375 99.996094 141.457031 97.476562 142.535156 C 96.398438 142.898438 95.5 143.257812 94.957031 143.4375 C 94.417969 143.4375 94.058594 143.617188 93.878906 143.617188 C 92.800781 143.617188 92.441406 142.898438 92.441406 141.457031 L 92.441406 137.851562 C 92.441406 136.769531 92.621094 135.867188 92.980469 135.328125 C 93.339844 134.789062 94.058594 134.246094 94.957031 133.886719 C 97.476562 132.625 100.535156 131.542969 103.953125 130.644531 C 107.550781 129.742188 111.148438 129.203125 115.105469 129.203125 C 123.742188 129.203125 129.859375 131.183594 133.996094 134.96875 C 137.953125 138.933594 139.933594 144.699219 139.933594 152.808594 Z M 110.96875 187.046875 C 113.308594 187.046875 115.828125 186.6875 118.34375 185.785156 C 120.863281 184.886719 123.203125 183.265625 125.179688 181.101562 C 126.261719 179.660156 127.160156 178.21875 127.699219 176.414062 C 128.058594 174.613281 128.417969 172.632812 128.417969 170.109375 L 128.417969 167.046875 C 126.261719 166.503906 124.101562 166.144531 121.761719 165.785156 C 119.425781 165.421875 117.265625 165.421875 114.925781 165.421875 C 110.070312 165.421875 106.652344 166.324219 104.132812 168.304688 C 101.796875 170.289062 100.535156 172.992188 100.535156 176.597656 C 100.535156 180.019531 101.433594 182.542969 103.234375 184.164062 C 105.03125 186.328125 107.550781 187.046875 110.96875 187.046875 Z M 168.714844 194.976562 C 167.457031 194.976562 166.558594 194.796875 166.019531 194.257812 C 165.476562 193.894531 164.9375 192.816406 164.578125 191.375 L 147.667969 135.507812 C 147.308594 134.066406 146.949219 133.164062 146.949219 132.625 C 146.949219 131.542969 147.488281 130.824219 148.746094 130.824219 L 155.765625 130.824219 C 157.203125 130.824219 158.101562 131.003906 158.640625 131.542969 C 159.183594 131.90625 159.722656 132.984375 160.082031 134.425781 L 172.132812 182.183594 L 183.289062 134.425781 C 183.648438 132.984375 184.007812 132.085938 184.726562 131.542969 C 185.265625 131.183594 186.347656 130.824219 187.605469 130.824219 L 193.363281 130.824219 C 194.800781 130.824219 195.699219 131.003906 196.242188 131.542969 C 196.78125 131.90625 197.320312 132.984375 197.679688 134.425781 L 209.011719 182.722656 L 221.425781 134.425781 C 221.785156 132.984375 222.324219 132.085938 222.863281 131.542969 C 223.40625 131.183594 224.304688 130.824219 225.742188 130.824219 L 232.398438 130.824219 C 233.480469 130.824219 234.199219 131.363281 234.199219 132.625 C 234.199219 132.984375 234.199219 133.347656 234.019531 133.707031 C 234.019531 134.066406 233.839844 134.789062 233.480469 135.507812 L 216.027344 191.375 C 215.667969 192.816406 215.128906 193.714844 214.589844 194.257812 C 214.050781 194.617188 213.152344 194.976562 211.890625 194.976562 L 205.773438 194.976562 C 204.335938 194.976562 203.4375 194.796875 202.898438 194.257812 C 202.355469 193.714844 201.816406 192.816406 201.457031 191.375 L 190.304688 144.878906 L 179.148438 191.375 C 178.789062 192.816406 178.429688 193.714844 177.710938 194.257812 C 177.171875 194.796875 176.09375 194.976562 174.832031 194.976562 Z M 261.363281 196.78125 C 257.585938 196.78125 253.808594 196.417969 250.210938 195.519531 C 246.613281 194.617188 243.734375 193.714844 241.933594 192.632812 C 240.855469 191.914062 239.957031 191.191406 239.777344 190.652344 C 239.59375 190.113281 239.234375 189.210938 239.234375 188.671875 L 239.234375 185.066406 C 239.234375 183.625 239.777344 182.902344 240.855469 182.902344 C 241.214844 182.902344 241.753906 182.902344 242.113281 183.082031 C 242.472656 183.265625 243.195312 183.445312 243.914062 183.804688 C 246.429688 184.886719 248.949219 185.785156 251.828125 186.328125 C 254.707031 186.867188 257.585938 187.226562 260.464844 187.226562 C 264.960938 187.226562 268.558594 186.507812 270.898438 184.886719 C 273.417969 183.265625 274.675781 180.921875 274.675781 178.039062 C 274.675781 176.054688 273.957031 174.433594 272.695312 172.992188 C 271.4375 171.550781 268.917969 170.46875 265.5 169.207031 L 255.066406 165.964844 C 249.851562 164.34375 245.890625 161.820312 243.554688 158.574219 C 241.214844 155.332031 239.957031 151.90625 239.957031 148.125 C 239.957031 145.058594 240.675781 142.355469 241.933594 140.195312 C 243.195312 138.03125 244.992188 135.867188 247.152344 134.246094 C 249.308594 132.625 251.828125 131.363281 254.707031 130.460938 C 257.585938 129.5625 260.644531 129.203125 263.703125 129.203125 C 265.320312 129.203125 266.941406 129.203125 268.558594 129.5625 C 270.179688 129.742188 271.796875 130.101562 273.234375 130.28125 C 274.675781 130.644531 276.113281 131.003906 277.375 131.363281 C 278.632812 131.722656 279.710938 132.265625 280.433594 132.625 C 281.511719 133.164062 282.230469 133.707031 282.589844 134.425781 C 282.949219 134.96875 283.308594 135.867188 283.308594 136.769531 L 283.308594 140.195312 C 283.308594 141.636719 282.769531 142.535156 281.691406 142.535156 C 281.152344 142.535156 280.253906 142.175781 278.992188 141.636719 C 274.855469 139.832031 270.359375 138.753906 265.140625 138.753906 C 261.003906 138.753906 257.765625 139.472656 255.605469 140.734375 C 253.449219 141.996094 252.1875 144.160156 252.1875 147.222656 C 252.1875 149.203125 252.90625 151.007812 254.347656 152.269531 C 255.785156 153.710938 258.484375 154.972656 262.261719 156.234375 L 272.515625 159.476562 C 277.734375 161.097656 281.511719 163.441406 283.671875 166.324219 C 285.828125 169.207031 286.910156 172.632812 286.910156 176.414062 C 286.910156 179.480469 286.1875 182.363281 285.109375 184.707031 C 283.851562 187.226562 282.050781 189.390625 279.890625 191.011719 C 277.734375 192.816406 275.035156 194.078125 271.976562 194.976562 C 268.378906 196.417969 264.960938 196.78125 261.363281 196.78125 Z M 261.363281 196.78125 " fill-opacity="1" fill-rule="nonzero"/></g><g clip-path="url(#fbe22e4927)"><path fill="#ff9900" d="M 275.035156 231.921875 C 251.289062 249.398438 216.75 258.769531 187.246094 258.769531 C 145.691406 258.769531 108.269531 243.453125 80.027344 217.863281 C 77.867188 215.882812 79.847656 213.179688 82.546875 214.621094 C 113.128906 232.460938 150.726562 243.09375 189.765625 243.09375 C 216.027344 243.09375 244.992188 237.6875 271.617188 226.332031 C 275.394531 224.710938 278.8125 229.035156 275.035156 231.921875 Z M 275.035156 231.921875 " fill-opacity="1" fill-rule="evenodd"/></g><g clip-path="url(#3f4946e7a6)"><path fill="#ff9900" d="M 284.75 220.746094 C 281.691406 216.78125 264.78125 218.945312 257.046875 219.847656 C 254.707031 220.207031 254.347656 218.042969 256.503906 216.601562 C 269.996094 207.050781 292.304688 209.753906 294.824219 213 C 297.34375 216.242188 294.105469 238.585938 281.511719 249.21875 C 279.53125 250.84375 277.734375 249.941406 278.632812 247.777344 C 281.511719 240.570312 287.808594 224.53125 284.75 220.746094 Z M 284.75 220.746094 " fill-opacity="1" fill-rule="evenodd"/></g><g clip-path="url(#2bc68466c0)"><path fill="#252f3e" d="M 140.113281 176.054688 C 140.113281 178.757812 140.472656 180.921875 140.832031 182.542969 C 141.371094 184.164062 142.089844 185.785156 143.171875 187.769531 C 143.53125 188.308594 143.710938 188.851562 143.710938 189.390625 C 143.710938 190.113281 143.351562 190.832031 142.273438 191.554688 L 137.773438 194.617188 C 137.054688 194.976562 136.515625 195.335938 135.976562 195.335938 C 135.253906 195.335938 134.535156 194.976562 133.816406 194.257812 C 132.738281 193.175781 132.015625 192.09375 131.296875 190.832031 C 130.578125 189.570312 129.859375 188.308594 129.140625 186.507812 C 123.5625 193.175781 116.546875 196.417969 107.910156 196.417969 C 101.796875 196.417969 97.117188 194.617188 93.519531 191.191406 C 89.921875 187.769531 88.121094 183.082031 88.121094 177.316406 C 88.121094 171.191406 90.28125 166.144531 94.597656 162.539062 C 98.917969 158.9375 104.851562 156.953125 112.230469 156.953125 C 114.746094 156.953125 117.265625 157.132812 119.785156 157.492188 C 122.484375 157.855469 125.179688 158.394531 128.058594 159.117188 L 128.058594 153.890625 C 128.058594 148.484375 126.980469 144.519531 124.640625 142.355469 C 122.304688 140.195312 118.523438 139.113281 112.949219 139.113281 C 110.429688 139.113281 107.910156 139.472656 105.214844 140.015625 C 102.515625 140.734375 99.996094 141.457031 97.476562 142.535156 C 96.398438 142.898438 95.5 143.257812 94.957031 143.4375 C 94.417969 143.4375 94.058594 143.617188 93.878906 143.617188 C 92.800781 143.617188 92.441406 142.898438 92.441406 141.457031 L 92.441406 137.851562 C 92.441406 136.769531 92.621094 135.867188 92.980469 135.328125 C 93.339844 134.789062 94.058594 134.246094 94.957031 133.886719 C 97.476562 132.625 100.535156 131.542969 103.953125 130.644531 C 107.550781 129.742188 111.148438 129.203125 115.105469 129.203125 C 123.742188 129.203125 129.859375 131.183594 133.996094 134.96875 C 137.953125 138.933594 139.933594 144.699219 139.933594 152.808594 Z M 110.96875 187.046875 C 113.308594 187.046875 115.828125 186.6875 118.34375 185.785156 C 120.863281 184.886719 123.203125 183.265625 125.179688 181.101562 C 126.261719 179.660156 127.160156 178.21875 127.699219 176.414062 C 128.058594 174.613281 128.417969 172.632812 128.417969 170.109375 L 128.417969 167.046875 C 126.261719 166.503906 124.101562 166.144531 121.761719 165.785156 C 119.425781 165.421875 117.265625 165.421875 114.925781 165.421875 C 110.070312 165.421875 106.652344 166.324219 104.132812 168.304688 C 101.796875 170.289062 100.535156 172.992188 100.535156 176.597656 C 100.535156 180.019531 101.433594 182.542969 103.234375 184.164062 C 105.03125 186.328125 107.550781 187.046875 110.96875 187.046875 Z M 168.714844 194.976562 C 167.457031 194.976562 166.558594 194.796875 166.019531 194.257812 C 165.476562 193.894531 164.9375 192.816406 164.578125 191.375 L 147.667969 135.507812 C 147.308594 134.066406 146.949219 133.164062 146.949219 132.625 C 146.949219 131.542969 147.488281 130.824219 148.746094 130.824219 L 155.765625 130.824219 C 157.203125 130.824219 158.101562 131.003906 158.640625 131.542969 C 159.183594 131.90625 159.722656 132.984375 160.082031 134.425781 L 172.132812 182.183594 L 183.289062 134.425781 C 183.648438 132.984375 184.007812 132.085938 184.726562 131.542969 C 185.265625 131.183594 186.347656 130.824219 187.605469 130.824219 L 193.363281 130.824219 C 194.800781 130.824219 195.699219 131.003906 196.242188 131.542969 C 196.78125 131.90625 197.320312 132.984375 197.679688 134.425781 L 209.011719 182.722656 L 221.425781 134.425781 C 221.785156 132.984375 222.324219 132.085938 222.863281 131.542969 C 223.40625 131.183594 224.304688 130.824219 225.742188 130.824219 L 232.398438 130.824219 C 233.480469 130.824219 234.199219 131.363281 234.199219 132.625 C 234.199219 132.984375 234.199219 133.347656 234.019531 133.707031 C 234.019531 134.066406 233.839844 134.789062 233.480469 135.507812 L 216.027344 191.375 C 215.667969 192.816406 215.128906 193.714844 214.589844 194.257812 C 214.050781 194.617188 213.152344 194.976562 211.890625 194.976562 L 205.773438 194.976562 C 204.335938 194.976562 203.4375 194.796875 202.898438 194.257812 C 202.355469 193.714844 201.816406 192.816406 201.457031 191.375 L 190.304688 144.878906 L 179.148438 191.375 C 178.789062 192.816406 178.429688 193.714844 177.710938 194.257812 C 177.171875 194.796875 176.09375 194.976562 174.832031 194.976562 Z M 261.363281 196.78125 C 257.585938 196.78125 253.808594 196.417969 250.210938 195.519531 C 246.613281 194.617188 243.734375 193.714844 241.933594 192.632812 C 240.855469 191.914062 239.957031 191.191406 239.777344 190.652344 C 239.59375 190.113281 239.234375 189.210938 239.234375 188.671875 L 239.234375 185.066406 C 239.234375 183.625 239.777344 182.902344 240.855469 182.902344 C 241.214844 182.902344 241.753906 182.902344 242.113281 183.082031 C 242.472656 183.265625 243.195312 183.445312 243.914062 183.804688 C 246.429688 184.886719 248.949219 185.785156 251.828125 186.328125 C 254.707031 186.867188 257.585938 187.226562 260.464844 187.226562 C 264.960938 187.226562 268.558594 186.507812 270.898438 184.886719 C 273.417969 183.265625 274.675781 180.921875 274.675781 178.039062 C 274.675781 176.054688 273.957031 174.433594 272.695312 172.992188 C 271.4375 171.550781 268.917969 170.46875 265.5 169.207031 L 255.066406 165.964844 C 249.851562 164.34375 245.890625 161.820312 243.554688 158.574219 C 241.214844 155.332031 239.957031 151.90625 239.957031 148.125 C 239.957031 145.058594 240.675781 142.355469 241.933594 140.195312 C 243.195312 138.03125 244.992188 135.867188 247.152344 134.246094 C 249.308594 132.625 251.828125 131.363281 254.707031 130.460938 C 257.585938 129.5625 260.644531 129.203125 263.703125 129.203125 C 265.320312 129.203125 266.941406 129.203125 268.558594 129.5625 C 270.179688 129.742188 271.796875 130.101562 273.234375 130.28125 C 274.675781 130.644531 276.113281 131.003906 277.375 131.363281 C 278.632812 131.722656 279.710938 132.265625 280.433594 132.625 C 281.511719 133.164062 282.230469 133.707031 282.589844 134.425781 C 282.949219 134.96875 283.308594 135.867188 283.308594 136.769531 L 283.308594 140.195312 C 283.308594 141.636719 282.769531 142.535156 281.691406 142.535156 C 281.152344 142.535156 280.253906 142.175781 278.992188 141.636719 C 274.855469 139.832031 270.359375 138.753906 265.140625 138.753906 C 261.003906 138.753906 257.765625 139.472656 255.605469 140.734375 C 253.449219 141.996094 252.1875 144.160156 252.1875 147.222656 C 252.1875 149.203125 252.90625 151.007812 254.347656 152.269531 C 255.785156 153.710938 258.484375 154.972656 262.261719 156.234375 L 272.515625 159.476562 C 277.734375 161.097656 281.511719 163.441406 283.671875 166.324219 C 285.828125 169.207031 286.910156 172.632812 286.910156 176.414062 C 286.910156 179.480469 286.1875 182.363281 285.109375 184.707031 C 283.851562 187.226562 282.050781 189.390625 279.890625 191.011719 C 277.734375 192.816406 275.035156 194.078125 271.976562 194.976562 C 268.378906 196.417969 264.960938 196.78125 261.363281 196.78125 Z M 261.363281 196.78125 " fill-opacity="1" fill-rule="nonzero"/></g><g clip-path="url(#53176d9320)"><path fill="#ff9900" d="M 275.035156 231.921875 C 251.289062 249.398438 216.75 258.769531 187.246094 258.769531 C 145.691406 258.769531 108.269531 243.453125 80.027344 217.863281 C 77.867188 215.882812 79.847656 213.179688 82.546875 214.621094 C 113.128906 232.460938 150.726562 243.09375 189.765625 243.09375 C 216.027344 243.09375 244.992188 237.6875 271.617188 226.332031 C 275.394531 224.710938 278.8125 229.035156 275.035156 231.921875 Z M 275.035156 231.921875 " fill-opacity="1" fill-rule="evenodd"/></g><g clip-path="url(#9b12cbd794)"><path fill="#ff9900" d="M 284.75 220.746094 C 281.691406 216.78125 264.78125 218.945312 257.046875 219.847656 C 254.707031 220.207031 254.347656 218.042969 256.503906 216.601562 C 269.996094 207.050781 292.304688 209.753906 294.824219 213 C 297.34375 216.242188 294.105469 238.585938 281.511719 249.21875 C 279.53125 250.84375 277.734375 249.941406 278.632812 247.777344 C 281.511719 240.570312 287.808594 224.53125 284.75 220.746094 Z M 284.75 220.746094 " fill-opacity="1" fill-rule="evenodd"/></g></svg>