<svg xmlns="http://www.w3.org/2000/svg" xmlns:xlink="http://www.w3.org/1999/xlink" width="500" zoomAndPan="magnify" viewBox="0 0 375 374.999991" height="500" preserveAspectRatio="xMidYMid meet" version="1.0"><path fill="#0080c6" d="M 164.214844 209.445312 L 149.144531 167.476562 C 148.953125 166.898438 148.667969 166.132812 148.667969 165.460938 C 148.667969 163.640625 150.203125 161.914062 152.40625 161.914062 C 154.328125 161.914062 155.578125 163.160156 156.152344 164.980469 L 168.640625 201.140625 L 181.21875 164.878906 C 181.792969 163.160156 182.945312 161.910156 184.855469 161.910156 L 185.246094 161.910156 C 187.265625 161.910156 188.515625 163.160156 189.085938 164.878906 L 201.5625 201.140625 L 214.246094 164.789062 C 214.726562 163.246094 215.773438 161.910156 217.796875 161.910156 C 219.90625 161.910156 221.445312 163.535156 221.445312 165.363281 C 221.445312 166.03125 221.15625 166.796875 220.964844 167.382812 L 205.800781 209.445312 C 205.023438 211.640625 203.496094 212.792969 201.761719 212.792969 L 201.476562 212.792969 C 199.554688 212.792969 198.113281 211.640625 197.433594 209.445312 L 185.058594 173.78125 L 172.570312 209.445312 C 171.898438 211.640625 170.453125 212.792969 168.539062 212.792969 L 168.339844 212.792969 C 166.519531 212.792969 164.988281 211.640625 164.214844 209.445312 " fill-opacity="1" fill-rule="nonzero"/><path fill="#0080c6" d="M 274.070312 165.570312 C 274.070312 163.546875 275.703125 161.816406 277.71875 161.816406 C 279.847656 161.816406 281.476562 163.453125 281.476562 165.570312 L 281.476562 174.085938 C 285.125 165.816406 293.222656 161.914062 298.589844 161.914062 C 300.8125 161.914062 302.257812 163.546875 302.257812 165.660156 C 302.257812 167.683594 300.917969 169.121094 298.976562 169.410156 C 289.355469 170.5625 281.476562 177.78125 281.476562 192.113281 L 281.476562 208.976562 C 281.476562 211 279.941406 212.726562 277.824219 212.726562 C 275.710938 212.726562 274.074219 211.082031 274.074219 208.976562 Z M 274.070312 165.570312 " fill-opacity="1" fill-rule="nonzero"/><path fill="#0080c6" d="M 326.019531 213.195312 C 312.632812 213.195312 301.699219 202.8125 301.699219 187.585938 L 301.699219 187.386719 C 301.699219 173.207031 311.601562 161.78125 325.078125 161.78125 C 339.484375 161.78125 347.691406 173.671875 347.691406 186.71875 C 347.691406 188.722656 346.074219 190.15625 344.296875 190.15625 L 309.0625 190.15625 C 310.089844 200.8125 317.53125 206.804688 326.210938 206.804688 C 332.246094 206.804688 336.660156 204.425781 340.246094 201.09375 C 340.8125 200.621094 341.472656 200.242188 342.324219 200.242188 C 344.109375 200.242188 345.53125 201.671875 345.53125 203.390625 C 345.53125 204.246094 345.152344 205.105469 344.390625 205.761719 C 339.777344 210.234375 334.304688 213.195312 326.019531 213.195312 M 340.4375 184.730469 C 339.679688 175.773438 334.585938 167.976562 324.878906 167.976562 C 316.398438 167.976562 309.988281 175.109375 309.058594 184.730469 Z M 340.4375 184.730469 " fill-opacity="1" fill-rule="nonzero"/><path fill="#0080c6" d="M 221.578125 197.78125 L 221.578125 197.589844 C 221.578125 187.140625 230.210938 181.570312 242.765625 181.570312 C 249.097656 181.570312 253.601562 182.433594 258.023438 183.6875 L 258.023438 181.953125 C 258.023438 173.042969 252.539062 168.433594 243.25 168.433594 C 238.261719 168.433594 235.359375 169.070312 231.707031 170.695312 C 231.234375 170.886719 230.75 170.988281 230.375 170.988281 C 228.648438 170.988281 227.109375 169.542969 227.109375 167.820312 C 227.109375 166.292969 227.777344 165.34375 229.125 164.746094 C 234.007812 162.628906 237.691406 161.921875 244.015625 161.921875 C 251.011719 161.921875 256.382812 163.738281 260.019531 167.386719 C 263.382812 170.742188 265.109375 175.535156 265.109375 181.867188 L 265.109375 209.222656 C 265.109375 211.328125 263.574219 212.867188 261.550781 212.867188 C 259.449219 212.867188 258.023438 211.328125 258.023438 209.414062 L 258.023438 204.683594 C 254.566406 209.199219 248.808594 213.222656 240.097656 213.222656 C 230.886719 213.214844 221.578125 207.945312 221.578125 197.78125 M 258.117188 193.945312 L 258.117188 189.148438 C 254.464844 188.097656 249.566406 187.039062 243.53125 187.039062 C 234.242188 187.039062 229.058594 191.070312 229.058594 197.296875 L 229.058594 197.488281 C 229.058594 203.71875 234.804688 207.363281 241.523438 207.363281 C 250.628906 207.363281 258.117188 201.800781 258.117188 193.945312 " fill-opacity="1" fill-rule="nonzero"/><path fill="#0080c6" d="M 29.886719 165.027344 C 28.265625 161.464844 24.25 159.855469 20.503906 161.519531 C 16.75 163.1875 15.371094 167.347656 17.066406 170.910156 L 32.800781 205.109375 C 35.277344 210.472656 37.882812 213.28125 42.777344 213.28125 C 48.007812 213.28125 50.285156 210.222656 52.757812 205.109375 C 52.757812 205.109375 66.484375 175.226562 66.621094 174.914062 C 66.761719 174.597656 67.199219 173.632812 68.597656 173.640625 C 69.777344 173.648438 70.769531 174.59375 70.769531 175.859375 L 70.769531 205.082031 C 70.769531 209.585938 73.269531 213.28125 78.074219 213.28125 C 82.878906 213.28125 85.476562 209.585938 85.476562 205.082031 L 85.476562 181.167969 C 85.476562 176.554688 88.78125 173.5625 93.285156 173.5625 C 97.789062 173.5625 100.785156 176.664062 100.785156 181.167969 L 100.785156 205.082031 C 100.785156 209.585938 103.292969 213.28125 108.089844 213.28125 C 112.894531 213.28125 115.503906 209.585938 115.503906 205.082031 L 115.503906 181.167969 C 115.503906 176.554688 118.792969 173.5625 123.300781 173.5625 C 127.796875 173.5625 130.808594 176.664062 130.808594 181.167969 L 130.808594 205.082031 C 130.808594 209.585938 133.3125 213.28125 138.113281 213.28125 C 142.914062 213.28125 145.519531 209.585938 145.519531 205.082031 L 145.519531 177.863281 C 145.519531 167.863281 137.476562 160.855469 127.796875 160.855469 C 118.132812 160.855469 112.078125 167.542969 112.078125 167.542969 C 108.859375 163.371094 104.421875 160.867188 96.917969 160.867188 C 88.996094 160.867188 82.0625 167.542969 82.0625 167.542969 C 78.84375 163.371094 73.359375 160.867188 68.820312 160.867188 C 61.800781 160.867188 56.226562 163.953125 52.824219 171.730469 L 42.777344 195.414062 Z M 29.886719 165.027344 " fill-opacity="1" fill-rule="nonzero"/><path fill="#0080c6" d="M 348.289062 167.988281 L 348.289062 167.949219 C 348.289062 164.601562 351.007812 161.78125 354.417969 161.78125 C 357.878906 161.78125 360.558594 164.570312 360.558594 167.921875 L 360.558594 167.949219 C 360.558594 171.304688 357.851562 174.125 354.417969 174.125 C 350.957031 174.125 348.289062 171.34375 348.289062 167.988281 M 359.378906 167.949219 L 359.378906 167.933594 C 359.378906 165.179688 357.253906 162.921875 354.417969 162.921875 C 351.609375 162.921875 349.453125 165.21875 349.453125 167.949219 L 349.453125 167.980469 C 349.453125 170.726562 351.585938 172.980469 354.417969 172.980469 C 357.21875 172.980469 359.378906 170.691406 359.378906 167.949219 " fill-opacity="1" fill-rule="nonzero"/><path fill="#0080c6" d="M 352.074219 165.519531 C 352.074219 165.15625 352.363281 164.867188 352.734375 164.867188 L 354.777344 164.867188 C 355.550781 164.867188 356.144531 165.082031 356.511719 165.472656 C 356.851562 165.800781 357.035156 166.277344 357.035156 166.828125 L 357.035156 166.84375 C 357.035156 167.78125 356.5625 168.351562 355.847656 168.652344 L 356.75 169.753906 C 356.878906 169.917969 356.960938 170.054688 356.960938 170.253906 C 356.960938 170.617188 356.65625 170.855469 356.34375 170.855469 C 356.050781 170.855469 355.855469 170.707031 355.699219 170.519531 L 354.429688 168.910156 L 353.382812 168.910156 L 353.382812 170.203125 C 353.382812 170.566406 353.101562 170.855469 352.734375 170.855469 C 352.367188 170.855469 352.074219 170.566406 352.074219 170.203125 Z M 354.707031 167.75 C 355.34375 167.75 355.695312 167.417969 355.695312 166.910156 L 355.695312 166.890625 C 355.695312 166.335938 355.316406 166.039062 354.683594 166.039062 L 353.378906 166.039062 L 353.378906 167.75 Z M 354.707031 167.75 " fill-opacity="1" fill-rule="nonzero"/></svg>