<svg xmlns="http://www.w3.org/2000/svg" xmlns:xlink="http://www.w3.org/1999/xlink" width="500" zoomAndPan="magnify" viewBox="0 0 375 374.999991" height="500" preserveAspectRatio="xMidYMid meet" version="1.0"><defs><clipPath id="e248aa35be"><path d="M 12 114.214844 L 133 114.214844 L 133 149 L 12 149 Z M 12 114.214844 " clip-rule="nonzero"/></clipPath><clipPath id="429dd46a5e"><path d="M 12 171 L 363 171 L 363 260.464844 L 12 260.464844 Z M 12 171 " clip-rule="nonzero"/></clipPath></defs><g clip-path="url(#e248aa35be)"><path fill="#01a982" d="M 12.089844 114.214844 L 12.089844 148.585938 L 132.164062 148.585938 L 132.164062 114.214844 Z M 124.628906 141.167969 L 19.628906 141.167969 L 19.628906 121.738281 L 124.628906 121.738281 Z M 124.628906 141.167969 " fill-opacity="1" fill-rule="nonzero"/></g><g clip-path="url(#429dd46a5e)"><path fill="#000000" d="M 19.628906 205.515625 L 12.089844 205.515625 L 12.089844 171.148438 L 19.628906 171.148438 L 19.628906 184.730469 L 33.027344 184.730469 L 33.027344 171.148438 L 40.566406 171.148438 L 40.566406 205.515625 L 33.027344 205.515625 L 33.027344 191.207031 L 19.628906 191.207031 Z M 57.523438 206.039062 C 49.882812 206.039062 44.753906 201.234375 44.753906 193.398438 C 44.753906 185.566406 49.777344 180.445312 56.582031 180.445312 C 63.386719 180.445312 67.574219 185.355469 67.574219 192.667969 L 67.574219 195.382812 L 51.871094 195.382812 C 52.707031 199.144531 55.746094 200.191406 58.675781 200.191406 C 61.605469 200.191406 63.175781 199.667969 65.480469 198.203125 L 65.792969 198.203125 L 65.792969 203.847656 C 63.804688 205.414062 60.980469 206.039062 57.523438 206.039062 Z M 51.871094 190.476562 L 60.769531 190.476562 C 60.558594 187.96875 59.511719 186.191406 56.582031 186.191406 C 53.652344 186.191406 52.5 187.132812 51.871094 190.476562 Z M 87.152344 191.101562 L 83.277344 205.515625 L 76.683594 205.515625 L 69.144531 181.28125 L 69.144531 180.96875 L 76.367188 180.96875 L 80.449219 195.488281 L 84.324219 180.96875 L 90.1875 180.96875 L 94.058594 195.488281 L 98.246094 180.96875 L 105.15625 180.96875 L 105.15625 181.28125 L 97.617188 205.515625 L 91.023438 205.515625 Z M 117.300781 206.039062 C 111.332031 206.039062 108.925781 203.636719 108.925781 198.101562 L 108.925781 171.042969 L 116.253906 171.042969 L 116.253906 197.578125 C 116.253906 199.25 116.882812 199.875 118.347656 199.875 C 119.8125 199.875 119.601562 199.667969 120.023438 199.5625 L 120.125 199.5625 L 120.125 205.515625 C 119.5 205.832031 118.453125 206.039062 117.300781 206.039062 Z M 134.886719 206.039062 C 127.246094 206.039062 122.117188 201.234375 122.117188 193.398438 C 122.117188 185.566406 127.140625 180.445312 133.945312 180.445312 C 140.75 180.445312 144.9375 185.355469 144.9375 192.667969 L 144.9375 195.382812 L 129.234375 195.382812 C 130.070312 199.144531 133.109375 200.191406 136.039062 200.191406 C 138.96875 200.191406 140.539062 199.667969 142.84375 198.203125 L 143.15625 198.203125 L 143.15625 203.847656 C 141.167969 205.414062 138.34375 206.039062 134.886719 206.039062 Z M 129.234375 190.476562 L 138.132812 190.476562 C 137.921875 187.96875 136.875 186.191406 133.945312 186.191406 C 131.015625 186.191406 129.863281 187.132812 129.234375 190.476562 Z M 174.773438 181.074219 L 180.21875 181.074219 L 180.21875 186.921875 L 174.773438 186.921875 L 174.773438 196.847656 C 174.773438 199.039062 175.609375 199.980469 177.808594 199.980469 C 180.007812 199.980469 179.171875 199.875 180.007812 199.667969 L 180.21875 199.667969 L 180.21875 205.414062 C 179.273438 205.726562 177.808594 206.144531 175.714844 206.144531 C 169.851562 206.144531 167.445312 203.429688 167.445312 197.265625 L 167.445312 186.921875 L 158.128906 186.921875 L 158.128906 196.847656 C 158.128906 199.039062 158.964844 199.980469 161.164062 199.980469 C 163.363281 199.980469 162.523438 199.875 163.363281 199.667969 L 163.570312 199.667969 L 163.570312 205.414062 C 162.628906 205.726562 161.164062 206.144531 159.070312 206.144531 C 153.207031 206.144531 150.800781 203.429688 150.800781 197.265625 L 150.800781 186.921875 L 147.03125 186.921875 L 147.03125 181.074219 L 150.800781 181.074219 L 150.800781 174.386719 L 158.128906 174.386719 L 158.128906 181.074219 L 167.445312 181.074219 L 167.445312 174.386719 L 174.773438 174.386719 Z M 218.007812 182.746094 C 218.007812 190.265625 212.984375 194.339844 205.34375 194.339844 L 200.003906 194.339844 L 200.003906 205.515625 L 192.464844 205.515625 L 192.464844 171.148438 L 205.34375 171.148438 C 212.984375 171.148438 218.007812 175.222656 218.007812 182.746094 Z M 204.714844 188.070312 C 208.484375 188.070312 210.367188 185.878906 210.367188 182.847656 C 210.367188 179.820312 208.585938 177.519531 204.714844 177.519531 L 200.003906 177.519531 L 200.003906 188.070312 Z M 234.234375 203.113281 C 232.664062 204.996094 230.257812 205.933594 227.746094 205.933594 C 222.929688 205.933594 219.054688 203.011719 219.054688 197.890625 C 219.054688 192.773438 222.929688 189.953125 228.582031 189.953125 C 234.234375 189.953125 232.140625 190.265625 234.027344 190.789062 L 234.027344 190.371094 C 234.027344 187.757812 232.558594 186.609375 228.582031 186.609375 C 224.605469 186.609375 223.765625 187.339844 221.671875 188.488281 L 221.359375 188.488281 L 221.359375 182.640625 C 223.242188 181.492188 226.59375 180.550781 229.839844 180.550781 C 237.269531 180.550781 241.25 184.101562 241.25 190.265625 L 241.25 205.621094 L 234.234375 205.621094 Z M 234.027344 197.789062 L 234.027344 195.699219 C 232.875 195.070312 231.511719 194.863281 230.046875 194.863281 C 227.640625 194.863281 226.277344 195.699219 226.277344 197.683594 C 226.277344 199.667969 227.746094 200.609375 229.839844 200.609375 C 231.828125 200.710938 233.292969 199.667969 234.027344 197.789062 Z M 245.019531 193.296875 C 245.019531 185.460938 250.566406 180.445312 257.894531 180.445312 C 265.222656 180.445312 262.917969 180.96875 264.699219 182.328125 L 264.699219 188.59375 L 264.386719 188.59375 C 262.816406 187.339844 260.929688 186.714844 258.730469 186.714844 C 255.066406 186.714844 252.347656 189.222656 252.347656 193.398438 C 252.347656 197.578125 255.066406 199.980469 258.730469 199.980469 C 262.394531 199.980469 262.710938 199.25 264.386719 198.101562 L 264.699219 198.101562 L 264.699219 204.367188 C 262.917969 205.726562 260.40625 206.25 257.894531 206.25 C 250.566406 206.039062 245.019531 201.234375 245.019531 193.296875 Z M 276.527344 194.445312 L 276.527344 205.515625 L 269.199219 205.515625 L 269.199219 171.148438 L 276.527344 171.148438 L 276.527344 190.789062 L 283.855469 181.074219 L 292.128906 181.074219 L 292.128906 181.386719 L 283.332031 192.460938 L 292.128906 205.308594 L 292.128906 205.621094 L 283.753906 205.621094 Z M 308.667969 203.113281 C 307.097656 204.996094 304.691406 205.933594 302.175781 205.933594 C 297.363281 205.933594 293.488281 203.011719 293.488281 197.890625 C 293.488281 192.773438 297.363281 189.953125 303.015625 189.953125 C 308.667969 189.953125 306.574219 190.265625 308.457031 190.789062 L 308.457031 190.371094 C 308.457031 187.757812 306.992188 186.609375 303.015625 186.609375 C 299.035156 186.609375 298.199219 187.339844 296.105469 188.488281 L 295.792969 188.488281 L 295.792969 182.640625 C 297.675781 181.492188 301.027344 180.550781 304.269531 180.550781 C 311.703125 180.550781 315.683594 184.101562 315.683594 190.265625 L 315.683594 205.621094 L 308.667969 205.621094 Z M 308.457031 197.789062 L 308.457031 195.699219 C 307.308594 195.070312 305.945312 194.863281 304.480469 194.863281 C 302.074219 194.863281 300.710938 195.699219 300.710938 197.683594 C 300.710938 199.667969 302.175781 200.609375 304.269531 200.609375 C 306.261719 200.710938 307.832031 199.667969 308.457031 197.789062 Z M 328.035156 185.042969 C 329.394531 182.328125 331.28125 180.757812 334 180.757812 C 336.722656 180.757812 335.992188 180.96875 336.410156 181.175781 L 336.410156 188.070312 L 336.09375 188.070312 C 335.257812 187.757812 334.316406 187.550781 332.851562 187.550781 C 330.546875 187.550781 328.871094 188.90625 328.242188 191.414062 L 328.242188 205.515625 L 320.917969 205.515625 L 320.917969 180.96875 L 327.929688 180.96875 L 327.929688 185.042969 Z M 355.882812 203.011719 C 354.3125 204.996094 351.902344 206.144531 348.554688 206.144531 C 342.273438 206.144531 338.1875 200.398438 338.1875 193.398438 C 338.1875 186.402344 342.167969 180.550781 348.554688 180.550781 C 354.9375 180.550781 354.101562 181.492188 355.566406 183.371094 L 355.566406 171.253906 L 362.894531 171.253906 L 362.894531 205.621094 L 355.882812 205.621094 Z M 355.671875 197.265625 L 355.671875 189.429688 C 354.414062 187.652344 352.84375 186.921875 351.066406 186.921875 C 347.820312 186.921875 345.726562 189.222656 345.726562 193.398438 C 345.726562 197.578125 347.925781 199.875 351.066406 199.875 C 352.84375 199.773438 354.414062 198.9375 355.671875 197.265625 Z M 12.089844 216.800781 L 33.339844 216.800781 L 33.339844 220.976562 L 16.90625 220.976562 L 16.90625 231.527344 L 31.875 231.527344 L 31.875 235.601562 L 16.90625 235.601562 L 16.90625 247.09375 L 33.445312 247.09375 L 33.445312 251.273438 L 12.089844 251.273438 Z M 51.035156 226.410156 C 56.476562 226.410156 59.511719 229.960938 59.511719 235.917969 L 59.511719 251.167969 L 54.90625 251.167969 L 54.90625 236.019531 C 54.90625 232.886719 53.335938 230.589844 49.882812 230.589844 C 46.425781 230.589844 44.542969 232.363281 43.707031 234.976562 L 43.707031 251.0625 L 39.097656 251.0625 L 39.097656 226.828125 L 43.707031 226.828125 L 43.707031 230.378906 C 45.171875 228.1875 47.578125 226.410156 51.035156 226.410156 Z M 71.761719 226.933594 L 78.042969 226.933594 L 78.042969 230.796875 L 71.761719 230.796875 L 71.761719 243.855469 C 71.761719 246.570312 73.226562 247.511719 75.738281 247.511719 C 78.253906 247.511719 77.207031 247.40625 77.730469 247.199219 L 77.9375 247.199219 L 77.9375 251.0625 C 77.308594 251.378906 76.367188 251.585938 75.113281 251.585938 C 69.457031 251.585938 67.15625 248.976562 67.15625 244.273438 L 67.15625 230.902344 L 62.96875 230.902344 L 62.96875 227.039062 L 67.15625 227.039062 L 67.15625 220.558594 L 71.761719 220.558594 C 71.761719 220.558594 71.761719 226.933594 71.761719 226.933594 Z M 92.90625 251.691406 C 85.789062 251.691406 80.972656 246.988281 80.972656 239.363281 C 80.972656 231.738281 85.476562 226.515625 92.070312 226.515625 C 98.664062 226.515625 102.226562 231.320312 102.226562 238.421875 L 102.226562 240.511719 L 85.582031 240.511719 C 86.105469 245.421875 89.242188 247.824219 93.535156 247.824219 C 97.828125 247.824219 98.140625 247.199219 100.339844 245.632812 L 100.550781 245.632812 L 100.550781 249.707031 C 98.457031 251.0625 95.945312 251.691406 92.90625 251.691406 Z M 85.683594 236.648438 L 97.722656 236.648438 C 97.515625 233.097656 95.839844 230.277344 92.070312 230.277344 C 88.617188 230.378906 86.3125 232.992188 85.683594 236.648438 Z M 112.171875 230.695312 C 113.21875 228.082031 115.519531 226.515625 118.136719 226.515625 C 120.753906 226.515625 120.125 226.722656 120.546875 226.933594 L 120.546875 231.425781 L 120.441406 231.425781 C 119.8125 231.109375 118.660156 230.902344 117.613281 230.902344 C 115.101562 230.902344 113.007812 232.574219 112.273438 235.289062 L 112.273438 251.0625 L 107.667969 251.0625 L 107.667969 226.828125 L 112.273438 226.828125 L 112.273438 230.695312 Z M 136.144531 226.410156 C 143.367188 226.410156 147.242188 232.261719 147.242188 239.050781 C 147.242188 245.839844 143.367188 251.691406 136.144531 251.691406 C 128.921875 251.691406 130.59375 250.125 129.339844 248.453125 L 129.339844 260.464844 L 124.734375 260.464844 L 124.734375 226.933594 L 129.339844 226.933594 L 129.339844 229.648438 C 130.59375 227.976562 133.109375 226.410156 136.144531 226.410156 Z M 135.304688 247.511719 C 139.808594 247.511719 142.53125 243.960938 142.53125 239.050781 C 142.53125 234.140625 139.914062 230.589844 135.304688 230.589844 C 130.699219 230.589844 130.492188 232.050781 129.339844 234.453125 L 129.339844 243.75 C 130.59375 246.152344 132.898438 247.511719 135.304688 247.511719 Z M 157.1875 230.695312 C 158.234375 228.082031 160.535156 226.515625 163.152344 226.515625 C 165.769531 226.515625 165.140625 226.722656 165.5625 226.933594 L 165.5625 231.425781 L 165.457031 231.425781 C 164.828125 231.109375 163.675781 230.902344 162.628906 230.902344 C 160.117188 230.902344 158.023438 232.574219 157.289062 235.289062 L 157.289062 251.0625 L 152.683594 251.0625 L 152.683594 226.828125 L 157.289062 226.828125 L 157.289062 230.695312 Z M 172.261719 217.113281 C 173.832031 217.113281 175.191406 218.367188 175.191406 219.933594 C 175.191406 221.5 173.832031 222.753906 172.261719 222.753906 C 170.691406 222.753906 169.328125 221.5 169.328125 219.933594 C 169.328125 218.367188 170.691406 217.113281 172.261719 217.113281 Z M 169.957031 226.933594 L 174.5625 226.933594 L 174.5625 251.167969 L 169.957031 251.167969 Z M 190.894531 237.066406 C 194.351562 238.214844 198.222656 239.574219 198.222656 244.273438 C 198.222656 248.976562 194.140625 251.796875 188.90625 251.796875 C 183.671875 251.796875 182.519531 251.0625 180.636719 249.601562 L 180.636719 245.214844 L 180.84375 245.214844 C 182.9375 247.09375 185.871094 247.929688 188.800781 247.929688 C 191.734375 247.929688 193.722656 246.988281 193.722656 244.796875 C 193.722656 242.601562 191.835938 242.183594 187.964844 240.929688 C 184.507812 239.78125 180.742188 238.527344 180.742188 234.035156 C 180.742188 229.542969 184.613281 226.621094 189.535156 226.621094 C 194.453125 226.621094 194.976562 227.246094 196.96875 228.605469 L 196.96875 232.992188 L 196.863281 232.992188 C 194.875 231.425781 192.570312 230.484375 189.640625 230.484375 C 186.707031 230.484375 185.136719 231.738281 185.136719 233.410156 C 185.136719 235.082031 186.917969 235.8125 190.894531 237.066406 Z M 214.136719 251.691406 C 207.015625 251.691406 202.203125 246.988281 202.203125 239.363281 C 202.203125 231.738281 206.703125 226.515625 213.296875 226.515625 C 219.894531 226.515625 223.453125 231.320312 223.453125 238.421875 L 223.453125 240.511719 L 206.808594 240.511719 C 207.332031 245.421875 210.472656 247.824219 214.761719 247.824219 C 219.054688 247.824219 219.371094 247.199219 221.566406 245.632812 L 221.777344 245.632812 L 221.777344 249.707031 C 219.683594 251.0625 217.171875 251.691406 214.136719 251.691406 Z M 206.914062 236.648438 L 218.949219 236.648438 C 218.742188 233.097656 217.066406 230.277344 213.296875 230.277344 C 209.84375 230.378906 207.539062 232.992188 206.914062 236.648438 Z M 206.914062 236.648438 " fill-opacity="1" fill-rule="nonzero"/></g></svg>