<svg xmlns="http://www.w3.org/2000/svg" xmlns:xlink="http://www.w3.org/1999/xlink" width="500" zoomAndPan="magnify" viewBox="0 0 375 374.999991" height="500" preserveAspectRatio="xMidYMid meet" version="1.0"><defs><clipPath id="c7086aea3a"><path d="M 8.964844 164.289062 L 365.964844 164.289062 L 365.964844 210.789062 L 8.964844 210.789062 Z M 8.964844 164.289062 " clip-rule="nonzero"/></clipPath></defs><g clip-path="url(#c7086aea3a)"><path fill="#c74634" d="M 163.414062 194.515625 L 186.921875 194.515625 L 174.472656 174.367188 L 151.578125 210.710938 L 141.214844 210.710938 L 169.058594 167.082031 C 171.144531 164.0625 175.324219 163.363281 178.261719 165.457031 C 178.878906 165.921875 179.421875 166.386719 179.886719 167.003906 L 207.804688 210.710938 L 197.441406 210.710938 L 192.570312 202.574219 L 168.75 202.574219 L 163.414062 194.515625 M 271.535156 202.652344 L 271.535156 164.757812 L 262.714844 164.757812 L 262.714844 206.371094 C 262.714844 207.53125 263.179688 208.695312 264.03125 209.46875 C 264.882812 210.320312 266.042969 210.789062 267.28125 210.789062 L 307.417969 210.789062 L 312.679688 202.652344 L 271.535156 202.652344 M 125.4375 195.832031 C 134.023438 195.832031 140.984375 188.859375 140.984375 180.257812 C 140.984375 171.65625 134.023438 164.679688 125.4375 164.679688 L 86.847656 164.679688 L 86.847656 210.710938 L 95.585938 210.710938 L 95.585938 172.894531 L 124.820312 172.894531 C 128.917969 172.894531 132.246094 176.226562 132.246094 180.332031 C 132.246094 184.441406 128.917969 187.773438 124.820312 187.773438 L 99.917969 187.773438 L 126.289062 210.710938 L 139.128906 210.710938 L 121.417969 195.832031 L 125.4375 195.832031 M 32.554688 210.710938 L 59.234375 210.710938 C 71.917969 210.398438 81.894531 199.785156 81.585938 187.152344 C 81.277344 174.910156 71.378906 165.070312 59.234375 164.757812 L 32.554688 164.757812 C 19.871094 164.449219 9.273438 174.445312 8.964844 187.152344 C 8.65625 199.859375 18.632812 210.398438 31.316406 210.710938 C 31.703125 210.789062 32.089844 210.789062 32.554688 210.710938 M 58.617188 202.652344 L 33.09375 202.652344 C 24.898438 202.417969 18.476562 195.523438 18.710938 187.308594 C 18.941406 179.480469 25.285156 173.128906 33.09375 172.894531 L 58.617188 172.894531 C 66.816406 172.664062 73.699219 179.09375 73.929688 187.308594 C 74.164062 195.523438 67.742188 202.417969 59.546875 202.652344 C 59.234375 202.652344 58.925781 202.652344 58.617188 202.652344 M 226.210938 210.710938 L 253.4375 210.710938 L 258.617188 202.652344 L 226.832031 202.652344 C 218.632812 202.882812 211.75 196.453125 211.519531 188.238281 C 211.285156 180.023438 217.703125 173.128906 225.902344 172.894531 C 226.210938 172.894531 226.523438 172.894531 226.832031 172.894531 L 252.738281 172.894531 L 258 164.757812 L 226.289062 164.757812 C 213.605469 164.449219 203.085938 174.445312 202.777344 187.152344 C 202.46875 199.859375 212.445312 210.398438 225.128906 210.710938 C 225.4375 210.789062 225.824219 210.789062 226.210938 210.710938 M 334.179688 202.652344 C 327.527344 202.652344 321.648438 198.234375 319.871094 191.800781 L 357.613281 191.800781 L 362.792969 183.664062 L 319.871094 183.664062 C 321.648438 177.234375 327.527344 172.816406 334.179688 172.816406 L 360.085938 172.816406 L 365.269531 164.679688 L 333.558594 164.679688 C 320.875 165.070312 310.898438 175.605469 311.207031 188.316406 C 311.519531 200.558594 321.339844 210.398438 333.558594 210.710938 L 360.785156 210.710938 L 365.964844 202.652344 L 334.179688 202.652344 " fill-opacity="1" fill-rule="nonzero"/></g></svg>