<svg xmlns="http://www.w3.org/2000/svg" xmlns:xlink="http://www.w3.org/1999/xlink" width="500" zoomAndPan="magnify" viewBox="0 0 375 374.999991" height="500" preserveAspectRatio="xMidYMid meet" version="1.0"><defs><clipPath id="97719aba1a"><path d="M 12 167.378906 L 363 167.378906 L 363 207.878906 L 12 207.878906 Z M 12 167.378906 " clip-rule="nonzero"/></clipPath><clipPath id="f6fcdac5b5"><path d="M 59 167.378906 L 117 167.378906 L 117 207.878906 L 59 207.878906 Z M 59 167.378906 " clip-rule="nonzero"/></clipPath></defs><g clip-path="url(#97719aba1a)"><path fill="#231f20" d="M 12.34375 207.496094 L 12.34375 167.886719 L 55.710938 167.886719 L 55.710938 176.6875 L 21.9375 176.6875 L 21.9375 183.386719 L 51.027344 183.386719 L 51.027344 191.933594 L 21.9375 191.933594 L 21.9375 207.460938 C 21.9375 207.496094 12.34375 207.496094 12.34375 207.496094 Z M 157.453125 207.496094 L 157.453125 194.003906 C 157.453125 192.824219 156.441406 192.28125 156.441406 192.28125 C 155.996094 191.996094 154.636719 191.933594 152.609375 191.933594 L 153.050781 191.933594 L 132.824219 191.933594 L 132.824219 207.527344 L 123.234375 207.527344 L 123.234375 167.886719 L 153.148438 167.886719 C 158.339844 167.886719 161.882812 168.683594 164.320312 171.078125 C 166.757812 173.5625 167.042969 176.816406 167.074219 180.164062 L 167.074219 183.003906 C 167.140625 185.839844 165.621094 188.457031 163.816406 189.988281 L 164.164062 190.144531 C 164.890625 190.496094 165.304688 191.007812 165.304688 191.007812 C 166.664062 192.761719 166.664062 194.261719 166.664062 196.140625 L 166.664062 207.460938 L 157.453125 207.460938 Z M 152.261719 183.417969 C 154.636719 183.417969 155.996094 183.417969 156.566406 183.066406 C 156.566406 183.066406 157.515625 182.492188 157.578125 181.34375 L 157.578125 178.730469 C 157.578125 177.550781 156.566406 177.007812 156.566406 177.007812 C 155.839844 176.625 154.539062 176.65625 151.53125 176.65625 L 132.855469 176.65625 L 132.855469 183.355469 L 152.671875 183.355469 L 152.261719 183.355469 Z M 181.164062 207.496094 L 181.164062 176.722656 L 172.140625 176.722656 L 172.140625 167.886719 L 208.164062 167.886719 L 208.164062 176.6875 L 190.785156 176.6875 L 190.785156 207.460938 C 190.785156 207.496094 181.164062 207.496094 181.164062 207.496094 Z M 183.664062 174.203125 L 183.664062 172.894531 C 183.664062 172.894531 183.664062 174.203125 183.664062 174.203125 Z M 332.824219 207.496094 L 332.824219 176.722656 L 323.800781 176.722656 L 323.800781 167.886719 L 359.824219 167.886719 L 359.824219 176.6875 L 342.445312 176.6875 L 342.445312 207.460938 C 342.445312 207.496094 332.824219 207.496094 332.824219 207.496094 Z M 212.914062 207.496094 L 212.914062 167.886719 L 222.503906 167.886719 L 222.503906 207.460938 L 212.914062 207.460938 Z M 280.308594 207.496094 L 280.308594 167.886719 L 318.988281 167.886719 L 318.988281 176.6875 L 289.898438 176.6875 L 289.898438 183.386719 L 310.125 183.386719 L 310.125 191.933594 L 289.898438 191.933594 L 289.898438 198.628906 L 319.210938 198.628906 L 319.210938 207.429688 C 319.210938 207.496094 280.308594 207.496094 280.308594 207.496094 Z M 239.34375 207.496094 L 229.691406 207.496094 L 229.691406 167.886719 L 260.679688 167.886719 C 260.679688 167.886719 266.378906 167.664062 269.957031 171.234375 C 269.957031 171.234375 273.628906 174.359375 273.628906 181.917969 L 273.628906 207.460938 L 264.003906 207.460938 L 264.003906 181.3125 C 264.003906 181.3125 264.132812 178.632812 263.214844 177.742188 C 263.214844 177.742188 262.421875 176.722656 260.902344 176.722656 L 239.34375 176.722656 Z M 357.578125 207.429688 C 354.917969 207.429688 352.828125 205.261719 352.828125 202.648438 C 352.828125 200.03125 354.980469 197.863281 357.578125 197.863281 C 360.171875 197.863281 362.328125 200.03125 362.328125 202.648438 C 362.292969 205.324219 360.207031 207.429688 357.578125 207.429688 Z M 357.578125 198.4375 C 355.265625 198.4375 353.398438 200.320312 353.398438 202.710938 C 353.398438 205.039062 355.265625 206.921875 357.578125 206.921875 C 359.890625 206.921875 361.757812 205.039062 361.757812 202.710938 C 361.789062 200.320312 359.890625 198.4375 357.578125 198.4375 Z M 355.804688 199.839844 L 358.117188 199.839844 C 358.90625 199.839844 359.699219 200 359.824219 201.210938 C 359.824219 201.882812 359.667969 202.136719 359.160156 202.519531 C 359.730469 202.871094 359.730469 202.964844 359.792969 203.890625 C 359.855469 204.558594 359.730469 204.6875 360.015625 205.132812 L 359.222656 205.132812 L 359.097656 204.464844 C 358.972656 203.828125 359.253906 202.871094 358.179688 202.871094 L 356.46875 202.871094 L 356.46875 205.132812 L 355.804688 205.132812 Z M 356.5 200.480469 L 356.5 202.296875 L 358.210938 202.296875 C 358.652344 202.296875 359.128906 202.167969 359.160156 201.5 C 359.289062 200.574219 358.589844 200.480469 358.210938 200.480469 Z M 356.5 200.480469 " fill-opacity="1" fill-rule="nonzero"/></g><g clip-path="url(#f6fcdac5b5)"><path fill="#ee3124" d="M 59.953125 182.398438 L 75.875 182.398438 L 75.875 192.921875 L 59.953125 192.921875 Z M 80.277344 167.441406 L 95.914062 167.441406 L 95.914062 177.964844 L 80.277344 177.964844 Z M 80.277344 197.289062 L 95.914062 197.289062 L 95.914062 207.8125 L 80.277344 207.8125 Z M 100.25 182.398438 L 116.238281 182.398438 L 116.238281 192.921875 L 100.25 192.921875 Z M 66.507812 167.441406 C 63.183594 168.300781 60.585938 172.03125 59.953125 176.816406 L 59.953125 177.996094 L 75.875 177.996094 L 75.875 167.441406 Z M 59.953125 197.289062 L 59.953125 198.597656 C 60.523438 203.15625 62.960938 206.792969 66.09375 207.8125 L 75.910156 207.8125 L 75.910156 197.289062 Z M 116.238281 177.964844 L 116.238281 176.785156 C 115.605469 172.03125 113.007812 168.300781 109.683594 167.378906 L 100.25 167.378906 L 100.25 177.902344 L 116.238281 177.902344 Z M 110.097656 207.878906 C 113.199219 206.792969 115.636719 203.222656 116.238281 198.660156 L 116.238281 197.351562 L 100.25 197.351562 L 100.25 207.878906 Z M 110.097656 207.878906 " fill-opacity="1" fill-rule="nonzero"/></g></svg>