<svg xmlns="http://www.w3.org/2000/svg" xmlns:xlink="http://www.w3.org/1999/xlink" width="500" zoomAndPan="magnify" viewBox="0 0 375 374.999991" height="500" preserveAspectRatio="xMidYMid meet" version="1.0"><defs><clipPath id="29e273f936"><path d="M 11.109375 166 L 72 166 L 72 243.285156 L 11.109375 243.285156 Z M 11.109375 166 " clip-rule="nonzero"/></clipPath><clipPath id="44d644ec14"><path d="M 79 131.535156 L 108 131.535156 L 108 159 L 79 159 Z M 79 131.535156 " clip-rule="nonzero"/></clipPath><clipPath id="830b43d71f"><path d="M 354 232 L 363.675781 232 L 363.675781 242 L 354 242 Z M 354 232 " clip-rule="nonzero"/></clipPath></defs><g clip-path="url(#29e273f936)"><path fill="#d22027" d="M 50.332031 243.292969 C 56.523438 243.292969 66.15625 242.039062 71.773438 239.210938 L 71.773438 219.652344 C 66.910156 221.523438 61.25 222.328125 56.75 222.328125 C 47.519531 222.328125 36.660156 216.914062 36.660156 205.425781 C 36.660156 192.296875 46.957031 187.335938 57.160156 187.335938 C 62.074219 187.335938 67.578125 188.824219 71.773438 190.039062 L 71.773438 169.328125 C 65.980469 167.582031 57.851562 166.152344 52.347656 166.152344 C 29.617188 166.152344 11.109375 179.992188 11.109375 204.945312 C 11.109375 230.324219 28.988281 243.292969 50.332031 243.292969 " fill-opacity="1" fill-rule="nonzero"/></g><path fill="#d22027" d="M 299.566406 242.773438 C 309.25 242.773438 316.207031 239.105469 321.261719 233.507812 L 321.261719 241.144531 L 346.316406 241.144531 L 346.316406 198.761719 C 346.316406 188.40625 344.578125 180.773438 338.988281 175.308594 C 333.117188 169.453125 324.109375 166.296875 310.882812 166.328125 C 300.128906 166.347656 290.160156 169.03125 280.585938 172.183594 L 280.585938 190.789062 C 288.867188 187.703125 298.886719 186.222656 306.652344 186.222656 C 316.613281 186.222656 321.390625 190.59375 321.390625 198.222656 L 321.390625 199.429688 C 317.160156 197.945312 310.476562 196.566406 303.65625 196.566406 C 286.339844 196.566406 274.730469 204.472656 274.730469 219.742188 L 274.730469 220.011719 C 274.722656 234.726562 285.515625 242.773438 299.566406 242.773438 M 299.699219 218.238281 C 299.699219 212.789062 304.066406 209.113281 311.554688 209.113281 C 315.375 209.113281 318.824219 210.21875 321.660156 211.441406 C 321.660156 220.898438 316.34375 226.550781 308.835938 226.550781 C 303.519531 226.550781 299.699219 223.550781 299.699219 218.507812 Z M 299.699219 218.238281 " fill-opacity="1" fill-rule="nonzero"/><path fill="#d22027" d="M 221.519531 201.300781 C 221.519531 192.976562 226.371094 188.320312 232.996094 188.320312 C 239.53125 188.320312 243.941406 193.019531 243.941406 201.300781 L 243.941406 241.113281 L 268.714844 241.113281 L 268.714844 192.992188 C 268.714844 176.488281 259.503906 166.4375 244.183594 166.4375 C 233.929688 166.4375 227.257812 172.148438 222.546875 178.210938 L 221.511719 179.519531 L 221.511719 168.410156 L 196.742188 168.410156 L 196.742188 241.113281 L 221.511719 241.113281 L 221.511719 201.300781 Z M 221.519531 201.300781 " fill-opacity="1" fill-rule="nonzero"/><path fill="#d22027" d="M 100.394531 241.601562 C 110.566406 243.421875 120.535156 241.375 133.835938 235.382812 C 140.199219 239.925781 148.601562 242.90625 157.949219 242.90625 C 170.863281 242.90625 181.414062 237.261719 189.230469 232.03125 L 189.230469 217.613281 C 179.519531 223.855469 165.320312 228.429688 156.511719 222 C 165.503906 215.753906 174.050781 208.257812 179.699219 199.261719 C 188.699219 184.902344 182.820312 163.976562 158.058594 163.976562 C 136.242188 163.976562 119.71875 183.054688 119.367188 204.390625 C 119.257812 211.085938 120.664062 217.410156 123.195312 222.65625 C 108.777344 226.863281 106 219.921875 105.503906 206.910156 C 104.921875 191.269531 104.804688 169.101562 104.804688 169.101562 L 81.753906 169.101562 L 81.753906 214.625 C 81.753906 224.046875 84.058594 238.6875 100.394531 241.601562 M 156.738281 184.890625 C 164.320312 183.105469 171.066406 189.464844 162.617188 200.1875 C 159.179688 204.550781 154.148438 208.738281 148.171875 212.617188 C 139.777344 197.265625 150.101562 186.457031 156.738281 184.890625 " fill-opacity="1" fill-rule="nonzero"/><g clip-path="url(#44d644ec14)"><path fill="#d22027" d="M 79.808594 145.238281 C 79.808594 152.820312 85.949219 158.949219 93.523438 158.949219 C 101.101562 158.949219 107.242188 152.820312 107.242188 145.238281 C 107.242188 137.675781 101.101562 131.535156 93.523438 131.535156 C 85.949219 131.535156 79.808594 137.675781 79.808594 145.238281 " fill-opacity="1" fill-rule="nonzero"/></g><g clip-path="url(#830b43d71f)"><path fill="#d22027" d="M 359.128906 241.144531 C 361.605469 241.144531 363.683594 239.191406 363.683594 236.589844 C 363.683594 234.039062 361.605469 232.109375 359.128906 232.109375 C 356.625 232.109375 354.570312 234.046875 354.570312 236.648438 C 354.570312 239.191406 356.625 241.144531 359.128906 241.144531 M 359.128906 232.757812 C 361.257812 232.757812 362.949219 234.417969 362.949219 236.589844 C 362.949219 238.820312 361.257812 240.472656 359.128906 240.472656 C 357.003906 240.472656 355.292969 238.8125 355.292969 236.648438 C 355.285156 234.414062 357.003906 232.757812 359.128906 232.757812 " fill-opacity="1" fill-rule="nonzero"/></g><path fill="#d22027" d="M 358.164062 237.019531 L 359.097656 237.019531 L 360.535156 239.277344 L 361.308594 239.277344 L 359.820312 236.960938 C 360.585938 236.875 361.191406 236.472656 361.191406 235.546875 C 361.191406 234.492188 360.601562 234.039062 359.347656 234.039062 L 357.429688 234.039062 L 357.429688 239.285156 L 358.15625 239.285156 L 358.15625 237.019531 Z M 358.164062 234.683594 L 359.289062 234.683594 C 359.855469 234.683594 360.484375 234.777344 360.484375 235.496094 C 360.484375 236.320312 359.785156 236.351562 359.0625 236.351562 L 358.164062 236.351562 Z M 358.164062 234.683594 " fill-opacity="1" fill-rule="nonzero"/></svg>