<svg xmlns="http://www.w3.org/2000/svg" xmlns:xlink="http://www.w3.org/1999/xlink" width="500" zoomAndPan="magnify" viewBox="0 0 375 374.999991" height="500" preserveAspectRatio="xMidYMid meet" version="1.0"><defs><clipPath id="9c737eeb26"><path d="M 12.121094 149.5 L 91 149.5 L 91 225.25 L 12.121094 225.25 Z M 12.121094 149.5 " clip-rule="nonzero"/></clipPath></defs><path fill="#424242" d="M 243.957031 173.824219 C 245.773438 172.738281 247.742188 172.226562 249.855469 172.289062 C 251.597656 172.34375 253.269531 172.714844 254.871094 173.394531 C 256.554688 174.003906 258.015625 174.949219 259.25 176.238281 L 262.949219 171.40625 C 261.121094 169.847656 259.0625 168.679688 256.785156 167.90625 C 254.457031 167.035156 252.054688 166.597656 249.570312 166.597656 C 246.324219 166.539062 243.269531 167.269531 240.402344 168.785156 C 237.621094 170.203125 235.4375 172.25 233.847656 174.929688 C 233.058594 176.253906 232.460938 177.660156 232.050781 179.148438 C 231.644531 180.636719 231.441406 182.148438 231.441406 183.691406 C 231.441406 185.230469 231.644531 186.746094 232.050781 188.234375 C 232.460938 189.71875 233.058594 191.125 233.847656 192.453125 C 234.628906 193.796875 235.574219 195.019531 236.679688 196.113281 C 237.789062 197.210938 239.019531 198.140625 240.375 198.914062 C 241.730469 199.683594 243.164062 200.261719 244.675781 200.652344 C 246.1875 201.042969 247.722656 201.230469 249.28125 201.214844 C 251.691406 201.214844 254.023438 200.777344 256.269531 199.90625 C 258.519531 199.109375 260.601562 198.003906 262.519531 196.589844 L 262.519531 183.894531 L 256.847656 183.894531 L 256.847656 193.109375 C 255.664062 193.765625 254.425781 194.277344 253.125 194.644531 C 251.539062 195.203125 249.90625 195.40625 248.230469 195.25 C 246.554688 195.097656 244.984375 194.601562 243.527344 193.761719 C 241.824219 192.730469 240.453125 191.363281 239.414062 189.667969 C 238.34375 187.839844 237.835938 185.867188 237.894531 183.753906 C 237.8125 181.699219 238.320312 179.800781 239.414062 178.0625 C 240.65625 176.359375 242.171875 174.945312 243.957031 173.824219 Z M 243.957031 173.824219 " fill-opacity="1" fill-rule="nonzero"/><path fill="#424242" d="M 359.699219 177.324219 C 358.769531 176.414062 357.699219 175.730469 356.484375 175.273438 C 355.265625 174.816406 354.007812 174.628906 352.710938 174.703125 C 351.769531 174.628906 350.835938 174.695312 349.914062 174.902344 C 348.996094 175.109375 348.125 175.449219 347.308594 175.917969 C 346.488281 176.386719 345.757812 176.96875 345.117188 177.65625 C 344.476562 178.347656 343.949219 179.117188 343.542969 179.964844 L 343.542969 165.058594 L 337.210938 165.058594 L 337.210938 200.785156 L 343.542969 200.785156 L 343.542969 188.070312 C 343.511719 187.121094 343.644531 186.191406 343.945312 185.285156 C 344.246094 184.382812 344.695312 183.558594 345.289062 182.808594 C 345.929688 182.109375 346.6875 181.566406 347.5625 181.183594 C 348.4375 180.800781 349.351562 180.613281 350.304688 180.621094 C 350.652344 180.59375 351 180.601562 351.34375 180.640625 C 351.691406 180.683594 352.03125 180.757812 352.359375 180.867188 C 352.691406 180.976562 353.007812 181.113281 353.3125 181.285156 C 353.617188 181.457031 353.902344 181.652344 354.164062 181.878906 C 354.429688 182.105469 354.667969 182.355469 354.882812 182.628906 C 355.097656 182.902344 355.285156 183.195312 355.441406 183.503906 C 355.601562 183.816406 355.726562 184.136719 355.820312 184.472656 C 355.910156 184.804688 355.972656 185.144531 355.996094 185.492188 C 356.019531 185.765625 356.019531 186.039062 355.996094 186.3125 L 355.996094 200.640625 L 362.328125 200.640625 L 362.328125 184.570312 C 362.363281 183.242188 362.152344 181.953125 361.699219 180.699219 C 361.246094 179.449219 360.578125 178.324219 359.699219 177.324219 Z M 359.699219 177.324219 " fill-opacity="1" fill-rule="nonzero"/><path fill="#424242" d="M 327.59375 176.667969 C 325.394531 175.5625 323.066406 175.050781 320.605469 175.132812 C 318.082031 175.074219 315.683594 175.585938 313.410156 176.667969 C 311.375 177.753906 309.769531 179.289062 308.601562 181.273438 C 307.410156 183.386719 306.828125 185.652344 306.851562 188.070312 L 306.851562 209.773438 L 313.183594 209.773438 L 313.183594 199.535156 C 313.246094 199.53125 313.296875 199.546875 313.34375 199.589844 C 313.386719 199.628906 313.410156 199.679688 313.410156 199.742188 C 315.671875 200.886719 318.070312 201.398438 320.605469 201.277344 C 323.070312 201.378906 325.398438 200.867188 327.59375 199.742188 C 329.640625 198.675781 331.246094 197.148438 332.402344 195.15625 C 333.566406 193.039062 334.152344 190.773438 334.148438 188.359375 C 334.175781 185.9375 333.59375 183.671875 332.402344 181.5625 C 331.257812 179.480469 329.65625 177.851562 327.59375 176.667969 Z M 325.640625 193.761719 C 325.296875 194.109375 324.925781 194.414062 324.523438 194.6875 C 324.121094 194.957031 323.695312 195.183594 323.246094 195.371094 C 322.800781 195.558594 322.335938 195.699219 321.863281 195.792969 C 321.386719 195.890625 320.90625 195.9375 320.417969 195.9375 C 319.933594 195.9375 319.453125 195.890625 318.976562 195.792969 C 318.5 195.699219 318.039062 195.558594 317.589844 195.371094 C 317.140625 195.183594 316.714844 194.957031 316.3125 194.6875 C 315.910156 194.414062 315.539062 194.109375 315.199219 193.761719 C 314.503906 192.980469 313.980469 192.097656 313.625 191.113281 C 313.269531 190.128906 313.109375 189.117188 313.144531 188.070312 C 313.109375 187.027344 313.269531 186.015625 313.625 185.03125 C 313.980469 184.046875 314.503906 183.164062 315.199219 182.378906 C 315.539062 182.035156 315.910156 181.730469 316.3125 181.457031 C 316.714844 181.1875 317.140625 180.960938 317.589844 180.773438 C 318.039062 180.585938 318.5 180.445312 318.976562 180.351562 C 319.453125 180.253906 319.933594 180.207031 320.417969 180.207031 C 320.90625 180.207031 321.386719 180.253906 321.863281 180.351562 C 322.335938 180.445312 322.800781 180.585938 323.246094 180.773438 C 323.695312 180.960938 324.121094 181.1875 324.523438 181.457031 C 324.925781 181.730469 325.296875 182.035156 325.640625 182.378906 C 326.316406 183.171875 326.824219 184.058594 327.160156 185.042969 C 327.496094 186.023438 327.640625 187.035156 327.59375 188.070312 C 327.660156 189.113281 327.527344 190.125 327.1875 191.113281 C 326.847656 192.097656 326.332031 192.984375 325.640625 193.761719 Z M 325.640625 193.761719 " fill-opacity="1" fill-rule="nonzero"/><path fill="#424242" d="M 281.738281 174.703125 C 280.785156 174.695312 279.839844 174.78125 278.90625 174.960938 C 277.96875 175.136719 277.058594 175.40625 276.175781 175.761719 C 275.292969 176.117188 274.453125 176.554688 273.660156 177.078125 C 272.863281 177.597656 272.125 178.191406 271.445312 178.855469 C 270.765625 179.519531 270.160156 180.246094 269.621094 181.03125 C 269.085938 181.8125 268.632812 182.640625 268.257812 183.515625 C 267.886719 184.386719 267.601562 185.289062 267.410156 186.21875 C 267.214844 187.148438 267.113281 188.085938 267.101562 189.035156 L 267.101562 200.5625 L 273.269531 200.5625 L 273.269531 189.15625 C 273.265625 188.597656 273.316406 188.042969 273.425781 187.496094 C 273.53125 186.949219 273.691406 186.414062 273.902344 185.898438 C 274.117188 185.378906 274.378906 184.890625 274.6875 184.421875 C 274.996094 183.957031 275.347656 183.527344 275.746094 183.128906 C 276.140625 182.734375 276.570312 182.378906 277.035156 182.066406 C 277.5 181.753906 277.992188 181.492188 278.511719 181.277344 C 279.027344 181.0625 279.5625 180.898438 280.113281 180.789062 C 280.660156 180.675781 281.214844 180.621094 281.777344 180.621094 Z M 281.738281 174.703125 " fill-opacity="1" fill-rule="nonzero"/><path fill="#424242" d="M 300.667969 177.117188 C 299.582031 176.269531 298.378906 175.636719 297.0625 175.222656 C 295.746094 174.804688 294.398438 174.632812 293.019531 174.703125 L 286.277344 174.703125 L 286.277344 179.738281 L 291.746094 179.738281 C 293.363281 179.636719 294.816406 180.070312 296.105469 181.050781 C 296.636719 181.472656 297.042969 181.996094 297.316406 182.621094 C 297.585938 183.242188 297.699219 183.894531 297.644531 184.570312 L 297.644531 185.226562 L 290.226562 185.226562 C 288.929688 185.132812 287.65625 185.277344 286.414062 185.65625 C 285.171875 186.03125 284.035156 186.621094 283.011719 187.417969 C 282.003906 188.242188 281.277344 189.265625 280.832031 190.488281 C 280.558594 191.261719 280.40625 192.0625 280.378906 192.882812 L 280.378906 194.417969 C 280.378906 194.867188 280.605469 195.09375 280.605469 195.523438 C 280.867188 196.019531 281.085938 196.53125 281.265625 197.058594 C 281.824219 197.957031 282.546875 198.683594 283.441406 199.25 C 283.667969 199.25 283.667969 199.476562 283.875 199.476562 C 284.078125 199.476562 284.101562 199.679688 284.328125 199.679688 C 284.511719 199.855469 284.730469 199.929688 284.984375 199.90625 C 286.3125 200.378906 287.683594 200.597656 289.09375 200.5625 L 294.5625 200.5625 C 296.242188 200.539062 297.847656 200.179688 299.371094 199.476562 C 300.660156 198.804688 301.683594 197.851562 302.433594 196.609375 C 303.113281 195.328125 303.476562 193.960938 303.523438 192.515625 L 303.523438 183.300781 C 303.550781 182.105469 303.3125 180.96875 302.8125 179.882812 C 302.308594 178.796875 301.59375 177.875 300.667969 177.117188 Z M 297.378906 191.449219 L 297.378906 192.761719 C 297.394531 193.28125 297.289062 193.773438 297.054688 194.238281 C 296.820312 194.703125 296.492188 195.082031 296.0625 195.382812 C 295.074219 196.050781 293.984375 196.34375 292.792969 196.261719 L 290.617188 196.261719 C 290.085938 196.300781 289.570312 196.222656 289.074219 196.035156 C 288.347656 195.847656 287.664062 195.558594 287.019531 195.175781 L 286.585938 194.726562 L 286.359375 194.5 C 286.078125 193.953125 285.9375 193.375 285.929688 192.761719 L 285.929688 191.878906 C 285.957031 191.347656 286.175781 190.910156 286.585938 190.570312 L 286.792969 190.34375 L 287.019531 190.121094 C 287.203125 189.941406 287.421875 189.871094 287.675781 189.914062 C 287.882812 189.914062 287.882812 189.914062 288.109375 189.6875 C 288.96875 189.480469 289.835938 189.40625 290.71875 189.464844 L 297.273438 189.464844 Z M 297.378906 191.449219 " fill-opacity="1" fill-rule="nonzero"/><path fill="#ff6d00" d="M 114.242188 172.941406 L 124.726562 172.941406 L 124.726562 201.011719 L 131.28125 201.011719 L 131.28125 172.941406 L 141.765625 172.941406 L 141.765625 167.25 L 114.242188 167.25 Z M 114.242188 172.941406 " fill-opacity="1" fill-rule="nonzero"/><path fill="#ff6d00" d="M 145.257812 177.550781 L 151.589844 177.550781 L 151.589844 200.785156 L 145.257812 200.785156 Z M 145.257812 177.550781 " fill-opacity="1" fill-rule="nonzero"/><path fill="#ff6d00" d="M 214.050781 189.15625 L 214.050781 200.5625 L 220.21875 200.5625 L 220.21875 189.15625 C 220.21875 188.597656 220.269531 188.046875 220.378906 187.496094 C 220.484375 186.949219 220.648438 186.417969 220.859375 185.902344 C 221.074219 185.382812 221.335938 184.894531 221.644531 184.429688 C 221.953125 183.964844 222.304688 183.53125 222.703125 183.136719 C 223.097656 182.738281 223.527344 182.386719 223.992188 182.074219 C 224.457031 181.761719 224.945312 181.496094 225.464844 181.28125 C 225.980469 181.066406 226.515625 180.902344 227.0625 180.792969 C 227.613281 180.679688 228.167969 180.621094 228.726562 180.621094 L 228.726562 174.703125 C 227.777344 174.695312 226.832031 174.78125 225.894531 174.957031 C 224.960938 175.132812 224.050781 175.402344 223.167969 175.757812 C 222.285156 176.113281 221.445312 176.550781 220.648438 177.070312 C 219.855469 177.59375 219.117188 178.183594 218.4375 178.851562 C 217.757812 179.515625 217.152344 180.242188 216.617188 181.027344 C 216.082031 181.8125 215.628906 182.640625 215.257812 183.515625 C 214.886719 184.386719 214.605469 185.289062 214.414062 186.21875 C 214.21875 187.148438 214.121094 188.085938 214.113281 189.035156 Z M 214.050781 189.15625 " fill-opacity="1" fill-rule="nonzero"/><path fill="#ff6d00" d="M 168.402344 174.703125 C 167.5625 174.691406 166.730469 174.761719 165.902344 174.914062 C 165.074219 175.0625 164.273438 175.292969 163.488281 175.597656 C 162.707031 175.90625 161.964844 176.28125 161.253906 176.734375 C 160.546875 177.183594 159.890625 177.699219 159.28125 178.277344 C 158.675781 178.855469 158.128906 179.488281 157.644531 180.171875 C 157.160156 180.855469 156.75 181.578125 156.40625 182.34375 C 156.0625 183.109375 155.800781 183.898438 155.609375 184.714844 C 155.421875 185.527344 155.316406 186.355469 155.289062 187.191406 C 155.304688 188.027344 155.398438 188.855469 155.578125 189.671875 C 155.757812 190.488281 156.011719 191.277344 156.347656 192.046875 C 156.683594 192.8125 157.089844 193.539062 157.570312 194.222656 C 158.046875 194.910156 158.589844 195.542969 159.195312 196.125 C 159.796875 196.703125 160.453125 197.21875 161.160156 197.671875 C 161.867188 198.121094 162.609375 198.5 163.390625 198.804688 C 164.171875 199.109375 164.976562 199.335938 165.800781 199.484375 C 166.628906 199.632812 167.460938 199.695312 168.300781 199.679688 L 168.402344 199.679688 C 170.804688 199.671875 173.058594 199.089844 175.164062 197.941406 L 175.164062 198.371094 C 175.203125 199.289062 175.039062 200.167969 174.679688 201.015625 C 174.320312 201.859375 173.796875 202.589844 173.109375 203.203125 C 171.492188 204.421875 169.671875 205.003906 167.640625 204.941406 C 166.207031 204.929688 164.808594 204.699219 163.449219 204.253906 C 162.085938 203.804688 160.828125 203.160156 159.667969 202.320312 L 157.035156 206.925781 C 158.644531 208.039062 160.378906 208.894531 162.242188 209.488281 C 164.105469 210.085938 166.015625 210.398438 167.96875 210.429688 C 170.429688 210.507812 172.761719 209.996094 174.960938 208.894531 C 176.90625 207.9375 178.503906 206.570312 179.75 204.796875 C 180.9375 202.820312 181.503906 200.675781 181.453125 198.371094 L 181.453125 187.191406 C 181.441406 186.355469 181.34375 185.53125 181.167969 184.714844 C 180.992188 183.898438 180.734375 183.105469 180.402344 182.339844 C 180.066406 181.574219 179.660156 180.847656 179.183594 180.160156 C 178.707031 179.472656 178.164062 178.839844 177.5625 178.261719 C 176.957031 177.679688 176.304688 177.164062 175.597656 176.714844 C 174.894531 176.261719 174.148438 175.882812 173.371094 175.578125 C 172.589844 175.273438 171.785156 175.046875 170.960938 174.898438 C 170.132812 174.753906 169.300781 174.6875 168.464844 174.703125 Z M 168.402344 194.644531 C 167.910156 194.664062 167.421875 194.632812 166.933594 194.554688 C 166.449219 194.476562 165.976562 194.355469 165.515625 194.183594 C 165.050781 194.011719 164.613281 193.800781 164.191406 193.542969 C 163.773438 193.285156 163.382812 192.988281 163.023438 192.65625 C 162.664062 192.320312 162.339844 191.957031 162.050781 191.558594 C 161.761719 191.160156 161.515625 190.738281 161.3125 190.292969 C 161.105469 189.847656 160.949219 189.382812 160.835938 188.90625 C 160.722656 188.429688 160.65625 187.945312 160.640625 187.457031 C 160.625 186.964844 160.65625 186.480469 160.734375 185.996094 C 160.8125 185.511719 160.9375 185.039062 161.113281 184.582031 C 161.285156 184.121094 161.5 183.683594 161.761719 183.265625 C 162.019531 182.851562 162.320312 182.464844 162.65625 182.105469 C 162.992188 181.746094 163.359375 181.425781 163.757812 181.140625 C 164.160156 180.855469 164.585938 180.609375 165.03125 180.40625 C 165.480469 180.207031 165.945312 180.050781 166.425781 179.9375 C 166.902344 179.828125 167.390625 179.765625 167.882812 179.75 C 168.375 179.734375 168.863281 179.765625 169.347656 179.847656 C 169.832031 179.925781 170.308594 180.054688 170.765625 180.226562 C 171.226562 180.402344 171.667969 180.617188 172.082031 180.878906 C 172.5 181.136719 172.890625 181.4375 173.246094 181.773438 C 173.605469 182.109375 173.929688 182.476562 174.214844 182.875 C 174.5 183.277344 174.742188 183.699219 174.945312 184.148438 C 175.144531 184.59375 175.300781 185.058594 175.410156 185.535156 C 175.519531 186.011719 175.582031 186.496094 175.597656 186.988281 C 175.597656 186.988281 175.597656 187.128906 175.597656 187.191406 C 175.59375 187.667969 175.550781 188.140625 175.457031 188.609375 C 175.367188 189.078125 175.230469 189.535156 175.050781 189.976562 C 174.871094 190.417969 174.652344 190.839844 174.390625 191.242188 C 174.128906 191.640625 173.832031 192.011719 173.5 192.355469 C 173.167969 192.699219 172.808594 193.011719 172.417969 193.285156 C 172.023438 193.558594 171.609375 193.796875 171.175781 193.992188 C 170.738281 194.1875 170.285156 194.339844 169.820312 194.449219 C 169.351562 194.558594 168.882812 194.625 168.402344 194.644531 Z M 168.402344 194.644531 " fill-opacity="1" fill-rule="nonzero"/><path fill="#ff6d00" d="M 152.019531 170.75 C 152.019531 171.214844 151.933594 171.664062 151.753906 172.089844 C 151.578125 172.519531 151.324219 172.898438 150.996094 173.226562 C 150.667969 173.554688 150.292969 173.808594 149.863281 173.988281 C 149.4375 174.164062 148.988281 174.253906 148.527344 174.253906 C 148.0625 174.253906 147.617188 174.164062 147.191406 173.988281 C 146.761719 173.808594 146.382812 173.554688 146.054688 173.226562 C 145.726562 172.898438 145.476562 172.519531 145.296875 172.089844 C 145.121094 171.664062 145.03125 171.214844 145.03125 170.75 C 145.03125 170.289062 145.121094 169.839844 145.296875 169.414062 C 145.476562 168.984375 145.726562 168.605469 146.054688 168.277344 C 146.382812 167.949219 146.761719 167.695312 147.191406 167.515625 C 147.617188 167.339844 148.0625 167.25 148.527344 167.25 C 148.988281 167.25 149.4375 167.339844 149.863281 167.515625 C 150.292969 167.695312 150.667969 167.949219 150.996094 168.277344 C 151.324219 168.605469 151.578125 168.984375 151.753906 169.414062 C 151.933594 169.839844 152.019531 170.289062 152.019531 170.75 Z M 152.019531 170.75 " fill-opacity="1" fill-rule="nonzero"/><path fill="#ff6d00" d="M 197.898438 174.703125 C 195.484375 174.6875 193.230469 175.273438 191.136719 176.464844 C 189.160156 177.550781 187.632812 179.078125 186.550781 181.050781 C 185.363281 183.160156 184.78125 185.425781 184.804688 187.847656 C 184.703125 190.246094 185.210938 192.511719 186.324219 194.644531 C 187.40625 196.621094 188.933594 198.15625 190.910156 199.25 C 193.105469 200.359375 195.4375 200.871094 197.898438 200.785156 C 200.019531 200.78125 202.074219 200.414062 204.0625 199.679688 C 205.867188 198.96875 207.394531 197.878906 208.648438 196.40625 L 205.378906 192.882812 C 204.496094 193.8125 203.476562 194.546875 202.316406 195.09375 C 201.113281 195.53125 199.875 195.75 198.597656 195.75 C 197.726562 195.796875 196.878906 195.6875 196.050781 195.425781 C 195.21875 195.160156 194.464844 194.757812 193.785156 194.214844 C 192.359375 193.078125 191.46875 191.617188 191.113281 189.832031 L 210.105469 189.832031 L 210.105469 187.785156 C 210.191406 186.019531 209.972656 184.289062 209.449219 182.597656 C 208.925781 180.90625 208.132812 179.351562 207.0625 177.9375 C 205.816406 176.808594 204.398438 175.964844 202.808594 175.402344 C 201.21875 174.839844 199.582031 174.609375 197.898438 174.703125 Z M 191.359375 185.226562 C 191.730469 183.714844 192.457031 182.398438 193.539062 181.273438 C 194.851562 180.128906 196.378906 179.542969 198.125 179.515625 C 199.003906 179.503906 199.859375 179.652344 200.691406 179.957031 C 201.519531 180.257812 202.265625 180.699219 202.933594 181.273438 C 203.515625 181.761719 203.960938 182.351562 204.269531 183.046875 C 204.578125 183.742188 204.714844 184.46875 204.679688 185.226562 Z M 191.359375 185.226562 " fill-opacity="1" fill-rule="nonzero"/><g clip-path="url(#9c737eeb26)"><path fill="#ff6d00" d="M 86.90625 178.429688 C 86.90625 178.429688 86.679688 178 86.472656 178.203125 C 86.339844 178.324219 86.265625 178.476562 86.25 178.65625 C 86.679688 185 83.1875 195.03125 68.550781 204.511719 C 68.492188 204.570312 68.417969 204.601562 68.335938 204.601562 C 68.25 204.601562 68.179688 204.570312 68.121094 204.511719 C 68.058594 204.449219 68.03125 204.375 68.03125 204.285156 C 68.03125 204.199219 68.058594 204.125 68.121094 204.0625 C 74.449219 197.058594 88.671875 177.773438 72.929688 165.492188 C 72.929688 165.492188 72.496094 165.058594 72.273438 165.285156 C 72.136719 165.398438 72.0625 165.542969 72.046875 165.714844 C 75.765625 175.582031 70.957031 184.140625 68.550781 187.640625 C 68.429688 187.757812 68.285156 187.824219 68.121094 187.847656 C 67.894531 187.847656 67.894531 187.417969 67.894531 187.417969 C 71.183594 173.085938 65.507812 164.40625 56.546875 157.179688 L 58.769531 149.5 L 52.210938 149.726562 C 48.613281 150.042969 45.269531 151.132812 42.179688 153 C 39.808594 152.953125 37.480469 153.25 35.191406 153.882812 C 31.402344 155.359375 28.085938 157.550781 25.246094 160.453125 L 12.910156 174.273438 L 19.078125 182.585938 C 19.050781 183.203125 19.074219 183.820312 19.144531 184.4375 C 19.214844 185.050781 19.332031 185.660156 19.5 186.257812 C 19.664062 186.851562 19.875 187.433594 20.132812 188 C 20.386719 188.5625 20.6875 189.105469 21.027344 189.621094 C 21.367188 190.140625 21.746094 190.628906 22.164062 191.089844 C 22.582031 191.546875 23.03125 191.972656 23.515625 192.363281 C 23.996094 192.753906 24.507812 193.101562 25.046875 193.414062 C 25.585938 193.722656 26.144531 193.992188 26.722656 194.214844 C 27.351562 192.910156 28.144531 191.714844 29.101562 190.628906 C 30.054688 189.542969 31.140625 188.601562 32.355469 187.8125 C 33.566406 187.019531 34.863281 186.402344 36.246094 185.964844 C 37.628906 185.527344 39.046875 185.28125 40.496094 185.226562 C 41.503906 185.253906 42.496094 185.390625 43.472656 185.632812 C 44.453125 185.878906 45.390625 186.226562 46.292969 186.675781 C 47.191406 187.128906 48.03125 187.671875 48.8125 188.308594 C 49.59375 188.945312 50.292969 189.65625 50.917969 190.445312 C 54.183594 183.425781 50.03125 175.316406 48.71875 172.246094 C 48.605469 172.101562 48.605469 171.960938 48.71875 171.816406 C 48.941406 171.589844 49.167969 172.042969 49.167969 172.042969 C 64.441406 189.566406 47.421875 216.078125 40.640625 223.960938 C 40.519531 224.085938 40.460938 224.230469 40.460938 224.402344 C 40.460938 224.570312 40.519531 224.71875 40.640625 224.839844 C 40.867188 225.496094 41.523438 225.066406 41.523438 225.066406 C 45.878906 223.53125 54.84375 220.460938 64.441406 216.304688 C 81.707031 209.546875 98.292969 198.636719 86.90625 178.429688 Z M 29.910156 170.238281 C 29.683594 170.464844 29.457031 170.238281 29.683594 170.015625 C 29.910156 169.789062 31.738281 165.203125 31.738281 165.203125 C 32.398438 163.667969 32.828125 162.359375 35.007812 162.132812 L 39.34375 161.785156 C 39.34375 161.785156 30.382812 170.097656 29.953125 170.320312 Z M 29.910156 170.238281 " fill-opacity="1" fill-rule="nonzero"/></g></svg>