<svg xmlns="http://www.w3.org/2000/svg" xmlns:xlink="http://www.w3.org/1999/xlink" width="500" zoomAndPan="magnify" viewBox="0 0 375 374.999991" height="500" preserveAspectRatio="xMidYMid meet" version="1.0"><defs><clipPath id="c2025ecd4b"><path d="M 8 152.640625 L 367 152.640625 L 367 222.390625 L 8 222.390625 Z M 8 152.640625 " clip-rule="nonzero"/></clipPath></defs><path fill="#0a3932" d="M 350.09375 189.136719 C 348.972656 196.859375 345.734375 201.839844 341.75 204.828125 C 338.761719 206.945312 334.898438 208.191406 331.660156 208.191406 C 328.796875 208.191406 325.933594 207.320312 323.441406 205.578125 C 323.316406 205.453125 323.070312 205.328125 322.820312 205.078125 C 316.964844 200.84375 301.648438 189.757812 301.648438 189.757812 C 301.398438 195.238281 302.144531 200.46875 303.890625 205.078125 C 307.875 215.042969 316.71875 221.894531 330.167969 221.894531 C 336.769531 221.894531 344.242188 220.273438 351.089844 215.042969 C 354.453125 212.550781 357.691406 208.9375 360.179688 205.078125 C 360.179688 205.078125 360.304688 204.953125 360.304688 204.953125 C 360.304688 204.953125 360.429688 204.828125 360.429688 204.828125 C 363.417969 199.847656 365.660156 194.117188 366.285156 188.015625 C 366.410156 187.390625 366.410156 186.519531 366.410156 185.273438 L 350.34375 185.273438 C 350.34375 186.519531 350.21875 187.765625 350.09375 189.136719 M 187.570312 193.742188 L 186.324219 205.203125 L 184.707031 220.648438 L 227.546875 220.648438 C 231.90625 220.648438 235.640625 217.035156 236.015625 212.550781 L 236.515625 207.816406 L 202.140625 207.816406 L 202.390625 205.203125 L 203.636719 193.496094 L 203.761719 192.375 L 224.683594 192.375 C 227.546875 192.125 230.410156 192 233.277344 191.75 L 234.519531 180.042969 L 205.003906 180.042969 L 206.25 168.210938 L 230.285156 168.210938 C 234.398438 168.210938 237.882812 164.972656 238.507812 160.984375 C 238.507812 160.738281 238.632812 160.488281 238.632812 160.113281 L 239.128906 155.628906 L 191.554688 155.628906 Z M 275.742188 155.628906 L 246.726562 155.628906 L 242.988281 190.753906 L 241.496094 205.203125 L 239.875 220.648438 L 248.46875 220.648438 C 252.578125 220.648438 256.191406 217.410156 256.6875 213.421875 L 256.8125 212.550781 L 257.5625 205.203125 L 258.433594 197.480469 L 268.519531 197.480469 L 272.007812 205.203125 L 275.246094 212.550781 C 275.246094 212.550781 276.367188 215.042969 276.863281 216.164062 C 277.984375 218.777344 280.601562 220.648438 283.714844 220.648438 L 296.667969 220.648438 L 289.441406 205.203125 L 284.585938 194.738281 C 288.445312 193.371094 295.792969 190.753906 298.660156 181.910156 C 299.15625 180.417969 299.53125 178.671875 299.65625 176.804688 C 300.277344 170.949219 298.785156 165.71875 296.167969 162.355469 C 290.8125 155.753906 282.46875 155.628906 275.742188 155.628906 M 283.589844 176.429688 C 282.71875 185.023438 275.246094 185.273438 273.003906 185.398438 L 259.679688 185.398438 L 261.546875 167.835938 L 275.246094 167.835938 C 278.609375 167.835938 284.460938 168.085938 283.589844 176.429688 M 359.433594 162.355469 C 356.820312 159.367188 353.457031 156.75 348.722656 155.007812 C 344.988281 153.636719 341.003906 153.140625 337.140625 153.140625 C 319.082031 153.140625 307.003906 165.84375 303.019531 180.789062 C 302.394531 182.90625 302.023438 185.148438 301.773438 187.390625 C 301.648438 188.261719 301.648438 189.011719 301.648438 189.882812 L 317.589844 189.882812 C 317.589844 189.011719 317.714844 188.140625 317.714844 187.140625 C 318.210938 183.03125 319.332031 179.171875 321.074219 176.058594 C 324.3125 170.328125 329.542969 166.714844 335.773438 166.714844 C 338.636719 166.714844 341.25 167.464844 343.367188 168.832031 C 343.742188 169.082031 344.242188 169.332031 344.613281 169.703125 C 347.476562 171.824219 366.285156 185.398438 366.285156 185.398438 C 366.65625 180.042969 365.910156 169.828125 359.433594 162.355469 M 65.273438 187.265625 C 66.394531 185.398438 67.140625 183.40625 67.761719 181.289062 C 68.136719 179.917969 68.386719 178.546875 68.511719 177.054688 C 69.007812 172.695312 68.386719 167.339844 66.269531 163.726562 C 61.535156 155.503906 52.070312 155.503906 41.484375 155.503906 L 15.707031 155.503906 L 14.710938 164.847656 L 10.351562 205.078125 L 8.730469 220.523438 L 17.324219 220.523438 C 21.433594 220.523438 25.046875 217.285156 25.542969 213.175781 L 25.667969 212.425781 L 26.417969 205.078125 L 27.039062 199.222656 L 37.75 199.222656 C 46.589844 199.097656 58.421875 198.851562 65.273438 187.265625 M 52.445312 177.054688 C 52.445312 177.179688 52.445312 177.300781 52.445312 177.550781 C 51.199219 187.140625 43.976562 187.265625 38.121094 187.265625 L 28.410156 187.265625 L 30.152344 170.703125 L 30.527344 167.585938 L 40.738281 167.585938 C 45.347656 167.585938 53.441406 167.585938 52.445312 177.054688 M 112.597656 189.261719 L 103.878906 155.628906 L 87.066406 155.628906 L 74.238281 182.78125 L 63.652344 205.203125 L 56.304688 220.648438 L 67.886719 220.648438 C 71 220.648438 73.742188 218.777344 75.234375 216.164062 C 75.859375 215.042969 76.730469 212.425781 76.730469 212.425781 L 77.726562 210.183594 L 101.390625 210.183594 L 101.886719 212.550781 L 102.261719 214.171875 C 102.261719 214.417969 102.386719 214.667969 102.386719 214.917969 C 103.257812 218.15625 106.121094 220.523438 109.609375 220.523438 L 120.691406 220.523438 L 116.707031 205.078125 Z M 82.707031 198.476562 C 84.203125 194.863281 86.320312 189.882812 88.0625 185.523438 C 88.6875 183.902344 89.308594 182.410156 89.804688 181.164062 C 91.050781 177.800781 92.296875 174.4375 93.542969 171.074219 L 96.65625 187.019531 L 98.898438 198.476562 Z M 153.074219 192.871094 L 152.699219 196.734375 L 166.398438 196.734375 L 165.527344 204.953125 L 165.152344 208.816406 L 151.078125 208.816406 C 146.96875 208.691406 143.484375 207.070312 141.367188 204.953125 C 141.117188 204.703125 140.742188 204.457031 140.617188 204.082031 C 138.375 201.464844 137.132812 197.105469 137.007812 191.625 C 137.007812 190.378906 137.007812 189.011719 137.257812 187.515625 C 138.375 176.679688 143.855469 168.582031 156.1875 168.582031 L 167.894531 168.582031 C 171.878906 168.460938 175.363281 165.34375 175.988281 161.359375 L 176.113281 160.488281 L 176.734375 155.257812 L 156.558594 155.257812 C 138.253906 155.257812 123.558594 166.964844 121.441406 187.890625 C 121.316406 188.636719 121.316406 189.261719 121.316406 190.007812 C 120.941406 195.613281 121.5625 200.59375 123.183594 204.828125 C 126.792969 214.417969 135.015625 220.398438 146.96875 220.398438 C 148.714844 220.398438 152.574219 220.273438 152.574219 220.273438 L 178.480469 220.273438 L 180.097656 204.828125 L 181.34375 193.371094 L 182.339844 184.152344 L 153.945312 184.152344 Z M 153.074219 192.871094 " fill-opacity="1" fill-rule="nonzero"/><g clip-path="url(#c2025ecd4b)"><path fill="#0a3932" d="M 330.292969 222.390625 C 317.589844 222.390625 307.875 216.164062 303.640625 205.328125 C 301.898438 200.71875 301.023438 195.363281 301.273438 189.882812 L 301.273438 189.757812 C 301.273438 189.507812 301.273438 189.261719 301.273438 189.136719 L 301.273438 189.011719 C 301.273438 188.636719 301.398438 188.140625 301.398438 187.765625 L 301.398438 187.390625 C 301.648438 185.148438 302.023438 182.90625 302.644531 180.664062 C 307.253906 163.601562 320.828125 152.640625 337.265625 152.640625 C 341.5 152.640625 345.484375 153.265625 348.972656 154.632812 C 353.332031 156.253906 356.945312 158.746094 359.808594 162.105469 C 366.160156 169.582031 367.03125 179.421875 366.90625 184.902344 L 366.90625 186.144531 C 366.90625 187.140625 366.78125 187.765625 366.78125 188.015625 C 366.160156 193.621094 364.292969 199.222656 361.300781 204.332031 L 360.929688 205.078125 L 360.554688 204.953125 L 360.804688 205.078125 C 360.804688 205.203125 360.679688 205.203125 360.679688 205.328125 L 360.554688 205.578125 C 358.0625 209.4375 354.828125 213.050781 351.464844 215.539062 C 345.484375 220.023438 338.386719 222.390625 330.292969 222.390625 Z M 302.144531 190.628906 C 302.023438 195.738281 302.769531 200.71875 304.386719 204.953125 C 308.621094 215.664062 317.714844 221.519531 330.167969 221.519531 C 338.011719 221.519531 344.988281 219.277344 350.839844 214.792969 C 354.078125 212.300781 357.316406 208.816406 359.808594 204.953125 L 360.058594 204.578125 C 363.171875 199.472656 365.164062 193.621094 365.785156 188.015625 C 365.785156 187.640625 365.910156 186.894531 365.910156 185.773438 L 350.714844 185.773438 C 350.714844 186.769531 350.59375 187.890625 350.34375 189.136719 C 349.097656 198.101562 344.988281 202.835938 341.875 205.203125 C 338.761719 207.320312 334.777344 208.691406 331.539062 208.691406 C 328.425781 208.691406 325.558594 207.695312 323.070312 205.949219 L 322.945312 205.824219 C 322.820312 205.699219 322.695312 205.578125 322.445312 205.453125 C 317.589844 201.714844 305.257812 192.871094 302.144531 190.628906 Z M 303.140625 190.257812 C 306.753906 192.871094 318.335938 201.21875 323.191406 204.828125 C 323.316406 204.953125 323.566406 205.078125 323.691406 205.203125 L 323.816406 205.328125 C 326.058594 206.945312 328.796875 207.941406 331.785156 207.941406 C 334.898438 207.941406 338.636719 206.699219 341.625 204.578125 C 344.613281 202.339844 348.476562 197.730469 349.71875 189.136719 C 349.96875 187.640625 350.09375 186.394531 350.09375 185.398438 L 350.09375 184.902344 L 365.164062 184.902344 C 361.054688 181.910156 346.980469 171.824219 344.613281 170.078125 C 344.242188 169.828125 343.867188 169.582031 343.367188 169.332031 C 341.25 167.960938 338.636719 167.339844 336.019531 167.339844 C 330.042969 167.339844 324.9375 170.578125 321.699219 176.429688 C 319.957031 179.542969 318.835938 183.28125 318.335938 187.390625 C 318.210938 188.261719 318.210938 189.261719 318.210938 190.132812 L 318.210938 190.628906 L 303.140625 190.628906 Z M 302.144531 189.261719 L 317.089844 189.261719 C 317.089844 188.511719 317.214844 187.765625 317.214844 187.019531 C 317.714844 182.90625 318.835938 179.046875 320.703125 175.808594 C 324.191406 169.703125 329.667969 166.21875 335.894531 166.21875 C 338.761719 166.21875 341.375 166.964844 343.742188 168.335938 C 344.242188 168.707031 344.613281 168.957031 344.988281 169.207031 C 347.476562 171.074219 362.421875 181.910156 365.910156 184.402344 C 365.910156 178.921875 365.039062 169.703125 359.0625 162.605469 C 356.320312 159.367188 352.832031 157 348.597656 155.503906 C 345.113281 154.261719 341.375 153.636719 337.140625 153.636719 C 321.199219 153.636719 307.875 164.347656 303.515625 180.914062 C 302.894531 183.03125 302.519531 185.273438 302.269531 187.515625 L 302.269531 187.890625 C 302.269531 188.261719 302.269531 188.761719 302.144531 189.261719 Z M 146.597656 221.144531 C 134.765625 221.144531 126.171875 215.539062 122.3125 205.328125 C 120.691406 200.96875 120.070312 195.859375 120.441406 190.257812 C 120.441406 189.507812 120.566406 188.886719 120.566406 188.140625 C 122.683594 168.085938 136.632812 155.132812 156.1875 155.132812 L 176.984375 155.132812 L 176.238281 161.609375 C 175.488281 165.84375 172.003906 169.082031 167.769531 169.332031 L 156.0625 169.332031 C 142.488281 169.332031 138.5 179.421875 137.628906 187.765625 C 137.503906 189.136719 137.378906 190.503906 137.378906 191.75 C 137.378906 196.980469 138.625 201.339844 140.867188 203.957031 C 141.117188 204.207031 141.367188 204.457031 141.613281 204.703125 C 143.855469 206.945312 147.34375 208.316406 151.078125 208.441406 L 164.777344 208.441406 L 166.023438 197.230469 L 152.324219 197.230469 L 153.695312 184.027344 L 182.589844 184.027344 L 178.601562 221.019531 L 152.324219 221.019531 C 152.199219 221.019531 148.214844 221.144531 146.597656 221.144531 Z M 156.1875 156.003906 C 137.132812 156.003906 123.558594 168.582031 121.441406 188.140625 C 121.316406 188.886719 121.316406 189.507812 121.316406 190.257812 C 120.941406 195.738281 121.5625 200.71875 123.183594 204.953125 C 126.792969 214.792969 135.140625 220.148438 146.597656 220.148438 C 148.214844 220.148438 152.199219 220.023438 152.199219 220.023438 L 177.730469 220.023438 L 181.46875 184.902344 L 154.441406 184.902344 L 153.195312 196.359375 L 166.894531 196.359375 L 165.527344 209.4375 L 150.957031 209.4375 C 146.96875 209.3125 143.359375 207.816406 140.992188 205.453125 C 140.742188 205.203125 140.371094 204.828125 140.121094 204.578125 C 137.753906 201.839844 136.507812 197.355469 136.507812 191.875 C 136.507812 190.503906 136.507812 189.136719 136.757812 187.765625 C 137.753906 178.921875 141.863281 168.460938 156.0625 168.460938 L 167.769531 168.460938 C 171.503906 168.335938 174.742188 165.34375 175.363281 161.609375 L 175.488281 160.863281 L 175.988281 156.128906 L 156.1875 156.128906 Z M 297.289062 221.019531 L 283.589844 221.019531 C 280.351562 221.019531 277.613281 219.152344 276.367188 216.164062 C 275.867188 215.042969 274.746094 212.550781 274.746094 212.550781 L 268.148438 197.730469 L 258.804688 197.730469 L 257.1875 213.296875 C 256.566406 217.65625 252.828125 220.894531 248.46875 221.019531 L 239.378906 221.019531 L 246.226562 155.132812 L 275.621094 155.132812 L 275.621094 155.628906 L 275.621094 155.132812 C 282.46875 155.257812 290.9375 155.382812 296.292969 161.984375 C 299.28125 165.71875 300.527344 171.199219 299.90625 176.804688 C 299.65625 178.671875 299.40625 180.417969 298.785156 182.035156 C 295.917969 190.753906 288.945312 193.496094 284.960938 194.988281 Z M 240.25 220.148438 L 248.34375 220.148438 C 252.207031 220.148438 255.570312 217.160156 256.191406 213.296875 L 256.316406 212.550781 L 257.933594 197.105469 L 268.769531 197.105469 L 275.621094 212.425781 C 275.621094 212.425781 276.738281 214.917969 277.238281 216.039062 C 278.359375 218.65625 280.851562 220.273438 283.714844 220.273438 L 295.917969 220.273438 L 283.964844 194.492188 L 284.585938 194.242188 C 288.324219 192.871094 295.421875 190.257812 298.160156 181.785156 C 298.660156 180.292969 299.03125 178.546875 299.15625 176.804688 C 299.78125 171.449219 298.535156 166.21875 295.671875 162.730469 C 290.5625 156.503906 282.34375 156.378906 275.742188 156.253906 L 275.742188 155.753906 L 275.742188 156.253906 L 247.222656 156.253906 Z M 184.707031 221.019531 L 184.207031 221.019531 L 191.179688 155.132812 L 239.75 155.132812 L 239.128906 160.984375 C 238.507812 165.34375 234.769531 168.582031 230.410156 168.707031 L 206.75 168.707031 L 205.628906 179.542969 L 235.144531 179.542969 L 233.773438 192.125 L 233.402344 192.125 C 230.535156 192.375 227.671875 192.621094 224.808594 192.746094 L 204.257812 192.746094 L 202.765625 207.320312 L 237.136719 207.320312 L 236.636719 212.550781 C 236.390625 217.160156 232.402344 221.019531 227.796875 221.019531 Z M 185.203125 220.148438 L 227.546875 220.148438 C 231.65625 220.148438 235.269531 216.660156 235.519531 212.550781 L 236.015625 208.316406 L 201.644531 208.316406 L 203.386719 191.875 L 224.808594 191.875 C 227.546875 191.625 230.285156 191.5 232.902344 191.253906 L 234.023438 180.542969 L 204.507812 180.542969 L 205.878906 167.835938 L 230.410156 167.835938 C 234.273438 167.835938 237.632812 164.847656 238.257812 160.984375 L 238.382812 160.238281 L 238.753906 156.253906 L 192.054688 156.253906 Z M 121.316406 221.019531 L 109.609375 221.019531 C 105.871094 221.019531 102.882812 218.53125 102.011719 215.042969 C 101.886719 214.792969 101.886719 214.417969 101.761719 214.171875 L 101.015625 210.683594 L 78.101562 210.683594 L 77.226562 212.675781 C 77.226562 212.800781 76.230469 215.167969 75.609375 216.289062 C 73.988281 219.152344 71 221.019531 67.886719 221.019531 L 55.558594 221.019531 L 86.816406 155.132812 L 104.253906 155.132812 Z M 77.476562 209.6875 L 101.886719 209.6875 L 102.757812 214.046875 C 102.757812 214.296875 102.882812 214.542969 102.882812 214.792969 C 103.628906 217.90625 106.371094 220.023438 109.609375 220.148438 L 120.070312 220.148438 L 103.507812 156.003906 L 87.316406 156.003906 L 57.054688 220.148438 L 67.886719 220.148438 C 70.753906 220.148438 73.367188 218.53125 74.863281 215.914062 C 75.359375 214.917969 76.355469 212.425781 76.355469 212.425781 Z M 8.730469 221.019531 L 8.234375 221.019531 L 15.207031 155.132812 L 41.484375 155.132812 C 51.945312 155.132812 61.785156 155.132812 66.640625 163.601562 C 68.636719 167.089844 69.507812 172.320312 69.007812 177.179688 C 68.882812 178.546875 68.636719 180.042969 68.136719 181.414062 C 67.515625 183.53125 66.640625 185.648438 65.644531 187.515625 C 58.671875 199.347656 46.589844 199.597656 37.75 199.847656 L 27.535156 199.847656 L 26.042969 213.421875 C 25.417969 217.78125 21.683594 221.019531 17.324219 221.144531 L 8.730469 221.144531 Z M 9.230469 220.148438 L 17.324219 220.148438 C 21.183594 220.148438 24.546875 217.160156 25.171875 213.296875 L 25.296875 212.550781 L 26.789062 198.976562 L 37.875 198.976562 C 46.46875 198.851562 58.296875 198.476562 64.898438 187.140625 C 65.894531 185.398438 66.765625 183.40625 67.265625 181.289062 C 67.636719 179.917969 67.886719 178.546875 68.011719 177.179688 C 68.511719 172.445312 67.636719 167.464844 65.769531 164.101562 C 61.164062 156.128906 52.070312 156.128906 41.484375 156.128906 L 16.078125 156.128906 Z M 99.644531 198.976562 L 82.085938 198.976562 L 82.335938 198.351562 C 83.082031 196.359375 84.078125 193.992188 85.199219 191.5 C 86.070312 189.382812 86.941406 187.265625 87.6875 185.398438 C 88.3125 183.78125 88.933594 182.285156 89.433594 181.039062 L 89.558594 180.789062 C 90.804688 177.550781 92.046875 174.3125 93.167969 171.074219 L 93.792969 169.457031 Z M 83.457031 197.980469 L 98.523438 197.980469 L 93.542969 172.695312 C 92.546875 175.433594 91.550781 178.175781 90.429688 180.914062 L 90.304688 181.289062 C 89.804688 182.535156 89.183594 184.152344 88.5625 185.648438 C 87.8125 187.640625 86.816406 189.757812 86.070312 191.75 C 85.074219 193.992188 84.203125 196.234375 83.457031 197.980469 Z M 38.121094 187.765625 L 27.910156 187.765625 L 30.027344 167.089844 L 40.613281 167.089844 C 43.726562 167.089844 48.460938 167.089844 51.074219 169.953125 C 52.570312 171.574219 53.191406 173.941406 52.820312 177.054688 L 52.820312 177.550781 C 51.574219 187.765625 43.726562 187.765625 38.121094 187.765625 Z M 28.90625 186.769531 L 38.121094 186.769531 C 43.726562 186.769531 50.824219 186.769531 51.945312 177.425781 L 51.945312 176.929688 C 52.195312 174.1875 51.699219 171.945312 50.453125 170.578125 C 48.085938 167.960938 43.601562 167.960938 40.613281 167.960938 L 30.773438 167.960938 Z M 259.679688 185.773438 L 259.179688 185.773438 L 261.171875 167.214844 L 275.246094 167.214844 C 277.238281 167.214844 280.601562 167.339844 282.59375 169.582031 C 283.964844 171.074219 284.460938 173.316406 284.089844 176.304688 C 283.089844 185.273438 275.621094 185.523438 273.128906 185.648438 Z M 260.175781 184.902344 L 273.003906 184.902344 C 275.371094 184.777344 282.34375 184.527344 283.214844 176.429688 C 283.464844 173.691406 283.089844 171.699219 281.847656 170.328125 C 280.101562 168.335938 277.113281 168.335938 275.246094 168.210938 L 262.042969 168.210938 Z M 260.175781 184.902344 " fill-opacity="1" fill-rule="nonzero"/></g></svg>