<svg xmlns="http://www.w3.org/2000/svg" xmlns:xlink="http://www.w3.org/1999/xlink" width="500" zoomAndPan="magnify" viewBox="0 0 375 374.999991" height="500" preserveAspectRatio="xMidYMid meet" version="1.0"><defs><clipPath id="452283c301"><path d="M 10 188 L 293 188 L 293 227.476562 L 10 227.476562 Z M 10 188 " clip-rule="nonzero"/></clipPath><clipPath id="7e579e204d"><path d="M 277 147.226562 L 365 147.226562 L 365 218 L 277 218 Z M 277 147.226562 " clip-rule="nonzero"/></clipPath></defs><g clip-path="url(#452283c301)"><path fill="#444444" d="M 19.882812 227.476562 C 16.75 227.523438 13.726562 226.980469 10.8125 225.851562 L 10.8125 221.148438 C 13.765625 222.089844 16.789062 222.691406 19.882812 222.957031 C 22.785156 222.957031 25.867188 222.414062 25.867188 218.800781 C 25.867188 216.089844 23.875 215.367188 21.332031 214.644531 L 18.792969 214.101562 C 15.710938 213.199219 10.628906 211.933594 10.628906 205.789062 C 10.628906 198.917969 16.253906 197.292969 22.058594 197.292969 C 24.910156 197.183594 27.632812 197.726562 30.222656 198.917969 L 30.222656 203.4375 C 27.5625 202.277344 24.78125 201.675781 21.878906 201.628906 C 18.25 201.628906 15.890625 202.351562 15.890625 205.425781 C 15.890625 208.136719 18.066406 208.859375 20.609375 209.402344 L 23.328125 210.304688 C 26.777344 211.210938 30.949219 213.199219 30.949219 218.621094 C 31.128906 225.488281 26.050781 227.476562 19.882812 227.476562 M 50.722656 227.476562 C 56.167969 227.476562 64.328125 225.851562 64.328125 212.292969 C 64.328125 198.917969 55.984375 197.113281 50.722656 197.113281 C 45.097656 197.113281 37.117188 199.28125 37.117188 212.292969 C 37.117188 225.667969 44.917969 227.476562 50.722656 227.476562 M 50.722656 201.269531 C 53.808594 201.269531 58.886719 201.992188 58.886719 212.292969 C 58.886719 222.234375 53.445312 223.320312 50.722656 223.320312 C 48.546875 223.320312 42.558594 222.597656 42.558594 212.292969 C 42.558594 202.171875 47.640625 201.269531 50.722656 201.269531 M 71.40625 226.933594 L 76.847656 226.933594 L 76.847656 188.074219 L 71.40625 188.074219 Z M 108.960938 226.933594 L 108.960938 207.234375 C 108.960938 199.640625 104.605469 197.292969 98.074219 197.292969 C 94.273438 197.335938 90.585938 198 87.007812 199.28125 L 87.007812 203.800781 C 90.300781 202.65625 93.6875 201.996094 97.167969 201.8125 C 100.976562 201.8125 103.152344 202.714844 103.152344 206.511719 L 103.152344 209.039062 L 96.621094 209.039062 C 91.90625 209.039062 84.285156 210.667969 84.285156 218.621094 C 84.285156 226.03125 89.183594 227.65625 93.71875 227.65625 C 95.558594 227.648438 97.316406 227.265625 98.992188 226.511719 C 100.667969 225.753906 102.117188 224.691406 103.335938 223.320312 L 103.878906 227.113281 Z M 103.515625 219.34375 C 103.515625 219.34375 99.527344 223.136719 95.535156 223.136719 C 92.632812 223.136719 90.273438 222.054688 90.273438 218.257812 C 90.273438 213.558594 93.175781 212.292969 98.253906 212.113281 L 103.515625 212.113281 Z M 128.914062 202.171875 C 130.492188 202.148438 132.003906 202.449219 133.453125 203.074219 L 133.453125 198.015625 C 132.1875 197.417969 130.855469 197.175781 129.460938 197.292969 C 128.726562 197.300781 128.011719 197.410156 127.3125 197.621094 C 126.613281 197.832031 125.957031 198.140625 125.34375 198.539062 C 124.734375 198.941406 124.191406 199.417969 123.71875 199.976562 C 123.246094 200.53125 122.863281 201.144531 122.566406 201.8125 L 121.839844 197.835938 L 117.667969 197.835938 L 117.667969 226.933594 L 123.109375 226.933594 L 123.109375 205.605469 C 123.109375 205.605469 125.648438 202.171875 128.914062 202.171875 M 184.792969 197.652344 L 178.625 197.652344 L 175.179688 214.460938 C 174.269531 218.800781 173.363281 224.402344 173.363281 224.402344 C 173.363281 224.402344 172.09375 218.257812 171.003906 214.460938 L 165.925781 197.652344 L 157.941406 197.652344 L 152.863281 214.460938 C 151.773438 218.257812 150.503906 224.402344 150.503906 224.402344 C 150.503906 224.402344 149.597656 218.4375 148.691406 214.460938 L 145.0625 197.652344 L 138.710938 197.652344 L 146.695312 226.933594 L 154.316406 226.933594 L 158.851562 211.390625 C 159.9375 207.414062 161.933594 200.546875 161.933594 200.546875 C 161.933594 200.546875 163.75 207.414062 164.835938 211.570312 L 169.371094 227.113281 L 176.992188 227.113281 Z M 191.6875 226.933594 L 197.128906 226.933594 L 197.128906 197.472656 L 191.6875 197.472656 Z M 231.78125 226.933594 L 231.78125 207.050781 C 231.78125 199.640625 227.609375 197.292969 222.347656 197.292969 C 220.289062 197.421875 218.308594 197.890625 216.410156 198.695312 C 214.511719 199.5 212.800781 200.601562 211.28125 201.992188 L 210.191406 197.835938 L 206.019531 197.835938 L 206.019531 226.933594 L 211.460938 226.933594 L 211.460938 205.605469 C 214.316406 203.476562 217.523438 202.273438 221.078125 201.992188 C 224.886719 201.992188 226.339844 203.4375 226.339844 207.050781 L 226.339844 226.933594 Z M 264.800781 226.933594 L 264.800781 188.074219 L 259.359375 188.074219 L 259.359375 200.003906 C 258.308594 199.011719 257.109375 198.265625 255.753906 197.761719 C 254.398438 197.261719 253 197.042969 251.554688 197.113281 C 247.566406 197.113281 238.3125 198.917969 238.3125 212.292969 C 238.3125 225.308594 245.933594 227.476562 250.46875 227.476562 C 251.359375 227.5 252.242188 227.425781 253.117188 227.253906 C 253.992188 227.082031 254.839844 226.816406 255.65625 226.457031 C 256.46875 226.097656 257.238281 225.652344 257.953125 225.125 C 258.671875 224.59375 259.320312 223.992188 259.902344 223.320312 L 260.445312 226.933594 Z M 259.359375 219.703125 C 258.269531 220.671875 257.0625 221.449219 255.730469 222.035156 C 254.394531 222.621094 253.003906 222.988281 251.554688 223.136719 C 248.109375 223.136719 243.753906 222.054688 243.753906 212.292969 C 243.753906 203.074219 247.929688 201.628906 252.101562 201.628906 C 253.441406 201.683594 254.734375 201.957031 255.980469 202.453125 C 257.222656 202.949219 258.351562 203.640625 259.359375 204.523438 Z M 281.855469 227.476562 C 288.023438 227.476562 292.921875 225.667969 292.921875 218.621094 C 292.921875 213.199219 288.566406 211.210938 285.300781 210.304688 L 282.398438 209.582031 C 279.859375 208.859375 277.679688 208.316406 277.679688 205.605469 C 277.679688 202.535156 280.039062 201.8125 283.667969 201.8125 C 286.570312 201.855469 289.351562 202.457031 292.011719 203.617188 L 292.011719 199.101562 C 289.421875 197.90625 286.699219 197.367188 283.847656 197.472656 C 278.042969 197.472656 272.417969 199.101562 272.417969 205.96875 C 272.417969 212.113281 277.5 213.378906 280.582031 214.28125 L 282.941406 215.003906 C 285.480469 215.726562 287.476562 216.269531 287.476562 219.164062 C 287.476562 222.777344 284.574219 223.320312 281.492188 223.320312 C 278.398438 223.054688 275.375 222.449219 272.417969 221.511719 L 272.417969 226.210938 C 272.601562 225.851562 276.410156 227.476562 281.855469 227.476562 " fill-opacity="1" fill-rule="nonzero"/></g><g clip-path="url(#7e579e204d)"><path fill="#f99d1c" d="M 318.683594 179.941406 C 314.691406 181.023438 310.699219 181.929688 306.707031 183.195312 C 304.664062 181.359375 302.492188 179.695312 300.1875 178.199219 C 297.882812 176.707031 295.476562 175.398438 292.964844 174.277344 C 290.453125 173.160156 287.871094 172.238281 285.21875 171.523438 C 282.566406 170.804688 279.871094 170.296875 277.136719 170 C 281.183594 167.105469 285.433594 164.535156 289.882812 162.292969 C 294.328125 160.050781 298.921875 158.164062 303.664062 156.628906 C 308.40625 155.097656 313.234375 153.9375 318.15625 153.148438 C 323.078125 152.359375 328.03125 151.949219 333.015625 151.925781 L 326.121094 158.25 C 326.121094 158.25 355.328125 157.167969 362.585938 147.226562 C 362.367188 148.273438 362.066406 149.300781 361.679688 150.300781 C 360.640625 153.25 359.210938 156.003906 357.390625 158.554688 C 355.570312 161.101562 353.433594 163.351562 350.976562 165.300781 C 346.363281 168.894531 341.34375 171.785156 335.917969 173.976562 C 330.539062 176.3125 325.039062 178.300781 319.40625 179.941406 C 319.226562 179.761719 318.863281 179.941406 318.683594 179.941406 M 364.398438 179.039062 C 355.140625 178.617188 345.910156 178.988281 336.710938 180.140625 C 327.511719 181.292969 318.480469 183.214844 309.609375 185.90625 C 313.382812 189.824219 316.464844 194.222656 318.863281 199.101562 C 333.558594 190.964844 353.878906 180.484375 364.398438 179.039062 M 320.679688 203.257812 C 322.433594 207.742188 323.519531 212.378906 323.941406 217.175781 L 349.523438 190.964844 Z M 334.464844 216.992188 C 334.75 216.96875 335.019531 216.894531 335.273438 216.769531 C 335.527344 216.640625 335.746094 216.46875 335.933594 216.257812 C 336.121094 216.042969 336.261719 215.804688 336.355469 215.535156 C 336.449219 215.265625 336.488281 214.992188 336.472656 214.707031 C 336.457031 214.425781 336.390625 214.15625 336.269531 213.898438 C 336.148438 213.640625 335.980469 213.417969 335.773438 213.226562 C 335.5625 213.035156 335.324219 212.886719 335.058594 212.789062 C 334.792969 212.6875 334.515625 212.640625 334.234375 212.648438 C 333.949219 212.65625 333.675781 212.71875 333.414062 212.832031 C 333.15625 212.945312 332.925781 213.101562 332.726562 213.304688 C 332.527344 213.507812 332.375 213.742188 332.269531 214.003906 C 332.160156 214.269531 332.105469 214.539062 332.105469 214.824219 C 332.101562 215.128906 332.15625 215.421875 332.277344 215.703125 C 332.398438 215.984375 332.570312 216.230469 332.796875 216.4375 C 333.023438 216.644531 333.28125 216.796875 333.570312 216.894531 C 333.863281 216.992188 334.160156 217.023438 334.464844 216.992188 M 334.464844 213.199219 C 334.695312 213.175781 334.921875 213.203125 335.140625 213.277344 C 335.359375 213.351562 335.554688 213.464844 335.726562 213.617188 C 335.898438 213.773438 336.035156 213.953125 336.128906 214.164062 C 336.226562 214.375 336.277344 214.59375 336.28125 214.824219 C 336.28125 216.089844 335.371094 216.449219 334.464844 216.449219 C 334.234375 216.472656 334.011719 216.445312 333.789062 216.371094 C 333.570312 216.300781 333.375 216.183594 333.203125 216.03125 C 333.03125 215.875 332.898438 215.695312 332.800781 215.484375 C 332.707031 215.273438 332.65625 215.054688 332.652344 214.824219 C 332.652344 213.558594 333.558594 213.199219 334.464844 213.199219 M 335.371094 215.910156 L 335.191406 215.367188 C 335.191406 215.1875 335.011719 215.003906 334.828125 214.824219 C 335.011719 214.644531 335.191406 214.644531 335.191406 214.28125 C 335.191406 213.738281 334.648438 213.558594 334.285156 213.558594 L 333.558594 213.558594 L 333.558594 215.910156 L 334.101562 215.910156 L 334.101562 215.003906 L 334.464844 215.003906 C 334.648438 215.003906 334.648438 215.367188 334.648438 215.546875 L 334.828125 215.910156 Z M 334.464844 214.101562 C 334.828125 214.101562 334.828125 214.101562 334.828125 214.460938 C 334.828125 214.644531 334.648438 214.824219 334.101562 214.824219 L 334.101562 214.101562 L 334.464844 214.101562 " fill-opacity="1" fill-rule="nonzero"/></g></svg>