<svg xmlns="http://www.w3.org/2000/svg" xmlns:xlink="http://www.w3.org/1999/xlink" width="500" zoomAndPan="magnify" viewBox="0 0 375 374.999991" height="500" preserveAspectRatio="xMidYMid meet" version="1.0"><defs><clipPath id="985dbe357e"><path d="M 0.582031 112.011719 L 174.628906 112.011719 L 174.628906 286 L 0.582031 286 Z M 0.582031 112.011719 " clip-rule="nonzero"/></clipPath><clipPath id="080a221fbb"><path d="M 127.746094 232.308594 C 127.441406 232.617188 127.441406 233.230469 127.746094 233.84375 L 146.4375 255.9375 C 147.972656 257.78125 151.035156 257.472656 152.875 255.632812 C 154.40625 253.792969 154.710938 250.722656 152.566406 249.1875 L 129.28125 232.003906 C 128.972656 231.695312 128.667969 231.695312 128.667969 231.695312 C 128.359375 232.003906 128.054688 232.003906 127.746094 232.308594 M 111.8125 230.160156 C 111.199219 230.46875 110.894531 231.082031 110.894531 231.695312 L 121.007812 273.429688 C 121.617188 275.886719 124.375 277.113281 126.828125 276.191406 C 129.28125 275.273438 130.8125 272.816406 129.890625 270.363281 L 113.34375 230.773438 C 113.039062 230.46875 112.734375 230.160156 112.425781 230.160156 C 111.8125 230.160156 111.8125 230.160156 111.8125 230.160156 M 147.050781 227.09375 C 146.746094 227.707031 147.359375 228.011719 147.664062 228.320312 L 162.375 235.070312 C 164.210938 235.992188 166.355469 234.457031 166.96875 232.308594 C 167.582031 230.46875 166.355469 228.011719 164.519531 227.707031 L 148.277344 226.171875 C 148.277344 226.171875 148.277344 226.171875 147.972656 226.171875 C 147.664062 226.480469 147.359375 226.785156 147.050781 227.09375 M 120.699219 221.570312 C 120.394531 222.183594 120.699219 222.796875 121.007812 223.101562 L 155.632812 245.8125 C 157.46875 247.039062 159.921875 246.121094 161.148438 244.277344 C 162.375 242.4375 161.761719 239.675781 159.617188 238.753906 L 121.925781 221.261719 C 121.617188 221.261719 121.617188 221.261719 121.3125 221.261719 C 121.3125 220.957031 121.007812 221.261719 120.699219 221.570312 M 97.410156 220.339844 L 80.863281 279.261719 C 79.945312 282.332031 82.089844 285.09375 85.15625 285.707031 C 85.460938 285.707031 85.765625 285.707031 86.378906 285.707031 C 88.832031 285.707031 91.28125 283.863281 91.589844 281.410156 L 99.863281 220.957031 C 99.863281 220.339844 99.554688 219.421875 98.945312 219.421875 C 98.945312 219.421875 98.636719 219.421875 98.636719 219.421875 C 98.023438 219.421875 97.410156 219.726562 97.410156 220.339844 M 110.894531 217.273438 C 110.28125 217.578125 110.28125 218.191406 110.585938 218.808594 L 135.101562 265.453125 C 136.328125 267.601562 139.085938 268.214844 141.230469 266.988281 C 143.375 265.757812 144.292969 262.691406 142.761719 260.847656 L 112.121094 217.886719 C 111.8125 217.578125 111.507812 217.273438 111.199219 217.273438 C 111.199219 216.964844 111.199219 216.964844 110.894531 217.273438 M 167.582031 216.660156 L 133.261719 219.113281 C 132.648438 219.113281 132.34375 219.726562 132.34375 220.035156 C 132.34375 220.648438 132.957031 220.957031 133.261719 220.957031 L 167.582031 223.71875 C 169.726562 224.023438 171.257812 222.183594 171.257812 220.035156 C 171.257812 218.5 169.726562 216.660156 167.582031 216.660156 C 167.890625 216.660156 167.582031 216.660156 167.582031 216.660156 M 104.460938 208.679688 C 103.847656 208.679688 103.234375 209.292969 103.234375 209.90625 L 102.925781 278.648438 C 102.925781 281.410156 105.378906 283.558594 108.136719 283.25 C 110.894531 283.25 113.039062 280.796875 112.734375 278.035156 L 105.378906 209.90625 C 105.683594 208.988281 105.070312 208.679688 104.460938 208.679688 M 169.421875 206.53125 L 154.710938 212.054688 C 154.101562 212.363281 153.792969 212.667969 153.792969 213.285156 C 153.792969 213.898438 154.40625 214.203125 155.019531 214.203125 L 170.648438 212.976562 C 172.484375 212.976562 173.40625 210.828125 173.097656 208.988281 C 172.792969 207.453125 171.566406 206.226562 170.035156 206.226562 C 170.035156 206.226562 169.726562 206.226562 169.421875 206.53125 M 88.21875 206.53125 L 32.144531 257.167969 C 29.386719 259.621094 29.691406 263.917969 32.449219 266.679688 C 35.207031 269.136719 39.496094 269.441406 41.949219 266.375 L 90.671875 208.375 C 91.28125 207.757812 91.28125 206.839844 90.671875 206.226562 C 90.363281 205.917969 90.058594 205.917969 89.75 205.917969 C 89.136719 205.917969 88.523438 206.226562 88.21875 206.53125 M 100.78125 198.859375 L 55.125 271.898438 C 53.285156 274.964844 54.511719 279.261719 57.882812 280.796875 C 60.945312 282.636719 65.238281 281.410156 66.769531 278.035156 L 103.539062 200.085938 C 103.847656 199.472656 103.539062 198.554688 102.925781 197.9375 C 102.621094 197.9375 102.3125 197.632812 102.3125 197.632812 C 101.703125 197.9375 101.089844 198.246094 100.78125 198.859375 M 168.808594 193.949219 L 142.457031 210.828125 C 141.84375 211.136719 141.84375 211.75 142.148438 212.363281 C 142.457031 212.976562 143.070312 212.976562 143.679688 212.667969 L 172.484375 200.703125 C 174.324219 199.78125 174.9375 197.632812 174.015625 195.792969 C 173.40625 194.5625 171.871094 193.644531 170.648438 193.644531 C 169.726562 193.644531 169.113281 193.644531 168.808594 193.949219 M 87.300781 187.503906 L 6.097656 203.769531 C 2.726562 204.382812 0.582031 207.757812 0.582031 211.136719 C 0.582031 211.75 0.582031 212.363281 0.886719 213.285156 C 2.113281 217.273438 6.402344 220.035156 10.082031 218.5 L 88.21875 191.1875 C 89.136719 190.882812 89.75 189.960938 89.445312 188.734375 C 89.136719 187.8125 88.523438 187.199219 87.605469 187.199219 C 87.605469 187.199219 87.300781 187.199219 87.300781 187.503906 M 104.460938 186.277344 L 14.675781 233.230469 C 11 235.070312 9.773438 239.980469 11.917969 243.664062 C 14.0625 247.347656 18.96875 248.574219 22.335938 246.425781 L 105.992188 189.960938 C 106.910156 189.347656 107.21875 188.121094 106.605469 187.199219 C 106.296875 186.585938 105.683594 186.277344 105.070312 186.277344 C 105.070312 185.972656 104.765625 186.277344 104.460938 186.277344 M 166.355469 181.0625 L 157.164062 194.257812 C 156.859375 194.871094 156.859375 195.484375 157.164062 195.792969 C 157.46875 196.097656 158.082031 196.097656 158.695312 195.792969 L 171.871094 186.277344 C 173.40625 185.050781 173.40625 182.59375 171.871094 181.0625 C 171.257812 180.445312 170.035156 179.832031 169.113281 179.832031 C 167.890625 179.832031 166.96875 180.140625 166.355469 181.0625 M 1.808594 180.445312 C 1.808594 184.742188 5.179688 188.425781 9.46875 188.121094 L 114.570312 181.980469 C 115.796875 181.980469 116.410156 181.0625 116.410156 180.140625 C 116.410156 178.914062 115.492188 178.300781 114.570312 178.300781 L 9.46875 172.773438 C 9.46875 172.773438 9.160156 172.773438 9.160156 172.773438 C 5.179688 172.773438 1.808594 176.457031 1.808594 180.445312 M 161.453125 165.71875 L 144.90625 201.621094 C 144.601562 202.234375 144.90625 202.847656 145.214844 203.15625 C 145.828125 203.464844 146.4375 203.15625 146.746094 202.847656 L 167.890625 169.398438 C 169.113281 167.558594 168.195312 165.410156 166.355469 164.488281 C 165.742188 164.183594 165.132812 163.875 164.519531 163.875 C 162.984375 163.875 161.761719 164.488281 161.453125 165.71875 M 153.179688 151.601562 L 149.503906 176.457031 C 149.503906 177.070312 149.808594 177.683594 150.117188 177.683594 C 150.730469 177.683594 151.34375 177.378906 151.34375 177.070312 L 159.921875 153.75 C 160.535156 151.90625 159.308594 149.757812 157.164062 149.144531 C 156.859375 149.144531 156.550781 149.144531 156.246094 149.144531 C 154.710938 149.144531 153.179688 150.066406 153.179688 151.601562 M 14.984375 150.375 C 13.757812 154.363281 16.210938 158.964844 20.5 159.578125 L 98.636719 174.308594 C 99.554688 174.617188 100.476562 174.003906 100.78125 173.082031 C 101.089844 172.160156 100.476562 171.242188 99.554688 170.933594 L 24.484375 144.847656 C 23.871094 144.542969 22.949219 144.542969 22.335938 144.542969 C 18.96875 144.542969 15.902344 146.996094 14.984375 150.375 M 143.375 133.496094 C 141.230469 133.496094 139.699219 135.027344 139.699219 137.175781 L 142.761719 191.496094 C 142.761719 192.109375 143.375 192.414062 143.679688 192.414062 C 144.292969 192.414062 144.601562 191.800781 144.601562 191.496094 L 146.746094 137.175781 C 147.359375 135.027344 145.519531 133.496094 143.375 133.496094 M 36.738281 127.972656 C 34.902344 131.039062 36.125 135.027344 39.191406 136.5625 L 124.988281 179.832031 C 125.910156 180.140625 126.828125 180.140625 127.132812 179.21875 C 127.441406 178.300781 127.132812 177.378906 126.523438 177.070312 L 45.320312 125.515625 C 44.398438 124.902344 43.175781 124.59375 42.253906 124.59375 C 40.109375 124.902344 37.964844 126.128906 36.738281 127.972656 M 121.925781 119.992188 C 119.472656 120.605469 117.941406 123.367188 118.859375 125.824219 L 136.632812 173.695312 C 136.941406 174.308594 137.554688 174.617188 138.164062 174.617188 C 138.777344 174.308594 139.085938 173.695312 139.085938 173.082031 L 127.746094 123.0625 C 127.441406 120.914062 125.296875 119.683594 123.457031 119.683594 C 122.84375 119.683594 122.230469 119.683594 121.925781 119.992188 M 64.625 115.390625 C 62.480469 117.539062 62.480469 121.527344 64.929688 123.675781 L 117.636719 168.171875 C 118.25 168.785156 119.167969 168.785156 119.78125 168.171875 C 120.394531 167.558594 120.394531 166.636719 119.78125 166.023438 L 72.589844 115.082031 C 71.671875 113.855469 70.140625 113.546875 68.609375 113.546875 C 67.382812 113.546875 65.542969 114.160156 64.625 115.390625 M 94.039062 112.933594 C 91.589844 114.46875 90.363281 117.84375 92.203125 120.605469 L 135.101562 183.210938 C 135.40625 183.824219 136.328125 184.128906 137.246094 183.824219 C 137.859375 183.515625 138.164062 182.59375 137.859375 181.675781 L 101.703125 114.773438 C 100.78125 112.933594 98.945312 112.011719 97.105469 112.011719 C 96.1875 112.011719 94.960938 112.320312 94.039062 112.933594 " clip-rule="nonzero"/></clipPath><radialGradient gradientTransform="matrix(0.999259, 0, 0, -1.000741, 34712.565171, 60887.550519)" gradientUnits="userSpaceOnUse" r="144.859456" cx="-34621.699589" id="7f4fca60d7" cy="60639.615228" fx="-34621.699589" fy="60639.615228"><stop stop-opacity="1" stop-color="rgb(44.699097%, 78.799438%, 97.299194%)" offset="0"/><stop stop-opacity="1" stop-color="rgb(44.699097%, 78.799438%, 97.299194%)" offset="0.125"/><stop stop-opacity="1" stop-color="rgb(44.699097%, 78.799438%, 97.299194%)" offset="0.136719"/><stop stop-opacity="1" stop-color="rgb(44.726562%, 78.555298%, 97.262573%)" offset="0.148438"/><stop stop-opacity="1" stop-color="rgb(44.799805%, 77.906799%, 97.164917%)" offset="0.152344"/><stop stop-opacity="1" stop-color="rgb(44.891357%, 77.093506%, 97.041321%)" offset="0.15625"/><stop stop-opacity="1" stop-color="rgb(44.984436%, 76.281738%, 96.91925%)" offset="0.160156"/><stop stop-opacity="1" stop-color="rgb(45.075989%, 75.469971%, 96.79718%)" offset="0.164062"/><stop stop-opacity="1" stop-color="rgb(45.167542%, 74.658203%, 96.673584%)" offset="0.167969"/><stop stop-opacity="1" stop-color="rgb(45.259094%, 73.846436%, 96.551514%)" offset="0.171875"/><stop stop-opacity="1" stop-color="rgb(45.352173%, 73.034668%, 96.429443%)" offset="0.175781"/><stop stop-opacity="1" stop-color="rgb(45.443726%, 72.2229%, 96.305847%)" offset="0.179688"/><stop stop-opacity="1" stop-color="rgb(45.535278%, 71.411133%, 96.183777%)" offset="0.183594"/><stop stop-opacity="1" stop-color="rgb(45.626831%, 70.599365%, 96.061707%)" offset="0.1875"/><stop stop-opacity="1" stop-color="rgb(45.71991%, 69.787598%, 95.93811%)" offset="0.191406"/><stop stop-opacity="1" stop-color="rgb(45.811462%, 68.97583%, 95.81604%)" offset="0.195312"/><stop stop-opacity="1" stop-color="rgb(45.896912%, 68.188477%, 95.701599%)" offset="0.199219"/><stop stop-opacity="1" stop-color="rgb(45.974731%, 67.446899%, 95.602417%)" offset="0.203125"/><stop stop-opacity="1" stop-color="rgb(46.047974%, 66.72821%, 95.510864%)" offset="0.207031"/><stop stop-opacity="1" stop-color="rgb(46.121216%, 66.007996%, 95.419312%)" offset="0.210938"/><stop stop-opacity="1" stop-color="rgb(46.192932%, 65.287781%, 95.327759%)" offset="0.214844"/><stop stop-opacity="1" stop-color="rgb(46.266174%, 64.567566%, 95.236206%)" offset="0.21875"/><stop stop-opacity="1" stop-color="rgb(46.339417%, 63.847351%, 95.143127%)" offset="0.222656"/><stop stop-opacity="1" stop-color="rgb(46.411133%, 63.127136%, 95.051575%)" offset="0.226562"/><stop stop-opacity="1" stop-color="rgb(46.484375%, 62.406921%, 94.960022%)" offset="0.230469"/><stop stop-opacity="1" stop-color="rgb(46.557617%, 61.688232%, 94.868469%)" offset="0.234375"/><stop stop-opacity="1" stop-color="rgb(46.629333%, 60.968018%, 94.775391%)" offset="0.238281"/><stop stop-opacity="1" stop-color="rgb(46.702576%, 60.247803%, 94.683838%)" offset="0.242188"/><stop stop-opacity="1" stop-color="rgb(46.775818%, 59.527588%, 94.592285%)" offset="0.246094"/><stop stop-opacity="1" stop-color="rgb(46.847534%, 58.807373%, 94.500732%)" offset="0.25"/><stop stop-opacity="1" stop-color="rgb(46.920776%, 58.087158%, 94.407654%)" offset="0.253906"/><stop stop-opacity="1" stop-color="rgb(46.994019%, 57.368469%, 94.316101%)" offset="0.257812"/><stop stop-opacity="1" stop-color="rgb(47.065735%, 56.648254%, 94.224548%)" offset="0.261719"/><stop stop-opacity="1" stop-color="rgb(47.138977%, 55.92804%, 94.132996%)" offset="0.265625"/><stop stop-opacity="1" stop-color="rgb(47.212219%, 55.207825%, 94.039917%)" offset="0.269531"/><stop stop-opacity="1" stop-color="rgb(47.285461%, 54.48761%, 93.948364%)" offset="0.273438"/><stop stop-opacity="1" stop-color="rgb(47.357178%, 53.767395%, 93.856812%)" offset="0.277344"/><stop stop-opacity="1" stop-color="rgb(47.43042%, 53.048706%, 93.765259%)" offset="0.28125"/><stop stop-opacity="1" stop-color="rgb(47.503662%, 52.328491%, 93.673706%)" offset="0.285156"/><stop stop-opacity="1" stop-color="rgb(47.575378%, 51.608276%, 93.580627%)" offset="0.289062"/><stop stop-opacity="1" stop-color="rgb(47.648621%, 50.888062%, 93.489075%)" offset="0.292969"/><stop stop-opacity="1" stop-color="rgb(47.721863%, 50.167847%, 93.397522%)" offset="0.296875"/><stop stop-opacity="1" stop-color="rgb(47.795105%, 49.475098%, 93.309021%)" offset="0.300781"/><stop stop-opacity="1" stop-color="rgb(47.872925%, 48.84491%, 93.228149%)" offset="0.304688"/><stop stop-opacity="1" stop-color="rgb(47.953796%, 48.251343%, 93.153381%)" offset="0.308594"/><stop stop-opacity="1" stop-color="rgb(48.033142%, 47.657776%, 93.077087%)" offset="0.3125"/><stop stop-opacity="1" stop-color="rgb(48.112488%, 47.062683%, 93.000793%)" offset="0.316406"/><stop stop-opacity="1" stop-color="rgb(48.191833%, 46.469116%, 92.926025%)" offset="0.320312"/><stop stop-opacity="1" stop-color="rgb(48.272705%, 45.875549%, 92.849731%)" offset="0.324219"/><stop stop-opacity="1" stop-color="rgb(48.352051%, 45.281982%, 92.773438%)" offset="0.328125"/><stop stop-opacity="1" stop-color="rgb(48.431396%, 44.688416%, 92.698669%)" offset="0.332031"/><stop stop-opacity="1" stop-color="rgb(48.510742%, 44.093323%, 92.622375%)" offset="0.335938"/><stop stop-opacity="1" stop-color="rgb(48.590088%, 43.499756%, 92.546082%)" offset="0.339844"/><stop stop-opacity="1" stop-color="rgb(48.670959%, 42.906189%, 92.471313%)" offset="0.34375"/><stop stop-opacity="1" stop-color="rgb(48.750305%, 42.312622%, 92.39502%)" offset="0.347656"/><stop stop-opacity="1" stop-color="rgb(48.829651%, 41.717529%, 92.320251%)" offset="0.351562"/><stop stop-opacity="1" stop-color="rgb(48.908997%, 41.123962%, 92.243958%)" offset="0.355469"/><stop stop-opacity="1" stop-color="rgb(48.989868%, 40.530396%, 92.167664%)" offset="0.359375"/><stop stop-opacity="1" stop-color="rgb(49.069214%, 39.936829%, 92.092896%)" offset="0.363281"/><stop stop-opacity="1" stop-color="rgb(49.14856%, 39.343262%, 92.016602%)" offset="0.367188"/><stop stop-opacity="1" stop-color="rgb(49.227905%, 38.748169%, 91.940308%)" offset="0.371094"/><stop stop-opacity="1" stop-color="rgb(49.308777%, 38.154602%, 91.86554%)" offset="0.375"/><stop stop-opacity="1" stop-color="rgb(49.388123%, 37.561035%, 91.789246%)" offset="0.378906"/><stop stop-opacity="1" stop-color="rgb(49.467468%, 36.967468%, 91.712952%)" offset="0.382812"/><stop stop-opacity="1" stop-color="rgb(49.546814%, 36.372375%, 91.638184%)" offset="0.386719"/><stop stop-opacity="1" stop-color="rgb(49.627686%, 35.778809%, 91.56189%)" offset="0.390625"/><stop stop-opacity="1" stop-color="rgb(49.707031%, 35.185242%, 91.487122%)" offset="0.394531"/><stop stop-opacity="1" stop-color="rgb(49.781799%, 34.614563%, 91.412354%)" offset="0.398438"/><stop stop-opacity="1" stop-color="rgb(49.842834%, 34.106445%, 91.340637%)" offset="0.402344"/><stop stop-opacity="1" stop-color="rgb(49.89624%, 33.641052%, 91.270447%)" offset="0.40625"/><stop stop-opacity="1" stop-color="rgb(49.94812%, 33.175659%, 91.200256%)" offset="0.410156"/><stop stop-opacity="1" stop-color="rgb(50.001526%, 32.710266%, 91.12854%)" offset="0.414062"/><stop stop-opacity="1" stop-color="rgb(50.053406%, 32.244873%, 91.05835%)" offset="0.417969"/><stop stop-opacity="1" stop-color="rgb(50.106812%, 31.77948%, 90.988159%)" offset="0.421875"/><stop stop-opacity="1" stop-color="rgb(50.158691%, 31.314087%, 90.917969%)" offset="0.425781"/><stop stop-opacity="1" stop-color="rgb(50.212097%, 30.848694%, 90.847778%)" offset="0.429688"/><stop stop-opacity="1" stop-color="rgb(50.263977%, 30.383301%, 90.777588%)" offset="0.433594"/><stop stop-opacity="1" stop-color="rgb(50.317383%, 29.919434%, 90.707397%)" offset="0.4375"/><stop stop-opacity="1" stop-color="rgb(50.369263%, 29.454041%, 90.637207%)" offset="0.441406"/><stop stop-opacity="1" stop-color="rgb(50.422668%, 28.988647%, 90.567017%)" offset="0.445312"/><stop stop-opacity="1" stop-color="rgb(50.476074%, 28.523254%, 90.496826%)" offset="0.449219"/><stop stop-opacity="1" stop-color="rgb(50.527954%, 28.057861%, 90.426636%)" offset="0.453125"/><stop stop-opacity="1" stop-color="rgb(50.58136%, 27.592468%, 90.356445%)" offset="0.457031"/><stop stop-opacity="1" stop-color="rgb(50.63324%, 27.127075%, 90.286255%)" offset="0.460938"/><stop stop-opacity="1" stop-color="rgb(50.686646%, 26.661682%, 90.216064%)" offset="0.464844"/><stop stop-opacity="1" stop-color="rgb(50.738525%, 26.196289%, 90.145874%)" offset="0.46875"/><stop stop-opacity="1" stop-color="rgb(50.791931%, 25.730896%, 90.075684%)" offset="0.472656"/><stop stop-opacity="1" stop-color="rgb(50.843811%, 25.267029%, 90.005493%)" offset="0.476562"/><stop stop-opacity="1" stop-color="rgb(50.897217%, 24.801636%, 89.935303%)" offset="0.480469"/><stop stop-opacity="1" stop-color="rgb(50.949097%, 24.336243%, 89.865112%)" offset="0.484375"/><stop stop-opacity="1" stop-color="rgb(50.993347%, 23.9151%, 89.802551%)" offset="0.488281"/><stop stop-opacity="1" stop-color="rgb(51.019287%, 23.573303%, 89.756775%)" offset="0.492188"/><stop stop-opacity="1" stop-color="rgb(51.039124%, 23.265076%, 89.718628%)" offset="0.496094"/><stop stop-opacity="1" stop-color="rgb(51.05896%, 22.958374%, 89.678955%)" offset="0.5"/><stop stop-opacity="1" stop-color="rgb(51.077271%, 22.650146%, 89.640808%)" offset="0.503906"/><stop stop-opacity="1" stop-color="rgb(51.097107%, 22.341919%, 89.601135%)" offset="0.507812"/><stop stop-opacity="1" stop-color="rgb(51.116943%, 22.035217%, 89.561462%)" offset="0.511719"/><stop stop-opacity="1" stop-color="rgb(51.13678%, 21.72699%, 89.523315%)" offset="0.515625"/><stop stop-opacity="1" stop-color="rgb(51.156616%, 21.420288%, 89.483643%)" offset="0.519531"/><stop stop-opacity="1" stop-color="rgb(51.174927%, 21.112061%, 89.445496%)" offset="0.523438"/><stop stop-opacity="1" stop-color="rgb(51.194763%, 20.803833%, 89.405823%)" offset="0.527344"/><stop stop-opacity="1" stop-color="rgb(51.2146%, 20.497131%, 89.36615%)" offset="0.53125"/><stop stop-opacity="1" stop-color="rgb(51.234436%, 20.188904%, 89.328003%)" offset="0.535156"/><stop stop-opacity="1" stop-color="rgb(51.254272%, 19.882202%, 89.28833%)" offset="0.539062"/><stop stop-opacity="1" stop-color="rgb(51.272583%, 19.573975%, 89.250183%)" offset="0.542969"/><stop stop-opacity="1" stop-color="rgb(51.292419%, 19.265747%, 89.21051%)" offset="0.546875"/><stop stop-opacity="1" stop-color="rgb(51.312256%, 18.959045%, 89.170837%)" offset="0.550781"/><stop stop-opacity="1" stop-color="rgb(51.332092%, 18.650818%, 89.13269%)" offset="0.554688"/><stop stop-opacity="1" stop-color="rgb(51.351929%, 18.344116%, 89.093018%)" offset="0.558594"/><stop stop-opacity="1" stop-color="rgb(51.370239%, 18.035889%, 89.054871%)" offset="0.5625"/><stop stop-opacity="1" stop-color="rgb(51.390076%, 17.733765%, 89.015198%)" offset="0.566406"/><stop stop-opacity="1" stop-color="rgb(51.412964%, 17.512512%, 88.983154%)" offset="0.570312"/><stop stop-opacity="1" stop-color="rgb(51.44043%, 17.362976%, 88.957214%)" offset="0.574219"/><stop stop-opacity="1" stop-color="rgb(51.46637%, 17.21344%, 88.931274%)" offset="0.578125"/><stop stop-opacity="1" stop-color="rgb(51.49231%, 17.062378%, 88.905334%)" offset="0.582031"/><stop stop-opacity="1" stop-color="rgb(51.51825%, 16.912842%, 88.879395%)" offset="0.585938"/><stop stop-opacity="1" stop-color="rgb(51.544189%, 16.763306%, 88.853455%)" offset="0.589844"/><stop stop-opacity="1" stop-color="rgb(51.570129%, 16.61377%, 88.827515%)" offset="0.59375"/><stop stop-opacity="1" stop-color="rgb(51.596069%, 16.464233%, 88.801575%)" offset="0.597656"/><stop stop-opacity="1" stop-color="rgb(51.622009%, 16.314697%, 88.775635%)" offset="0.601562"/><stop stop-opacity="1" stop-color="rgb(51.647949%, 16.165161%, 88.749695%)" offset="0.605469"/><stop stop-opacity="1" stop-color="rgb(51.673889%, 16.015625%, 88.723755%)" offset="0.609375"/><stop stop-opacity="1" stop-color="rgb(51.699829%, 15.864563%, 88.696289%)" offset="0.613281"/><stop stop-opacity="1" stop-color="rgb(51.725769%, 15.715027%, 88.670349%)" offset="0.617188"/><stop stop-opacity="1" stop-color="rgb(51.768494%, 15.46936%, 88.627625%)" offset="0.621094"/><stop stop-opacity="1" stop-color="rgb(51.799011%, 15.299988%, 88.598633%)" offset="1"/></radialGradient></defs><path fill="#8427e2" d="M 316.503906 220.957031 C 317.730469 220.957031 318.34375 221.570312 318.648438 223.101562 C 321.101562 231.390625 328.761719 235.683594 337.648438 235.683594 C 346.226562 235.683594 352.664062 231.695312 352.664062 224.945312 C 352.664062 219.113281 348.679688 215.125 338.566406 212.054688 L 327.230469 208.679688 C 310.375 203.769531 299.34375 193.335938 299.34375 177.070312 C 299.34375 157.429688 313.746094 145.464844 335.195312 145.464844 C 356.644531 145.464844 370.128906 159.886719 372.273438 174.921875 C 372.578125 176.457031 371.355469 177.992188 369.515625 177.992188 L 352.664062 177.992188 C 351.128906 177.992188 350.515625 177.378906 350.210938 176.152344 C 347.148438 168.171875 341.019531 165.71875 335.195312 165.71875 C 327.535156 165.71875 321.40625 169.398438 321.40625 175.539062 C 321.40625 182.289062 326.003906 185.664062 334.890625 188.425781 L 346.839844 191.800781 C 364.304688 196.710938 374.417969 207.453125 374.417969 224.023438 C 374.417969 242.128906 359.710938 255.632812 337.339844 255.632812 C 313.132812 255.632812 299.039062 240.289062 296.585938 223.71875 C 296.28125 222.183594 297.8125 220.648438 299.34375 220.648438 L 316.503906 220.648438 Z M 231.625 146.996094 L 291.070312 146.996094 C 292.601562 146.996094 293.828125 148.226562 293.828125 149.757812 L 293.828125 165.101562 C 293.828125 166.636719 292.601562 167.863281 291.070312 167.863281 L 250.625 167.863281 L 250.625 189.960938 L 281.570312 189.960938 C 283.105469 189.960938 284.328125 191.1875 284.328125 192.722656 L 284.328125 208.066406 C 284.328125 209.601562 283.105469 210.828125 281.570312 210.828125 L 250.625 210.828125 L 250.625 251.335938 C 250.625 252.871094 249.398438 254.097656 247.867188 254.097656 L 231.625 254.097656 C 230.09375 254.097656 228.867188 252.871094 228.867188 251.335938 L 228.867188 149.757812 C 228.867188 148.226562 229.785156 146.996094 231.625 146.996094 M 198.53125 146.996094 L 215.078125 146.996094 C 216.609375 146.996094 217.835938 148.226562 217.835938 149.757812 L 217.835938 251.335938 C 217.835938 252.871094 216.609375 254.097656 215.078125 254.097656 L 198.835938 254.097656 C 197.304688 254.097656 196.078125 252.871094 196.078125 251.335938 L 196.078125 149.757812 C 195.773438 148.226562 197 146.996094 198.53125 146.996094 " fill-opacity="1" fill-rule="nonzero"/><g clip-path="url(#985dbe357e)"><g clip-path="url(#080a221fbb)"><path fill="url(#7f4fca60d7)" d="M 0.582031 285.707031 L 0.582031 112.011719 L 174.628906 112.011719 L 174.628906 285.707031 Z M 0.582031 285.707031 " fill-rule="nonzero"/></g></g></svg>