<svg xmlns="http://www.w3.org/2000/svg" xmlns:xlink="http://www.w3.org/1999/xlink" width="500" zoomAndPan="magnify" viewBox="0 0 375 374.999991" height="500" preserveAspectRatio="xMidYMid meet" version="1.0"><defs><clipPath id="d8d00a319b"><path d="M 17.316406 147.222656 L 124 147.222656 L 124 227.472656 L 17.316406 227.472656 Z M 17.316406 147.222656 " clip-rule="nonzero"/></clipPath><clipPath id="c7aede94e2"><path d="M 142 165 L 357.816406 165 L 357.816406 209 L 142 209 Z M 142 165 " clip-rule="nonzero"/></clipPath></defs><g clip-path="url(#d8d00a319b)"><path fill="#ee0000" d="M 88 193.445312 C 95.011719 193.445312 105.03125 192.003906 105.03125 183.800781 C 105.03125 183.136719 105.03125 182.582031 104.808594 181.917969 L 100.691406 163.957031 C 99.6875 159.964844 98.910156 158.191406 91.894531 154.753906 C 86.554688 151.984375 74.753906 147.4375 71.304688 147.4375 C 68.074219 147.4375 67.074219 151.652344 63.289062 151.652344 C 59.617188 151.652344 56.832031 148.546875 53.382812 148.546875 C 50.042969 148.546875 47.816406 150.765625 46.148438 155.421875 C 46.148438 155.421875 41.472656 168.613281 40.914062 170.496094 C 40.804688 170.832031 40.804688 171.164062 40.804688 171.605469 C 40.691406 176.707031 60.953125 193.445312 88 193.445312 M 106.144531 187.125 C 107.144531 191.671875 107.144531 192.117188 107.144531 192.78125 C 107.144531 200.539062 98.351562 204.863281 86.886719 204.863281 C 60.730469 204.863281 37.910156 189.566406 37.910156 179.589844 C 37.910156 178.148438 38.246094 176.816406 38.800781 175.488281 C 29.449219 176.039062 17.316406 177.59375 17.316406 188.347656 C 17.316406 205.75 58.835938 227.257812 91.671875 227.257812 C 116.828125 227.257812 123.175781 215.949219 123.175781 206.972656 C 123.285156 199.875 117.164062 191.894531 106.144531 187.125 " fill-opacity="1" fill-rule="nonzero"/></g><path fill="#000000" d="M 106.144531 187.125 C 107.144531 191.671875 107.144531 192.117188 107.144531 192.78125 C 107.144531 200.539062 98.351562 204.863281 86.886719 204.863281 C 60.730469 204.863281 37.910156 189.566406 37.910156 179.589844 C 37.910156 178.148438 38.246094 176.816406 38.800781 175.488281 L 40.804688 170.496094 C 40.691406 170.832031 40.691406 171.164062 40.691406 171.605469 C 40.691406 176.707031 60.839844 193.445312 88 193.445312 C 95.011719 193.445312 105.03125 192.003906 105.03125 183.800781 C 105.03125 183.136719 105.03125 182.582031 104.808594 181.917969 Z M 106.144531 187.125 " fill-opacity="1" fill-rule="nonzero"/><g clip-path="url(#c7aede94e2)"><path fill="#000000" d="M 339.675781 198.65625 C 339.675781 205.195312 343.679688 208.410156 350.917969 208.410156 C 353.144531 208.410156 355.367188 208.078125 357.484375 207.523438 L 357.484375 199.875 C 356.148438 200.320312 354.699219 200.539062 353.253906 200.539062 C 350.25 200.539062 349.136719 199.652344 349.136719 196.773438 L 349.136719 185.019531 L 357.816406 185.019531 L 357.816406 177.148438 L 349.136719 177.148438 L 349.136719 167.171875 L 339.675781 169.167969 L 339.675781 177.148438 L 333.441406 177.148438 L 333.441406 185.019531 L 339.675781 185.019531 Z M 310.175781 198.765625 C 310.175781 196.773438 312.179688 195.773438 315.296875 195.773438 C 317.1875 195.773438 319.082031 195.996094 320.863281 196.4375 L 320.863281 200.429688 C 319.082031 201.429688 316.964844 201.871094 314.964844 201.871094 C 312.070312 201.871094 310.175781 200.652344 310.175781 198.765625 M 313.070312 208.523438 C 316.410156 208.523438 319.082031 207.859375 321.640625 206.082031 L 321.640625 207.96875 L 330.992188 207.96875 L 330.992188 188.234375 C 330.992188 180.695312 325.871094 176.59375 317.410156 176.59375 C 312.625 176.59375 307.949219 177.703125 302.941406 179.921875 L 306.28125 186.90625 C 309.953125 185.351562 312.960938 184.464844 315.632812 184.464844 C 319.527344 184.464844 321.53125 186.019531 321.53125 189.121094 L 321.53125 190.675781 C 319.191406 190.121094 316.855469 189.789062 314.519531 189.789062 C 306.503906 189.789062 301.71875 193.113281 301.71875 199.101562 C 301.828125 204.421875 306.167969 208.523438 313.070312 208.523438 M 261.644531 207.96875 L 271.664062 207.96875 L 271.664062 192.003906 L 288.472656 192.003906 L 288.472656 207.96875 L 298.601562 207.96875 L 298.601562 167.171875 L 288.582031 167.171875 L 288.582031 182.914062 L 271.773438 182.914062 L 271.773438 167.171875 L 261.757812 167.171875 Z M 223.355469 192.558594 C 223.355469 188.125 226.917969 184.796875 231.480469 184.796875 C 233.929688 184.796875 236.265625 185.574219 238.046875 187.238281 L 238.046875 197.992188 C 236.265625 199.652344 233.929688 200.539062 231.480469 200.429688 C 226.917969 200.429688 223.355469 196.992188 223.355469 192.558594 M 238.160156 207.96875 L 247.507812 207.96875 L 247.507812 165.175781 L 238.046875 167.171875 L 238.046875 178.8125 C 235.597656 177.480469 232.925781 176.707031 230.144531 176.816406 C 221.128906 176.816406 214.003906 183.800781 214.003906 192.558594 C 213.894531 201.207031 220.792969 208.300781 229.476562 208.410156 C 229.585938 208.410156 229.699219 208.410156 229.808594 208.410156 C 232.816406 208.410156 235.710938 207.523438 238.160156 205.75 Z M 195.191406 184.246094 C 198.199219 184.246094 200.648438 186.128906 201.648438 189.121094 L 188.738281 189.121094 C 189.628906 186.128906 191.964844 184.246094 195.191406 184.246094 M 179.164062 192.667969 C 179.164062 201.648438 186.511719 208.632812 195.972656 208.632812 C 201.203125 208.632812 204.988281 207.191406 208.882812 203.976562 L 202.652344 198.433594 C 201.203125 199.988281 198.976562 200.761719 196.417969 200.761719 C 193.078125 200.875 190.074219 198.878906 188.847656 195.886719 L 211 195.886719 L 211 193.558594 C 211 183.800781 204.429688 176.707031 195.414062 176.707031 C 186.621094 176.59375 179.386719 183.578125 179.273438 192.335938 C 179.164062 192.335938 179.164062 192.449219 179.164062 192.667969 M 162.914062 175.707031 C 166.25 175.707031 168.144531 177.816406 168.144531 180.363281 C 168.144531 182.914062 166.25 185.019531 162.914062 185.019531 L 153.003906 185.019531 L 153.003906 175.820312 L 162.914062 175.820312 Z M 142.875 207.96875 L 152.894531 207.96875 L 152.894531 193.113281 L 160.574219 193.113281 L 168.253906 207.96875 L 179.496094 207.96875 L 170.480469 191.671875 C 175.15625 189.789062 178.273438 185.242188 178.160156 180.144531 C 178.160156 172.824219 172.375 167.171875 163.691406 167.171875 L 142.765625 167.171875 L 142.765625 207.96875 Z M 142.875 207.96875 " fill-opacity="1" fill-rule="nonzero"/></g></svg>