<svg xmlns="http://www.w3.org/2000/svg" xmlns:xlink="http://www.w3.org/1999/xlink" width="500" zoomAndPan="magnify" viewBox="0 0 375 374.999991" height="500" preserveAspectRatio="xMidYMid meet" version="1.0"><defs><clipPath id="941377162a"><path d="M 38 217 L 88 217 L 88 283.183594 L 38 283.183594 Z M 38 217 " clip-rule="nonzero"/></clipPath><clipPath id="d774934c2a"><path d="M 204 217 L 254 217 L 254 283.183594 L 204 283.183594 Z M 204 217 " clip-rule="nonzero"/></clipPath><clipPath id="329a173849"><path d="M 108 217 L 337 217 L 337 283.183594 L 108 283.183594 Z M 108 217 " clip-rule="nonzero"/></clipPath><clipPath id="13ce800bf9"><path d="M 6.429688 143 L 23 143 L 23 176 L 6.429688 176 Z M 6.429688 143 " clip-rule="nonzero"/></clipPath><clipPath id="5c053fd651"><path d="M 353 143 L 368.679688 143 L 368.679688 176 L 353 176 Z M 353 143 " clip-rule="nonzero"/></clipPath></defs><g clip-path="url(#941377162a)"><path fill="#00bceb" d="M 87.019531 280.757812 L 87.019531 263.976562 L 86.6875 264.121094 C 82.867188 265.96875 78.835938 266.992188 74.597656 267.191406 C 72.417969 267.359375 70.277344 267.136719 68.179688 266.519531 C 66.082031 265.898438 64.160156 264.925781 62.421875 263.597656 C 61.179688 262.640625 60.105469 261.519531 59.203125 260.234375 C 58.300781 258.953125 57.605469 257.5625 57.121094 256.070312 C 56.03125 252.75 55.914062 249.394531 56.765625 246.003906 C 57.15625 244.304688 57.8125 242.71875 58.738281 241.242188 C 59.664062 239.765625 60.804688 238.484375 62.164062 237.394531 C 64.628906 235.332031 67.453125 234.113281 70.644531 233.738281 C 73.402344 233.429688 76.144531 233.535156 78.871094 234.046875 C 81.601562 234.558594 84.195312 235.457031 86.65625 236.742188 L 87.019531 236.929688 L 87.019531 220.050781 L 86.253906 219.847656 C 81.285156 218.25 76.195312 217.585938 70.984375 217.847656 C 66.230469 217.96875 61.6875 219.007812 57.351562 220.96875 C 52.960938 222.980469 49.238281 225.855469 46.183594 229.597656 C 45.046875 231.035156 44.035156 232.558594 43.148438 234.164062 C 42.257812 235.769531 41.507812 237.4375 40.894531 239.164062 C 40.277344 240.894531 39.808594 242.660156 39.484375 244.46875 C 39.15625 246.273438 38.980469 248.09375 38.953125 249.925781 C 38.925781 251.761719 39.046875 253.585938 39.320312 255.402344 C 39.589844 257.214844 40.007812 258.996094 40.570312 260.742188 C 41.132812 262.488281 41.835938 264.175781 42.675781 265.808594 C 43.515625 267.4375 44.480469 268.992188 45.574219 270.464844 C 47.804688 273.316406 50.4375 275.71875 53.480469 277.679688 C 56.527344 279.636719 59.804688 281.039062 63.324219 281.882812 C 70.742188 283.6875 78.511719 283.414062 85.785156 281.097656 L 87.019531 280.757812 " fill-opacity="1" fill-rule="evenodd"/></g><g clip-path="url(#d774934c2a)"><path fill="#00bceb" d="M 253.046875 280.757812 L 253.046875 263.976562 L 252.714844 264.121094 C 248.894531 265.96875 244.863281 266.992188 240.625 267.191406 C 238.445312 267.359375 236.304688 267.136719 234.207031 266.519531 C 232.109375 265.898438 230.1875 264.925781 228.449219 263.597656 C 227.207031 262.640625 226.132812 261.519531 225.230469 260.234375 C 224.328125 258.953125 223.632812 257.5625 223.148438 256.070312 C 222.058594 252.75 221.941406 249.394531 222.792969 246.003906 C 223.183594 244.304688 223.839844 242.71875 224.765625 241.242188 C 225.6875 239.765625 226.832031 238.484375 228.191406 237.394531 C 230.65625 235.332031 233.480469 234.113281 236.671875 233.738281 C 239.429688 233.429688 242.171875 233.535156 244.898438 234.046875 C 247.628906 234.558594 250.222656 235.457031 252.683594 236.742188 L 253.046875 236.929688 L 253.046875 220.050781 L 252.28125 219.847656 C 247.3125 218.25 242.222656 217.585938 237.011719 217.847656 C 232.257812 217.96875 227.714844 219.007812 223.378906 220.96875 C 218.988281 222.980469 215.265625 225.855469 212.210938 229.597656 C 211.074219 231.035156 210.0625 232.558594 209.175781 234.164062 C 208.285156 235.769531 207.535156 237.4375 206.921875 239.164062 C 206.304688 240.894531 205.835938 242.660156 205.511719 244.46875 C 205.183594 246.273438 205.007812 248.09375 204.980469 249.925781 C 204.953125 251.761719 205.074219 253.585938 205.347656 255.402344 C 205.617188 257.214844 206.035156 258.996094 206.597656 260.742188 C 207.160156 262.488281 207.863281 264.175781 208.703125 265.808594 C 209.542969 267.4375 210.507812 268.992188 211.601562 270.464844 C 213.832031 273.316406 216.464844 275.71875 219.507812 277.679688 C 222.550781 279.636719 225.832031 281.039062 229.351562 281.882812 C 236.765625 283.6875 244.539062 283.414062 251.8125 281.097656 L 253.046875 280.757812 " fill-opacity="1" fill-rule="evenodd"/></g><g clip-path="url(#329a173849)"><path fill="#00bceb" d="M 146.265625 266.828125 L 146.199219 281.28125 L 147.257812 281.464844 C 150.574219 282.082031 153.921875 282.511719 157.285156 282.753906 C 160.234375 283.027344 163.1875 283.085938 166.148438 282.925781 C 168.972656 282.722656 171.765625 282.195312 174.464844 281.355469 C 177.675781 280.449219 180.550781 278.914062 183.09375 276.753906 C 185.394531 274.789062 187.070312 272.386719 188.121094 269.546875 C 189.019531 267.210938 189.460938 264.789062 189.441406 262.285156 C 189.425781 259.78125 188.949219 257.363281 188.019531 255.039062 C 187.023438 252.59375 185.523438 250.507812 183.515625 248.792969 C 181.582031 247.050781 179.378906 245.765625 176.90625 244.945312 L 166.007812 240.898438 C 164.660156 240.324219 163.667969 239.378906 163.03125 238.0625 C 162.792969 237.53125 162.683594 236.976562 162.703125 236.394531 C 162.722656 235.8125 162.875 235.265625 163.152344 234.753906 C 163.347656 234.394531 163.589844 234.070312 163.878906 233.777344 C 164.351562 233.296875 164.886719 232.910156 165.488281 232.613281 C 166.707031 232.007812 168.023438 231.628906 169.375 231.484375 C 171.695312 231.148438 174.011719 231.171875 176.324219 231.558594 C 179.039062 231.851562 181.734375 232.332031 184.378906 233 L 184.945312 233.125 L 184.945312 219.789062 L 183.902344 219.566406 C 181.199219 218.917969 178.46875 218.429688 175.707031 218.105469 C 172.117188 217.625 168.523438 217.609375 164.929688 218.058594 C 162.664062 218.265625 160.472656 218.796875 158.359375 219.644531 C 156.25 220.496094 154.300781 221.628906 152.523438 223.050781 C 150.0625 224.984375 148.296875 227.417969 147.222656 230.359375 C 146.433594 232.554688 146.035156 234.820312 146.035156 237.152344 C 146.03125 239.484375 146.425781 241.75 147.214844 243.949219 C 148.023438 246.128906 149.328125 248.097656 151.023438 249.699219 C 152.488281 251.113281 154.148438 252.316406 155.953125 253.273438 C 158.328125 254.546875 160.84375 255.535156 163.449219 256.21875 C 164.3125 256.476562 165.167969 256.746094 166.019531 257.035156 L 167.3125 257.507812 L 167.679688 257.65625 C 168.953125 258.113281 170.113281 258.832031 171.09375 259.765625 C 171.773438 260.402344 172.296875 261.183594 172.621094 262.054688 C 172.820312 262.851562 172.824219 263.683594 172.628906 264.480469 C 172.425781 265.125 172.109375 265.707031 171.675781 266.222656 C 171.246094 266.742188 170.730469 267.160156 170.136719 267.476562 C 168.828125 268.15625 167.441406 268.589844 165.980469 268.773438 C 163.84375 269.113281 161.699219 269.222656 159.539062 269.097656 C 156.714844 268.886719 153.914062 268.511719 151.132812 267.976562 C 149.679688 267.675781 148.234375 267.339844 146.800781 266.960938 Z M 108.886719 281.867188 L 124.75 281.867188 L 124.75 218.917969 L 108.886719 218.917969 Z M 292.554688 237.503906 C 292.976562 237.160156 293.414062 236.839844 293.871094 236.535156 C 294.324219 236.234375 294.792969 235.957031 295.273438 235.703125 C 295.757812 235.449219 296.25 235.21875 296.753906 235.011719 C 297.261719 234.804688 297.773438 234.625 298.296875 234.46875 C 298.820312 234.316406 299.347656 234.1875 299.886719 234.082031 C 300.421875 233.980469 300.960938 233.902344 301.503906 233.855469 C 302.046875 233.804688 302.589844 233.78125 303.136719 233.785156 C 303.679688 233.789062 304.226562 233.820312 304.765625 233.878906 C 305.308594 233.9375 305.847656 234.023438 306.382812 234.132812 C 306.914062 234.246094 307.441406 234.382812 307.960938 234.546875 C 308.484375 234.710938 308.996094 234.898438 309.496094 235.113281 C 309.996094 235.328125 310.488281 235.566406 310.964844 235.828125 C 311.445312 236.089844 311.90625 236.375 312.359375 236.683594 C 312.808594 236.992188 313.242188 237.320312 313.660156 237.671875 C 314.074219 238.023438 314.476562 238.394531 314.855469 238.785156 C 315.234375 239.175781 315.597656 239.585938 315.9375 240.011719 C 316.277344 240.4375 316.597656 240.878906 316.890625 241.335938 C 317.1875 241.796875 317.460938 242.265625 317.710938 242.75 C 317.960938 243.238281 318.1875 243.730469 318.390625 244.238281 C 318.589844 244.746094 318.765625 245.261719 318.914062 245.785156 C 319.066406 246.3125 319.1875 246.84375 319.285156 247.378906 C 319.382812 247.914062 319.457031 248.457031 319.5 249 C 319.542969 249.542969 319.5625 250.089844 319.550781 250.632812 C 319.542969 251.179688 319.503906 251.722656 319.441406 252.265625 C 319.378906 252.808594 319.289062 253.34375 319.171875 253.878906 C 319.054688 254.410156 318.914062 254.9375 318.746094 255.453125 C 318.574219 255.972656 318.382812 256.484375 318.164062 256.984375 C 317.945312 257.484375 317.703125 257.96875 317.433594 258.445312 C 317.167969 258.921875 316.878906 259.382812 316.566406 259.832031 C 316.253906 260.277344 315.917969 260.707031 315.5625 261.121094 C 315.207031 261.535156 314.832031 261.929688 314.441406 262.308594 C 314.046875 262.683594 313.632812 263.042969 313.203125 263.378906 C 312.351562 264.035156 311.445312 264.605469 310.484375 265.085938 C 309.523438 265.566406 308.523438 265.953125 307.484375 266.238281 C 306.449219 266.523438 305.394531 266.707031 304.320312 266.789062 C 303.25 266.867188 302.179688 266.84375 301.113281 266.714844 C 300.042969 266.585938 299 266.355469 297.976562 266.023438 C 296.953125 265.691406 295.972656 265.265625 295.03125 264.742188 C 294.09375 264.21875 293.210938 263.609375 292.390625 262.914062 C 291.570312 262.21875 290.824219 261.449219 290.152344 260.609375 C 289.480469 259.769531 288.898438 258.871094 288.402344 257.917969 C 287.90625 256.960938 287.507812 255.96875 287.203125 254.9375 C 286.902344 253.902344 286.703125 252.851562 286.605469 251.78125 C 286.507812 250.707031 286.511719 249.636719 286.625 248.566406 C 286.734375 247.496094 286.949219 246.449219 287.265625 245.417969 C 287.582031 244.390625 287.992188 243.402344 288.5 242.453125 C 289.007812 241.507812 289.605469 240.617188 290.285156 239.785156 C 290.96875 238.953125 291.722656 238.195312 292.554688 237.507812 M 269.519531 250.421875 C 269.539062 251.644531 269.625 252.863281 269.78125 254.078125 C 269.933594 255.292969 270.15625 256.496094 270.441406 257.6875 C 270.730469 258.878906 271.082031 260.046875 271.5 261.199219 C 271.917969 262.351562 272.394531 263.476562 272.9375 264.574219 C 273.480469 265.671875 274.082031 266.738281 274.742188 267.769531 C 275.402344 268.800781 276.117188 269.792969 276.886719 270.742188 C 277.65625 271.695312 278.476562 272.601562 279.347656 273.460938 C 280.21875 274.324219 281.132812 275.132812 282.09375 275.894531 C 283.054688 276.652344 284.054688 277.355469 285.09375 278.003906 C 286.132812 278.652344 287.203125 279.242188 288.308594 279.773438 C 289.410156 280.300781 290.539062 280.769531 291.695312 281.171875 C 292.851562 281.578125 294.027344 281.914062 295.21875 282.1875 C 296.414062 282.464844 297.617188 282.667969 298.835938 282.808594 C 300.050781 282.949219 301.269531 283.023438 302.496094 283.027344 C 303.71875 283.03125 304.941406 282.96875 306.15625 282.839844 C 307.375 282.707031 308.582031 282.507812 309.777344 282.246094 C 311.378906 281.941406 312.945312 281.523438 314.484375 280.984375 C 316.023438 280.445312 317.511719 279.792969 318.949219 279.027344 C 320.386719 278.265625 321.761719 277.394531 323.070312 276.421875 C 324.375 275.449219 325.605469 274.386719 326.75 273.226562 C 327.898438 272.070312 328.949219 270.832031 329.910156 269.511719 C 330.867188 268.195312 331.722656 266.8125 332.472656 265.367188 C 333.222656 263.917969 333.859375 262.425781 334.382812 260.878906 C 334.90625 259.335938 335.3125 257.761719 335.597656 256.160156 C 335.882812 254.554688 336.046875 252.9375 336.085938 251.308594 C 336.128906 249.679688 336.046875 248.054688 335.84375 246.4375 C 335.636719 244.820312 335.3125 243.226562 334.867188 241.660156 C 334.421875 240.09375 333.859375 238.566406 333.183594 237.085938 C 332.507812 235.601562 331.722656 234.179688 330.832031 232.8125 C 329.941406 231.449219 328.949219 230.160156 327.863281 228.945312 C 326.777344 227.730469 325.605469 226.605469 324.347656 225.570312 C 323.089844 224.53125 321.761719 223.59375 320.363281 222.757812 C 319.121094 221.988281 317.832031 221.304688 316.496094 220.703125 C 315.164062 220.101562 313.796875 219.59375 312.394531 219.171875 C 310.992188 218.753906 309.570312 218.425781 308.125 218.195312 C 306.679688 217.960938 305.226562 217.824219 303.765625 217.78125 C 302.300781 217.742188 300.84375 217.796875 299.386719 217.949219 C 297.933594 218.097656 296.492188 218.34375 295.070312 218.6875 C 293.648438 219.027344 292.253906 219.460938 290.886719 219.984375 C 289.523438 220.507812 288.195312 221.121094 286.910156 221.820312 C 285.625 222.519531 284.390625 223.300781 283.210938 224.160156 C 282.027344 225.023438 280.90625 225.957031 279.847656 226.96875 C 278.789062 227.976562 277.800781 229.050781 276.882812 230.191406 C 275.964844 231.332031 275.125 232.527344 274.363281 233.777344 C 273.605469 235.027344 272.929688 236.320312 272.339844 237.660156 C 271.75 239 271.25 240.371094 270.839844 241.777344 C 270.429688 243.183594 270.117188 244.609375 269.894531 246.054688 C 269.671875 247.5 269.546875 248.957031 269.515625 250.421875 " fill-opacity="1" fill-rule="evenodd"/></g><g clip-path="url(#13ce800bf9)"><path fill="#00bceb" d="M 6.433594 168.332031 C 6.488281 169.066406 6.644531 169.785156 6.90625 170.476562 C 7.164062 171.171875 7.511719 171.816406 7.953125 172.410156 C 8.390625 173.007812 8.90625 173.53125 9.492188 173.980469 C 10.078125 174.429688 10.71875 174.792969 11.40625 175.0625 C 12.09375 175.332031 12.808594 175.503906 13.546875 175.574219 C 14.28125 175.640625 15.015625 175.609375 15.742188 175.472656 C 16.46875 175.335938 17.164062 175.097656 17.824219 174.765625 C 18.484375 174.433594 19.085938 174.015625 19.628906 173.515625 C 21.085938 172.160156 21.980469 170.308594 22.125 168.332031 L 22.125 150.882812 C 22.117188 150.375 22.054688 149.871094 21.949219 149.375 C 21.839844 148.878906 21.683594 148.394531 21.484375 147.929688 C 21.28125 147.460938 21.035156 147.019531 20.75 146.597656 C 20.460938 146.179688 20.132812 145.792969 19.769531 145.4375 C 19.40625 145.082031 19.015625 144.761719 18.589844 144.484375 C 18.164062 144.203125 17.714844 143.96875 17.246094 143.777344 C 16.773438 143.582031 16.289062 143.4375 15.789062 143.339844 C 15.292969 143.242188 14.789062 143.195312 14.277344 143.195312 C 13.769531 143.195312 13.265625 143.242188 12.769531 143.339844 C 12.269531 143.4375 11.785156 143.582031 11.3125 143.777344 C 10.84375 143.96875 10.394531 144.203125 9.96875 144.484375 C 9.542969 144.761719 9.152344 145.082031 8.789062 145.4375 C 8.425781 145.792969 8.097656 146.179688 7.808594 146.597656 C 7.523438 147.019531 7.277344 147.460938 7.074219 147.929688 C 6.875 148.394531 6.71875 148.878906 6.609375 149.375 C 6.503906 149.871094 6.441406 150.375 6.433594 150.882812 L 6.433594 168.332031 " fill-opacity="1" fill-rule="evenodd"/></g><path fill="#00bceb" d="M 49.867188 168.332031 C 49.90625 168.820312 49.988281 169.304688 50.117188 169.777344 C 50.242188 170.253906 50.414062 170.714844 50.628906 171.15625 C 50.839844 171.601562 51.09375 172.019531 51.386719 172.414062 C 51.679688 172.8125 52.003906 173.175781 52.367188 173.511719 C 52.726562 173.84375 53.113281 174.144531 53.53125 174.40625 C 53.945312 174.667969 54.382812 174.886719 54.84375 175.066406 C 55.300781 175.25 55.769531 175.382812 56.253906 175.476562 C 56.738281 175.566406 57.222656 175.613281 57.714844 175.613281 C 58.207031 175.613281 58.695312 175.570312 59.179688 175.476562 C 59.664062 175.386719 60.132812 175.25 60.589844 175.070312 C 61.046875 174.890625 61.484375 174.667969 61.902344 174.40625 C 62.320312 174.144531 62.707031 173.847656 63.066406 173.511719 C 63.429688 173.175781 63.753906 172.8125 64.046875 172.417969 C 64.339844 172.019531 64.589844 171.601562 64.804688 171.15625 C 65.019531 170.714844 65.1875 170.253906 65.316406 169.777344 C 65.441406 169.304688 65.523438 168.820312 65.5625 168.332031 L 65.5625 129.21875 C 65.542969 128.714844 65.476562 128.21875 65.363281 127.726562 C 65.25 127.234375 65.089844 126.757812 64.886719 126.300781 C 64.679688 125.839844 64.433594 125.402344 64.144531 124.988281 C 63.855469 124.578125 63.527344 124.195312 63.167969 123.847656 C 62.804688 123.496094 62.410156 123.183594 61.988281 122.910156 C 61.566406 122.636719 61.121094 122.40625 60.65625 122.214844 C 60.1875 122.027344 59.707031 121.882812 59.210938 121.789062 C 58.71875 121.691406 58.21875 121.644531 57.714844 121.644531 C 57.210938 121.644531 56.710938 121.691406 56.21875 121.789062 C 55.722656 121.882812 55.242188 122.027344 54.773438 122.214844 C 54.308594 122.40625 53.863281 122.636719 53.441406 122.910156 C 53.019531 123.183594 52.625 123.496094 52.261719 123.847656 C 51.898438 124.195312 51.574219 124.578125 51.285156 124.988281 C 50.996094 125.402344 50.75 125.839844 50.542969 126.300781 C 50.339844 126.757812 50.179688 127.234375 50.066406 127.726562 C 49.953125 128.21875 49.886719 128.714844 49.867188 129.21875 L 49.867188 168.332031 " fill-opacity="1" fill-rule="evenodd"/><path fill="#00bceb" d="M 93.074219 184.082031 C 93.109375 184.574219 93.191406 185.058594 93.316406 185.535156 C 93.445312 186.011719 93.613281 186.472656 93.824219 186.917969 C 94.039062 187.363281 94.289062 187.78125 94.582031 188.179688 C 94.875 188.578125 95.199219 188.945312 95.5625 189.28125 C 95.921875 189.617188 96.3125 189.914062 96.726562 190.175781 C 97.144531 190.441406 97.582031 190.660156 98.039062 190.84375 C 98.5 191.023438 98.972656 191.160156 99.453125 191.25 C 99.9375 191.34375 100.425781 191.390625 100.921875 191.390625 C 101.414062 191.390625 101.902344 191.34375 102.386719 191.25 C 102.871094 191.160156 103.339844 191.023438 103.800781 190.84375 C 104.257812 190.660156 104.695312 190.441406 105.113281 190.175781 C 105.53125 189.914062 105.917969 189.617188 106.28125 189.28125 C 106.640625 188.945312 106.964844 188.578125 107.257812 188.179688 C 107.550781 187.78125 107.800781 187.363281 108.015625 186.917969 C 108.226562 186.472656 108.398438 186.011719 108.523438 185.535156 C 108.648438 185.058594 108.730469 184.574219 108.765625 184.082031 L 108.765625 99.480469 C 108.742188 98.980469 108.667969 98.488281 108.550781 98.003906 C 108.429688 97.519531 108.265625 97.050781 108.058594 96.597656 C 107.851562 96.144531 107.601562 95.714844 107.308594 95.308594 C 107.019531 94.902344 106.695312 94.527344 106.332031 94.183594 C 105.972656 93.839844 105.578125 93.53125 105.160156 93.261719 C 104.738281 92.992188 104.296875 92.765625 103.835938 92.582031 C 103.371094 92.394531 102.894531 92.253906 102.402344 92.160156 C 101.914062 92.066406 101.417969 92.019531 100.921875 92.019531 C 100.421875 92.019531 99.925781 92.066406 99.4375 92.160156 C 98.945312 92.253906 98.46875 92.394531 98.007812 92.582031 C 97.542969 92.765625 97.101562 92.992188 96.679688 93.261719 C 96.261719 93.53125 95.871094 93.839844 95.507812 94.183594 C 95.148438 94.527344 94.820312 94.902344 94.53125 95.308594 C 94.238281 95.714844 93.992188 96.144531 93.78125 96.597656 C 93.574219 97.050781 93.410156 97.519531 93.292969 98.003906 C 93.171875 98.488281 93.101562 98.980469 93.074219 99.480469 L 93.074219 184.082031 " fill-opacity="1" fill-rule="evenodd"/><path fill="#00bceb" d="M 136.65625 168.332031 C 136.691406 168.820312 136.773438 169.304688 136.902344 169.777344 C 137.03125 170.253906 137.199219 170.714844 137.414062 171.15625 C 137.628906 171.601562 137.882812 172.019531 138.171875 172.414062 C 138.464844 172.8125 138.792969 173.175781 139.152344 173.511719 C 139.511719 173.84375 139.902344 174.144531 140.316406 174.40625 C 140.734375 174.667969 141.171875 174.886719 141.628906 175.066406 C 142.085938 175.25 142.558594 175.382812 143.039062 175.476562 C 143.523438 175.566406 144.011719 175.613281 144.503906 175.613281 C 144.996094 175.613281 145.484375 175.570312 145.964844 175.476562 C 146.449219 175.386719 146.921875 175.25 147.378906 175.070312 C 147.835938 174.890625 148.273438 174.667969 148.6875 174.40625 C 149.105469 174.144531 149.496094 173.847656 149.855469 173.511719 C 150.214844 173.175781 150.542969 172.8125 150.832031 172.417969 C 151.125 172.019531 151.378906 171.601562 151.589844 171.15625 C 151.804688 170.714844 151.976562 170.253906 152.101562 169.777344 C 152.230469 169.304688 152.3125 168.820312 152.347656 168.332031 L 152.347656 129.21875 C 152.332031 128.714844 152.265625 128.21875 152.152344 127.726562 C 152.039062 127.234375 151.878906 126.757812 151.671875 126.300781 C 151.46875 125.839844 151.21875 125.402344 150.929688 124.988281 C 150.640625 124.578125 150.316406 124.195312 149.953125 123.847656 C 149.589844 123.496094 149.199219 123.183594 148.777344 122.910156 C 148.351562 122.636719 147.910156 122.40625 147.441406 122.214844 C 146.972656 122.027344 146.492188 121.882812 146 121.789062 C 145.503906 121.691406 145.003906 121.644531 144.5 121.644531 C 143.996094 121.644531 143.5 121.691406 143.003906 121.789062 C 142.511719 121.882812 142.027344 122.027344 141.5625 122.214844 C 141.09375 122.40625 140.648438 122.636719 140.226562 122.910156 C 139.804688 123.183594 139.414062 123.496094 139.050781 123.847656 C 138.6875 124.195312 138.363281 124.578125 138.074219 124.988281 C 137.78125 125.402344 137.535156 125.839844 137.332031 126.300781 C 137.125 126.757812 136.964844 127.234375 136.851562 127.726562 C 136.738281 128.21875 136.671875 128.714844 136.65625 129.21875 L 136.65625 168.332031 " fill-opacity="1" fill-rule="evenodd"/><path fill="#00bceb" d="M 180.007812 168.332031 C 180.0625 169.066406 180.21875 169.785156 180.476562 170.476562 C 180.738281 171.171875 181.085938 171.816406 181.527344 172.410156 C 181.964844 173.007812 182.480469 173.53125 183.066406 173.980469 C 183.652344 174.429688 184.292969 174.792969 184.980469 175.0625 C 185.667969 175.332031 186.382812 175.503906 187.117188 175.574219 C 187.855469 175.640625 188.589844 175.609375 189.316406 175.472656 C 190.042969 175.335938 190.738281 175.097656 191.398438 174.765625 C 192.058594 174.433594 192.660156 174.015625 193.203125 173.515625 C 194.660156 172.160156 195.550781 170.308594 195.699219 168.332031 L 195.699219 150.882812 C 195.691406 150.375 195.628906 149.871094 195.523438 149.375 C 195.414062 148.878906 195.257812 148.394531 195.058594 147.929688 C 194.855469 147.460938 194.609375 147.019531 194.320312 146.597656 C 194.035156 146.179688 193.707031 145.792969 193.34375 145.4375 C 192.980469 145.082031 192.589844 144.761719 192.164062 144.484375 C 191.738281 144.203125 191.289062 143.96875 190.820312 143.777344 C 190.347656 143.582031 189.863281 143.4375 189.363281 143.339844 C 188.867188 143.242188 188.363281 143.195312 187.851562 143.195312 C 187.34375 143.195312 186.839844 143.242188 186.34375 143.339844 C 185.84375 143.4375 185.359375 143.582031 184.886719 143.777344 C 184.417969 143.96875 183.96875 144.203125 183.542969 144.484375 C 183.117188 144.761719 182.722656 145.082031 182.359375 145.4375 C 181.996094 145.792969 181.671875 146.179688 181.382812 146.597656 C 181.097656 147.019531 180.851562 147.460938 180.648438 147.929688 C 180.449219 148.394531 180.292969 148.878906 180.183594 149.375 C 180.078125 149.871094 180.015625 150.375 180.007812 150.882812 L 180.007812 168.332031 " fill-opacity="1" fill-rule="evenodd"/><path fill="#00bceb" d="M 223.441406 168.332031 C 223.480469 168.820312 223.5625 169.304688 223.6875 169.777344 C 223.816406 170.253906 223.988281 170.714844 224.203125 171.15625 C 224.414062 171.601562 224.667969 172.019531 224.960938 172.414062 C 225.253906 172.8125 225.578125 173.175781 225.9375 173.511719 C 226.300781 173.84375 226.6875 174.144531 227.105469 174.40625 C 227.519531 174.667969 227.957031 174.886719 228.417969 175.066406 C 228.875 175.25 229.34375 175.382812 229.828125 175.476562 C 230.3125 175.566406 230.796875 175.613281 231.289062 175.613281 C 231.78125 175.613281 232.269531 175.570312 232.753906 175.476562 C 233.238281 175.386719 233.707031 175.25 234.164062 175.070312 C 234.621094 174.890625 235.058594 174.667969 235.476562 174.40625 C 235.894531 174.144531 236.28125 173.847656 236.640625 173.511719 C 237.003906 173.175781 237.328125 172.8125 237.621094 172.417969 C 237.914062 172.019531 238.164062 171.601562 238.378906 171.15625 C 238.59375 170.714844 238.761719 170.253906 238.890625 169.777344 C 239.015625 169.304688 239.097656 168.820312 239.136719 168.332031 L 239.136719 129.21875 C 239.117188 128.714844 239.050781 128.21875 238.9375 127.726562 C 238.824219 127.234375 238.664062 126.757812 238.460938 126.300781 C 238.253906 125.839844 238.007812 125.402344 237.71875 124.988281 C 237.429688 124.578125 237.101562 124.195312 236.742188 123.847656 C 236.378906 123.496094 235.984375 123.183594 235.5625 122.910156 C 235.140625 122.636719 234.695312 122.40625 234.226562 122.214844 C 233.761719 122.027344 233.28125 121.882812 232.785156 121.789062 C 232.292969 121.691406 231.792969 121.644531 231.289062 121.644531 C 230.785156 121.644531 230.285156 121.691406 229.792969 121.789062 C 229.296875 121.882812 228.816406 122.027344 228.347656 122.214844 C 227.882812 122.40625 227.4375 122.636719 227.015625 122.910156 C 226.59375 123.183594 226.199219 123.496094 225.835938 123.847656 C 225.472656 124.195312 225.148438 124.578125 224.859375 124.988281 C 224.570312 125.402344 224.324219 125.839844 224.117188 126.300781 C 223.914062 126.757812 223.753906 127.234375 223.640625 127.726562 C 223.527344 128.21875 223.460938 128.714844 223.441406 129.21875 L 223.441406 168.332031 " fill-opacity="1" fill-rule="evenodd"/><path fill="#00bceb" d="M 266.648438 184.082031 C 266.683594 184.574219 266.765625 185.058594 266.890625 185.535156 C 267.015625 186.011719 267.1875 186.472656 267.398438 186.917969 C 267.613281 187.363281 267.863281 187.78125 268.15625 188.179688 C 268.449219 188.578125 268.773438 188.945312 269.136719 189.28125 C 269.496094 189.617188 269.882812 189.914062 270.300781 190.175781 C 270.71875 190.441406 271.15625 190.660156 271.613281 190.84375 C 272.074219 191.023438 272.542969 191.160156 273.027344 191.25 C 273.511719 191.34375 274 191.390625 274.496094 191.390625 C 274.988281 191.390625 275.476562 191.34375 275.960938 191.25 C 276.445312 191.160156 276.914062 191.023438 277.375 190.84375 C 277.832031 190.660156 278.269531 190.441406 278.6875 190.175781 C 279.105469 189.914062 279.492188 189.617188 279.851562 189.28125 C 280.214844 188.945312 280.539062 188.578125 280.832031 188.179688 C 281.125 187.78125 281.375 187.363281 281.589844 186.917969 C 281.800781 186.472656 281.972656 186.011719 282.097656 185.535156 C 282.222656 185.058594 282.304688 184.574219 282.339844 184.082031 L 282.339844 99.480469 C 282.3125 98.980469 282.242188 98.488281 282.125 98.003906 C 282.003906 97.519531 281.839844 97.050781 281.632812 96.597656 C 281.425781 96.144531 281.175781 95.714844 280.882812 95.308594 C 280.59375 94.902344 280.269531 94.527344 279.90625 94.183594 C 279.542969 93.839844 279.152344 93.53125 278.734375 93.261719 C 278.3125 92.992188 277.871094 92.765625 277.410156 92.582031 C 276.945312 92.394531 276.46875 92.253906 275.976562 92.160156 C 275.488281 92.066406 274.992188 92.019531 274.496094 92.019531 C 273.996094 92.019531 273.5 92.066406 273.011719 92.160156 C 272.519531 92.253906 272.042969 92.394531 271.582031 92.582031 C 271.117188 92.765625 270.675781 92.992188 270.253906 93.261719 C 269.835938 93.53125 269.445312 93.839844 269.082031 94.183594 C 268.71875 94.527344 268.394531 94.902344 268.105469 95.308594 C 267.8125 95.714844 267.566406 96.144531 267.355469 96.597656 C 267.148438 97.050781 266.984375 97.519531 266.867188 98.003906 C 266.746094 98.488281 266.675781 98.980469 266.648438 99.480469 L 266.648438 184.082031 " fill-opacity="1" fill-rule="evenodd"/><path fill="#00bceb" d="M 310.230469 168.332031 C 310.265625 168.820312 310.347656 169.304688 310.476562 169.777344 C 310.605469 170.253906 310.773438 170.714844 310.988281 171.15625 C 311.203125 171.601562 311.453125 172.019531 311.746094 172.414062 C 312.039062 172.8125 312.367188 173.175781 312.726562 173.511719 C 313.085938 173.84375 313.476562 174.144531 313.890625 174.40625 C 314.308594 174.667969 314.746094 174.886719 315.203125 175.066406 C 315.660156 175.25 316.132812 175.382812 316.613281 175.476562 C 317.097656 175.566406 317.585938 175.613281 318.078125 175.613281 C 318.570312 175.613281 319.058594 175.570312 319.539062 175.476562 C 320.023438 175.386719 320.492188 175.25 320.953125 175.070312 C 321.410156 174.890625 321.847656 174.667969 322.261719 174.40625 C 322.679688 174.144531 323.066406 173.847656 323.429688 173.511719 C 323.789062 173.175781 324.117188 172.8125 324.40625 172.417969 C 324.699219 172.019531 324.953125 171.601562 325.164062 171.15625 C 325.378906 170.714844 325.550781 170.253906 325.675781 169.777344 C 325.804688 169.304688 325.886719 168.820312 325.921875 168.332031 L 325.921875 129.21875 C 325.90625 128.714844 325.839844 128.21875 325.726562 127.726562 C 325.609375 127.234375 325.453125 126.757812 325.246094 126.300781 C 325.042969 125.839844 324.792969 125.402344 324.503906 124.988281 C 324.214844 124.578125 323.890625 124.195312 323.527344 123.847656 C 323.164062 123.496094 322.773438 123.183594 322.351562 122.910156 C 321.925781 122.636719 321.484375 122.40625 321.015625 122.214844 C 320.546875 122.027344 320.066406 121.882812 319.574219 121.789062 C 319.078125 121.691406 318.578125 121.644531 318.074219 121.644531 C 317.570312 121.644531 317.074219 121.691406 316.578125 121.789062 C 316.082031 121.882812 315.601562 122.027344 315.136719 122.214844 C 314.667969 122.40625 314.222656 122.636719 313.800781 122.910156 C 313.378906 123.183594 312.984375 123.496094 312.625 123.847656 C 312.261719 124.195312 311.933594 124.578125 311.644531 124.988281 C 311.355469 125.402344 311.109375 125.839844 310.90625 126.300781 C 310.699219 126.757812 310.539062 127.234375 310.425781 127.726562 C 310.3125 128.21875 310.246094 128.714844 310.230469 129.21875 L 310.230469 168.332031 " fill-opacity="1" fill-rule="evenodd"/><g clip-path="url(#5c053fd651)"><path fill="#00bceb" d="M 353.160156 168.332031 C 353.21875 169.066406 353.375 169.785156 353.632812 170.476562 C 353.890625 171.171875 354.242188 171.816406 354.679688 172.410156 C 355.121094 173.007812 355.632812 173.53125 356.222656 173.980469 C 356.808594 174.429688 357.445312 174.792969 358.136719 175.0625 C 358.824219 175.332031 359.535156 175.503906 360.273438 175.574219 C 361.011719 175.640625 361.742188 175.609375 362.46875 175.472656 C 363.195312 175.335938 363.890625 175.097656 364.550781 174.765625 C 365.214844 174.433594 365.816406 174.015625 366.359375 173.515625 C 367.816406 172.160156 368.707031 170.308594 368.855469 168.332031 L 368.855469 150.882812 C 368.84375 150.375 368.785156 149.871094 368.675781 149.375 C 368.570312 148.878906 368.414062 148.394531 368.210938 147.929688 C 368.011719 147.460938 367.765625 147.019531 367.476562 146.597656 C 367.1875 146.179688 366.863281 145.792969 366.5 145.4375 C 366.136719 145.082031 365.742188 144.761719 365.316406 144.484375 C 364.894531 144.203125 364.445312 143.96875 363.972656 143.777344 C 363.503906 143.582031 363.019531 143.4375 362.519531 143.339844 C 362.019531 143.242188 361.515625 143.195312 361.007812 143.195312 C 360.5 143.195312 359.996094 143.242188 359.496094 143.339844 C 358.996094 143.4375 358.511719 143.582031 358.042969 143.777344 C 357.570312 143.96875 357.125 144.203125 356.699219 144.484375 C 356.273438 144.761719 355.878906 145.082031 355.515625 145.4375 C 355.152344 145.792969 354.828125 146.179688 354.539062 146.597656 C 354.25 147.019531 354.007812 147.460938 353.804688 147.929688 C 353.601562 148.394531 353.449219 148.878906 353.339844 149.375 C 353.230469 149.871094 353.171875 150.375 353.160156 150.882812 L 353.160156 168.332031 " fill-opacity="1" fill-rule="evenodd"/></g></svg>